<?xml version="1.0" encoding="UTF-8" standalone="no"?>
<!-- Generator: Adobe Illustrator 16.0.0, SVG Export Plug-In . SVG Version: 6.00 Build 0)  -->

<svg
   xmlns:osb="http://www.openswatchbook.org/uri/2009/osb"
   xmlns:dc="http://purl.org/dc/elements/1.1/"
   xmlns:cc="http://creativecommons.org/ns#"
   xmlns:rdf="http://www.w3.org/1999/02/22-rdf-syntax-ns#"
   xmlns:svg="http://www.w3.org/2000/svg"
   xmlns="http://www.w3.org/2000/svg"
   xmlns:sodipodi="http://sodipodi.sourceforge.net/DTD/sodipodi-0.dtd"
   xmlns:inkscape="http://www.inkscape.org/namespaces/inkscape"
   version="1.1"
   id="Capa_1"
   x="0px"
   y="0px"
   width="40"
   height="40"
   viewBox="0 0 40 40"
   xml:space="preserve"
   sodipodi:docname="ios-referenciaobra.svg"
   inkscape:version="0.92.4 (5da689c313, 2019-01-14)"><metadata
   id="metadata5772"><rdf:RDF><cc:Work
       rdf:about=""><dc:format>image/svg+xml</dc:format><dc:type
         rdf:resource="http://purl.org/dc/dcmitype/StillImage" /><dc:title></dc:title></cc:Work></rdf:RDF></metadata><defs
   id="defs5770"><linearGradient
     id="linearGradient7834"
     osb:paint="solid"><stop
       style="stop-color:#000000;stop-opacity:1;"
       offset="0"
       id="stop7832" /></linearGradient><linearGradient
     id="linearGradient7810"
     osb:paint="solid"><stop
       style="stop-color:#ffffff;stop-opacity:1;"
       offset="0"
       id="stop7808" /></linearGradient><linearGradient
     id="linearGradient6356"
     osb:paint="gradient"><stop
       style="stop-color:#ffffff;stop-opacity:1;"
       offset="0"
       id="stop6352" /><stop
       style="stop-color:#ffffff;stop-opacity:0;"
       offset="1"
       id="stop6354" /></linearGradient></defs><sodipodi:namedview
   pagecolor="#ffffff"
   bordercolor="#666666"
   borderopacity="1"
   objecttolerance="10"
   gridtolerance="10"
   guidetolerance="10"
   inkscape:pageopacity="0"
   inkscape:pageshadow="2"
   inkscape:window-width="1360"
   inkscape:window-height="705"
   id="namedview5768"
   showgrid="false"
   inkscape:zoom="9.6682956"
   inkscape:cx="13.035504"
   inkscape:cy="20.876476"
   inkscape:window-x="-8"
   inkscape:window-y="-8"
   inkscape:window-maximized="1"
   inkscape:current-layer="Capa_1" />

<g
   id="g5737"
   transform="translate(0,-236.164)">
</g>
<g
   id="g5739"
   transform="translate(0,-236.164)">
</g>
<g
   id="g5741"
   transform="translate(0,-236.164)">
</g>
<g
   id="g5743"
   transform="translate(0,-236.164)">
</g>
<g
   id="g5745"
   transform="translate(0,-236.164)">
</g>
<g
   id="g5747"
   transform="translate(0,-236.164)">
</g>
<g
   id="g5749"
   transform="translate(0,-236.164)">
</g>
<g
   id="g5751"
   transform="translate(0,-236.164)">
</g>
<g
   id="g5753"
   transform="translate(0,-236.164)">
</g>
<g
   id="g5755"
   transform="translate(0,-236.164)">
</g>
<g
   id="g5757"
   transform="translate(0,-236.164)">
</g>
<g
   id="g5759"
   transform="translate(0,-236.164)">
</g>
<g
   id="g5761"
   transform="translate(0,-236.164)">
</g>
<g
   id="g5763"
   transform="translate(0,-236.164)">
</g>
<g
   id="g5765"
   transform="translate(0,-236.164)">
</g>
<g
   transform="translate(0.06558485,-0.4494935)"
   id="g10298"><path
     inkscape:connector-curvature="0"
     class="st1"
     d="M 27.51,16.08 C 26.43,15 25.18,14.19 23.78,13.66 c 1.55,-1.19 2.45,-3.04 2.43,-5 C 26.19,7.01 25.52,5.46 24.33,4.29 23.16,3.15 21.63,2.52 20,2.52 h -0.08 c -3.38,0.04 -6.13,2.83 -6.13,6.21 0,1.93 0.91,3.75 2.43,4.93 -1.4,0.53 -2.65,1.34 -3.73,2.42 -1.97,1.97 -3.08,4.59 -3.11,7.38 v 0.3 h 1.97 v -0.29 c 0.07,-4.7 3.94,-8.52 8.64,-8.52 4.7,0 8.58,3.82 8.64,8.52 l 0.01,0.29 h 1.97 v -0.3 c -0.03,-2.79 -1.13,-5.41 -3.1,-7.38 z m -5.92,-3.42 c -0.5,0.2 -1.03,0.31 -1.58,0.31 H 19.87 C 17.65,12.9 15.85,11.1 15.78,8.88 15.76,8.28 15.86,7.7 16.09,7.15 c 0.21,-0.53 0.53,-1 0.93,-1.41 0.41,-0.41 0.88,-0.72 1.41,-0.93 0.51,-0.2 1.04,-0.31 1.59,-0.31 0.05,0 0.09,0 0.14,0 2.22,0.07 4.02,1.87 4.09,4.09 0.02,0.6 -0.08,1.18 -0.31,1.73 -0.21,0.53 -0.53,1 -0.94,1.41 -0.41,0.4 -0.88,0.71 -1.41,0.93 z"
     id="path10288" /><g
     id="g10296"><path
       inkscape:connector-curvature="0"
       class="st1"
       d="m 24.02,32.11 -3.15,2.81 v -8.65 c 0,-0.48 -0.39,-0.87 -0.87,-0.87 -0.48,0 -0.87,0.39 -0.87,0.87 v 8.65 l -3.15,-2.81 c -0.36,-0.32 -0.91,-0.29 -1.23,0.07 -0.32,0.36 -0.29,0.91 0.07,1.23 l 4.1,3.67 c 0.29,0.26 0.67,0.41 1.07,0.41 0.39,0 0.77,-0.14 1.07,-0.41 l 4.1,-3.67 c 0.36,-0.32 0.39,-0.87 0.07,-1.23 -0.31,-0.36 -0.86,-0.39 -1.21,-0.07 z"
       id="path10290" /><path
       inkscape:connector-curvature="0"
       class="st1"
       d="m 8.7,26.59 c -0.23,0 -0.45,0.09 -0.61,0.25 L 1.97,32.96 1.73,28.75 C 1.7,28.27 1.29,27.91 0.81,27.93 0.34,27.96 -0.03,28.37 0,28.85 l 0.31,5.49 c 0.02,0.39 0.19,0.76 0.47,1.04 0.28,0.28 0.65,0.44 1.04,0.47 l 5.49,0.31 c 0.02,0 0.03,0 0.05,0 0.46,0 0.84,-0.36 0.87,-0.82 C 8.26,34.86 7.89,34.45 7.41,34.42 L 3.2,34.19 9.32,28.07 c 0.34,-0.34 0.34,-0.89 0,-1.23 C 9.15,26.68 8.94,26.59 8.7,26.59 Z"
       id="path10292" /><path
       inkscape:connector-curvature="0"
       class="st1"
       d="m 39.18,27.93 c -0.48,-0.03 -0.89,0.34 -0.92,0.82 l -0.24,4.21 -6.12,-6.12 c -0.34,-0.34 -0.89,-0.34 -1.23,0 -0.34,0.34 -0.34,0.89 0,1.23 l 6.12,6.12 -4.21,0.24 c -0.48,0.03 -0.84,0.44 -0.82,0.92 0.03,0.46 0.41,0.82 0.87,0.82 0.02,0 0.03,0 0.05,0 l 5.49,-0.31 c 0.39,-0.02 0.76,-0.19 1.04,-0.47 0.28,-0.28 0.44,-0.65 0.47,-1.04 L 40,28.85 c 0.03,-0.48 -0.34,-0.89 -0.82,-0.92 z"
       id="path10294" /></g></g></svg>