<?xml version="1.0" encoding="UTF-8" standalone="no"?>
<!-- Generator: Adobe Illustrator 16.0.0, SVG Export Plug-In . SVG Version: 6.00 Build 0)  -->

<svg
   xmlns:osb="http://www.openswatchbook.org/uri/2009/osb"
   xmlns:dc="http://purl.org/dc/elements/1.1/"
   xmlns:cc="http://creativecommons.org/ns#"
   xmlns:rdf="http://www.w3.org/1999/02/22-rdf-syntax-ns#"
   xmlns:svg="http://www.w3.org/2000/svg"
   xmlns="http://www.w3.org/2000/svg"
   xmlns:sodipodi="http://sodipodi.sourceforge.net/DTD/sodipodi-0.dtd"
   xmlns:inkscape="http://www.inkscape.org/namespaces/inkscape"
   version="1.1"
   id="Capa_1"
   x="0px"
   y="0px"
   width="40"
   height="40"
   viewBox="0 0 40 40"
   xml:space="preserve"
   sodipodi:docname="ios-coletivo.svg"
   inkscape:version="0.92.4 (5da689c313, 2019-01-14)"><metadata
   id="metadata5772"><rdf:RDF><cc:Work
       rdf:about=""><dc:format>image/svg+xml</dc:format><dc:type
         rdf:resource="http://purl.org/dc/dcmitype/StillImage" /><dc:title></dc:title></cc:Work></rdf:RDF></metadata><defs
   id="defs5770"><linearGradient
     id="linearGradient7834"
     osb:paint="solid"><stop
       style="stop-color:#000000;stop-opacity:1;"
       offset="0"
       id="stop7832" /></linearGradient><linearGradient
     id="linearGradient7810"
     osb:paint="solid"><stop
       style="stop-color:#ffffff;stop-opacity:1;"
       offset="0"
       id="stop7808" /></linearGradient><linearGradient
     id="linearGradient6356"
     osb:paint="gradient"><stop
       style="stop-color:#ffffff;stop-opacity:1;"
       offset="0"
       id="stop6352" /><stop
       style="stop-color:#ffffff;stop-opacity:0;"
       offset="1"
       id="stop6354" /></linearGradient></defs><sodipodi:namedview
   pagecolor="#ffffff"
   bordercolor="#666666"
   borderopacity="1"
   objecttolerance="10"
   gridtolerance="10"
   guidetolerance="10"
   inkscape:pageopacity="0"
   inkscape:pageshadow="2"
   inkscape:window-width="1360"
   inkscape:window-height="705"
   id="namedview5768"
   showgrid="false"
   inkscape:zoom="3.4182587"
   inkscape:cx="38.210116"
   inkscape:cy="58.816371"
   inkscape:window-x="-8"
   inkscape:window-y="-8"
   inkscape:window-maximized="1"
   inkscape:current-layer="Capa_1" />

<g
   id="g5737"
   transform="translate(0,-236.164)">
</g>
<g
   id="g5739"
   transform="translate(0,-236.164)">
</g>
<g
   id="g5741"
   transform="translate(0,-236.164)">
</g>
<g
   id="g5743"
   transform="translate(0,-236.164)">
</g>
<g
   id="g5745"
   transform="translate(0,-236.164)">
</g>
<g
   id="g5747"
   transform="translate(0,-236.164)">
</g>
<g
   id="g5749"
   transform="translate(0,-236.164)">
</g>
<g
   id="g5751"
   transform="translate(0,-236.164)">
</g>
<g
   id="g5753"
   transform="translate(0,-236.164)">
</g>
<g
   id="g5755"
   transform="translate(0,-236.164)">
</g>
<g
   id="g5757"
   transform="translate(0,-236.164)">
</g>
<g
   id="g5759"
   transform="translate(0,-236.164)">
</g>
<g
   id="g5761"
   transform="translate(0,-236.164)">
</g>
<g
   id="g5763"
   transform="translate(0,-236.164)">
</g>
<g
   id="g5765"
   transform="translate(0,-236.164)">
</g>
<g
   transform="translate(16.666069,-67.553461)"
   id="g1138"><path
     inkscape:connector-curvature="0"
     class="st0"
     d="m 469.6,-187.1 c 0,-3 2.4,-5.4 5.4,-5.4 3,0 5.4,2.4 5.4,5.4 v 0.3 h 1.6 v -0.3 c 0,-1.9 -0.7,-3.6 -2,-4.9 -0.6,-0.6 -1.4,-1.1 -2.2,-1.5 0.9,-0.8 1.4,-2 1.4,-3.2 0,-1.1 -0.5,-2.1 -1.3,-2.9 -0.8,-0.8 -1.9,-1.2 -3,-1.2 -2.3,0 -4.1,1.9 -4.1,4.2 0,1.2 0.5,2.3 1.4,3.1 -0.8,0.4 -1.5,0.9 -2.2,1.5 -1.3,1.3 -2,3.1 -2,4.9 v 0.3 h 1.6 z m 7.2,-7.8 c -0.5,0.5 -1.2,0.8 -1.9,0.8 -1.3,0 -2.4,-1.1 -2.5,-2.5 0,-0.7 0.2,-1.4 0.8,-1.9 0.5,-0.5 1.1,-0.8 1.8,-0.8 0,0 0.1,0 0.1,0 1.3,0 2.4,1.1 2.5,2.5 0,0.7 -0.3,1.4 -0.8,1.9 z"
     id="path1128" /><path
     inkscape:connector-curvature="0"
     class="st0"
     d="m 500.3,-206.4 h -34.6 c -1.5,0 -2.7,1.2 -2.7,2.7 v 20.8 c 0,1.5 1.2,2.7 2.7,2.7 h 34.6 c 1.5,0 2.7,-1.2 2.7,-2.7 v -20.8 c 0,-1.4 -1.2,-2.7 -2.7,-2.7 z m -35.3,2.7 c 0,-0.4 0.3,-0.7 0.7,-0.7 h 34.6 c 0.4,0 0.7,0.3 0.7,0.7 v 20.8 c 0,0.4 -0.3,0.7 -0.7,0.7 h -34.6 c -0.4,0 -0.7,-0.3 -0.7,-0.7 z"
     id="path1130" /><path
     inkscape:connector-curvature="0"
     class="st0"
     d="m 486.8,-196.9 h 9 c 0.6,0 1,-0.4 1,-1 0,-0.6 -0.5,-1 -1,-1 h -9 c -0.6,0 -1,0.4 -1,1 0,0.6 0.5,1 1,1 z"
     id="path1132" /><path
     inkscape:connector-curvature="0"
     class="st0"
     d="m 486.8,-192.3 h 9 c 0.6,0 1,-0.4 1,-1 0,-0.6 -0.5,-1 -1,-1 h -9 c -0.6,0 -1,0.4 -1,1 0,0.6 0.5,1 1,1 z"
     id="path1134" /><path
     inkscape:connector-curvature="0"
     class="st0"
     d="m 486.8,-187.6 h 9 c 0.6,0 1,-0.4 1,-1 0,-0.6 -0.5,-1 -1,-1 h -9 c -0.6,0 -1,0.4 -1,1 0,0.6 0.5,1 1,1 z"
     id="path1136" /></g><path
   inkscape:connector-curvature="0"
   class="st0"
   d="m 506.16603,-323.05347 -0.5,-0.2 0.4,-0.3 c 3.2,-2.2 5,-5.8 5,-9.6 0,-3 -1.3,-5.9 -3.5,-8.1 -2.2,-2.1 -5.1,-3.3 -8.1,-3.3 -6.2,0.1 -11.3,5.2 -11.3,11.5 0,3.8 1.9,7.3 5,9.4 l 0.4,0.3 -0.5,0.2 c -2.9,1 -5.4,2.6 -7.6,4.8 -3.7,3.7 -5.8,8.6 -5.9,13.9 h 2.7 c 0.1,-9.4 7.9,-17.1 17.3,-17.1 9.4,0 17.2,7.6 17.3,17.1 h 2.7 c -0.1,-5.3 -2.1,-10.2 -5.9,-13.9 -2.1,-2.1 -4.6,-3.7 -7.5,-4.7 z m -6.5,-1.1 c -0.1,0 -0.2,0 -0.3,0 -4.6,-0.1 -8.3,-3.9 -8.5,-8.5 0,-1.2 0.2,-2.4 0.6,-3.6 0.4,-1.1 1.1,-2.1 1.9,-2.9 0.8,-0.8 1.8,-1.5 2.9,-1.9 1.1,-0.5 2.3,-0.7 3.6,-0.6 4.6,0.1 8.3,3.9 8.5,8.5 0,1.2 -0.2,2.4 -0.6,3.6 -0.4,1.1 -1.1,2.1 -1.9,2.9 -0.8,0.8 -1.8,1.5 -2.9,1.9 -1.1,0.4 -2.2,0.6 -3.3,0.6 z"
   id="path1140" /><g
   transform="translate(16.666069,-67.553461)"
   id="g1146"><path
     inkscape:connector-curvature="0"
     class="st0"
     d="m 497.1,-141.4 h -30.2 c -2.7,0 -4.9,2.2 -4.9,4.9 v 20.7 c 0,2.7 2.2,4.9 4.9,4.9 h 30.2 c 2.7,0 4.9,-2.2 4.9,-4.9 v -20.6 c 0,-2.8 -2.2,-5 -4.9,-5 z m 2.7,25.5 c 0,1.5 -1.2,2.7 -2.7,2.7 h -30.2 c -1.5,0 -2.7,-1.2 -2.7,-2.7 v -20.6 c 0,-1.5 1.2,-2.7 2.7,-2.7 h 30.2 c 1.5,0 2.7,1.2 2.7,2.7 z"
     id="path1142" /><path
     inkscape:connector-curvature="0"
     class="st0"
     d="m 487.2,-126.4 9.8,-8.8 c 0.5,-0.4 0.5,-1.1 0.1,-1.6 -0.4,-0.5 -1.1,-0.5 -1.6,-0.1 l -13.5,12.1 -2.6,-2.3 c 0,0 0,0 0,0 -0.1,-0.1 -0.1,-0.1 -0.2,-0.2 l -10.7,-9.6 c -0.5,-0.4 -1.2,-0.4 -1.6,0.1 -0.4,0.5 -0.4,1.2 0.1,1.6 l 9.9,8.8 -9.9,9.2 c -0.5,0.4 -0.5,1.1 0,1.6 0.2,0.2 0.5,0.4 0.8,0.4 0.3,0 0.5,-0.1 0.8,-0.3 l 10,-9.4 2.7,2.4 c 0.2,0.2 0.5,0.3 0.8,0.3 0.3,0 0.5,-0.1 0.7,-0.3 l 2.8,-2.5 10,9.4 c 0.2,0.2 0.5,0.3 0.8,0.3 0.3,0 0.6,-0.1 0.8,-0.3 0.4,-0.4 0.4,-1.2 0,-1.6 z"
     id="path1144" /></g><g
   transform="translate(16.666069,-67.553461)"
   id="g1152"><path
     inkscape:connector-curvature="0"
     class="st0"
     d="m 341.3,-261.6 c 0,-0.3 -0.2,-0.6 -0.5,-0.8 l -18.7,-13.7 c -0.5,-0.3 -1.1,-0.3 -1.5,0 l -18.7,13.7 c -0.3,0.2 -0.5,0.5 -0.5,0.8 0,0.3 0,0.7 0.2,1 0.4,0.6 1.2,0.7 1.8,0.3 l 18,-13.1 18,13.1 c 0.2,0.2 0.5,0.3 0.8,0.3 0.4,0 0.8,-0.2 1,-0.5 0.1,-0.4 0.2,-0.8 0.1,-1.1 z"
     id="path1148" /><path
     inkscape:connector-curvature="0"
     class="st0"
     d="m 335.7,-260.6 c -0.7,0 -1.3,0.6 -1.3,1.3 v 16.1 h -7.7 v -8.6 c 0,-3 -2.4,-5.4 -5.4,-5.4 -3,0 -5.4,2.4 -5.4,5.4 v 8.6 h -7.7 v -16.1 c 0,-0.7 -0.6,-1.3 -1.3,-1.3 -0.7,0 -1.3,0.6 -1.3,1.3 v 17.4 c 0,0.7 0.6,1.3 1.3,1.3 h 10.3 c 0.7,0 1.2,-0.5 1.3,-1.2 0,0 0,-0.1 0,-0.1 v -9.9 c 0,-1.6 1.3,-2.8 2.8,-2.8 1.5,0 2.8,1.3 2.8,2.8 v 9.9 c 0,0 0,0.1 0,0.1 0,0.7 0.6,1.2 1.3,1.2 h 10.3 c 0.7,0 1.3,-0.6 1.3,-1.3 v -17.3 c 0,-0.8 -0.6,-1.4 -1.3,-1.4 z"
     id="path1150" /></g><path
   inkscape:connector-curvature="0"
   class="st0"
   d="m 357.06606,-179.55347 -10.1,-10.1 c 1.6,-2.5 2.5,-5.4 2.5,-8.4 0,-8.7 -7,-15.7 -15.7,-15.7 -8.7,0 -15.7,7 -15.7,15.7 0,8.7 7,15.7 15.7,15.7 3,0 5.9,-0.8 8.4,-2.5 l 10.1,10.1 c 0.6,0.6 1.5,1 2.4,1 0.9,0 1.8,-0.3 2.4,-1 0.6,-0.6 1,-1.5 1,-2.4 0,-0.9 -0.4,-1.8 -1,-2.4 z m -23.4,-32 c 7.4,0 13.5,6.1 13.5,13.5 0,2.9 -0.9,5.6 -2.6,7.9 -0.8,1.2 -1.9,2.2 -3,3 v 0 c -2.3,1.7 -5,2.6 -7.9,2.6 -7.4,0 -13.5,-6.1 -13.5,-13.5 0,-7.4 6.1,-13.5 13.5,-13.5 z m 22.1,34.4 c 0,0.3 -0.1,0.6 -0.4,0.8 v 0 c -0.5,0.5 -1.3,0.4 -1.7,0 l -9.8,-9.8 c 0.6,-0.5 1.2,-1.1 1.7,-1.7 l 9.8,9.8 c 0.3,0.3 0.4,0.6 0.4,0.9 z"
   id="path1160" /><path
   inkscape:connector-curvature="0"
   class="st0"
   d="m 515.76603,-406.25347 v 0 -5.8 c 0,-0.3 -0.2,-0.7 -0.4,-0.9 -0.3,-0.2 -0.6,-0.3 -1,-0.2 l -21.7,6.9 c -0.5,0.1 -0.8,0.6 -0.8,1 v 11 10.2 1.2 c -0.9,-0.7 -2,-1 -3.2,-1 -2.9,0 -5.3,2.4 -5.3,5.3 0,2.9 2.4,5.3 5.3,5.3 2.9,0 5.3,-2.4 5.3,-5.3 0,0 0,0 0,-0.1 v -5.3 -13.2 l 19.6,-6.2 v 11.4 c -0.9,-0.7 -2,-1 -3.2,-1 -2.9,0 -5.3,2.4 -5.3,5.3 0,2.9 2.4,5.3 5.3,5.3 2.9,0 5.3,-2.4 5.3,-5.3 v 0 0 z m -27,30.9 c -1.8,0 -3.2,-1.4 -3.2,-3.2 0,-1.8 1.4,-3.2 3.2,-3.2 1.8,0 3.2,1.4 3.2,3.2 0,1.8 -1.4,3.2 -3.2,3.2 z m 5.3,-24.1 v -5 l 19.6,-6.2 v 5 z m 16.4,15 c -1.8,0 -3.2,-1.4 -3.2,-3.2 0,-1.8 1.4,-3.2 3.2,-3.2 1.8,0 3.2,1.4 3.2,3.2 0,1.8 -1.4,3.2 -3.2,3.2 z"
   id="path1172" /><g
   transform="translate(16.666069,-67.553461)"
   id="g1206"><path
     inkscape:connector-curvature="0"
     class="st0"
     d="m 315.2,-198.6 h 14 c 0.5,0 0.9,-0.4 0.9,-0.9 0,-0.5 -0.4,-0.9 -0.9,-0.9 h -14 c -0.5,0 -0.9,0.4 -0.9,0.9 0,0.4 0.4,0.9 0.9,0.9 z"
     id="path1192" /><path
     inkscape:connector-curvature="0"
     class="st0"
     d="m 329.3,-190.8 h -14 c -0.5,0 -0.9,0.4 -0.9,0.9 0,0.5 0.4,0.9 0.9,0.9 h 14 c 0.5,0 0.9,-0.4 0.9,-0.9 0,-0.5 -0.4,-0.9 -0.9,-0.9 z"
     id="path1194" /><path
     inkscape:connector-curvature="0"
     class="st0"
     d="m 329.3,-181.1 h -14 c -0.5,0 -0.9,0.4 -0.9,0.9 0,0.5 0.4,0.9 0.9,0.9 h 14 c 0.5,0 0.9,-0.4 0.9,-0.9 0,-0.5 -0.4,-0.9 -0.9,-0.9 z"
     id="path1196" /><path
     inkscape:connector-curvature="0"
     class="st0"
     d="m 309,-198.4 c 0.1,0.2 0.4,0.3 0.6,0.4 h 0.1 c 0.2,0 0.4,-0.1 0.6,-0.2 l 3.8,-2.9 c 0.4,-0.3 0.6,-0.8 0.3,-1.3 -0.1,-0.2 -0.3,-0.4 -0.6,-0.4 -0.3,0 -0.5,0 -0.7,0.1 -0.1,0 -0.1,0.1 -0.2,0.1 l -3,2.3 -0.4,-0.5 c -0.1,-0.2 -0.4,-0.3 -0.6,-0.4 -0.2,0 -0.5,0 -0.7,0.1 -0.2,0.1 -0.3,0.4 -0.4,0.6 0,0.2 0,0.5 0.1,0.7 z"
     id="path1198" /><path
     inkscape:connector-curvature="0"
     class="st0"
     d="m 308.1,-190.2 0.9,1.3 v 0 c 0.1,0.2 0.4,0.4 0.6,0.4 v 0 h 0.1 c 0.2,0 0.4,-0.1 0.6,-0.2 l 3.8,-2.9 c 0.2,-0.1 0.3,-0.4 0.4,-0.6 0.1,-0.2 0,-0.5 -0.2,-0.7 -0.1,-0.2 -0.4,-0.3 -0.6,-0.4 -0.2,0 -0.5,0 -0.7,0.2 l -3,2.4 -0.4,-0.5 c -0.1,-0.2 -0.3,-0.4 -0.5,-0.4 -0.2,-0.1 -0.5,-0.1 -0.7,0.1 -0.2,0.2 -0.4,0.3 -0.5,0.5 -0.1,0.2 -0.1,0.5 0,0.7 0.1,0 0.2,0.1 0.2,0.1 z"
     id="path1200" /><path
     inkscape:connector-curvature="0"
     class="st0"
     d="m 314.3,-183.3 c -0.1,-0.2 -0.4,-0.3 -0.6,-0.4 -0.3,0 -0.5,0 -0.7,0.2 l -3,2.4 -0.4,-0.5 c -0.1,-0.2 -0.4,-0.3 -0.6,-0.4 -0.2,0 -0.5,0 -0.7,0.1 -0.4,0.3 -0.5,0.9 -0.2,1.3 l 0.9,1.3 v 0 c 0.1,0.2 0.4,0.3 0.6,0.4 h 0.1 c 0.2,0 0.4,-0.1 0.6,-0.2 l 3.8,-2.9 c 0.2,-0.1 0.3,-0.4 0.4,-0.6 0,-0.2 0,-0.5 -0.2,-0.7 z"
     id="path1202" /><path
     inkscape:connector-curvature="0"
     class="st0"
     d="m 332.3,-213.4 h -27.2 c -1.2,0 -2.2,1 -2.2,2.2 v 35.6 c 0,1.2 1,2.2 2.2,2.2 h 27.2 c 1.2,0 2.2,-1 2.2,-2.2 v -35.6 c 0,-1.2 -1,-2.2 -2.2,-2.2 z m 0.3,8.2 v 29.6 c 0,0.2 -0.1,0.3 -0.3,0.3 h -27.2 c -0.2,0 -0.3,-0.1 -0.3,-0.3 v -29.6 z m -27.8,-1.8 v -4.2 c 0,-0.2 0.1,-0.3 0.3,-0.3 h 27.2 c 0.2,0 0.3,0.1 0.3,0.3 v 4.2 z"
     id="path1204" /></g><g
   transform="translate(16.666069,-67.553461)"
   id="g1212"><path
     inkscape:connector-curvature="0"
     class="st0"
     d="m 410.8,-322.2 c 1.2,0 2.2,0.9 2.2,1.9 0,0.6 0.5,1 1,1 0.5,0 1,-0.5 1,-1 0,-1.9 -1.4,-3.4 -3.2,-3.8 v -0.5 c 0,-0.6 -0.5,-1 -1,-1 -0.5,0 -1,0.5 -1,1 v 0.5 c -1.9,0.4 -3.2,2 -3.2,3.8 0,2.2 1.9,4 4.3,4 1.2,0 2.2,0.9 2.2,1.9 0,1 -1,1.9 -2.2,1.9 -1.2,0 -2.2,-0.9 -2.2,-1.9 0,-0.6 -0.5,-1 -1,-1 -0.5,0 -1,0.5 -1,1 0,1.9 1.4,3.4 3.2,3.8 v 0.4 c 0,0.6 0.5,1 1,1 0.5,0 1,-0.5 1,-1 v -0.4 c 1.9,-0.4 3.2,-2 3.2,-3.8 0,-2.2 -1.9,-4 -4.3,-4 -1.2,0 -2.2,-0.9 -2.2,-1.9 -0.1,-1 0.9,-1.9 2.2,-1.9 z"
     id="path1208" /><path
     inkscape:connector-curvature="0"
     class="st0"
     d="m 414.3,-330.1 c -0.1,-0.2 -0.2,-0.4 -0.4,-0.6 h 2 c 2,0 3.6,-1.6 3.6,-3.6 0,-2 -1.6,-3.6 -3.6,-3.6 h -6.3 c 0.4,-0.6 0.6,-1.3 0.6,-2 0,-2 -1.6,-3.6 -3.6,-3.6 h -19.1 c -2,0 -3.6,1.6 -3.6,3.6 0,2 1.6,3.6 3.6,3.6 h 6.3 c -0.4,0.6 -0.6,1.3 -0.6,2 0,0.7 0.2,1.5 0.6,2 h -2 c -2,0 -3.6,1.6 -3.6,3.6 0,1.1 0.5,2.1 1.4,2.8 -0.8,0.7 -1.4,1.7 -1.4,2.8 0,1.1 0.5,2.1 1.4,2.8 -0.8,0.7 -1.4,1.7 -1.4,2.8 0,1.1 0.5,2.1 1.4,2.8 -0.8,0.7 -1.4,1.7 -1.4,2.8 0,2 1.6,3.6 3.6,3.6 h 9.2 c 2.4,2.6 5.9,4.2 9.7,4.2 7.3,0 13.3,-6 13.3,-13.3 0.1,-6 -4.1,-11.1 -9.7,-12.7 z m 1.7,-6.3 c 1.1,0 2,0.9 2,2 0,1.1 -0.9,2 -2,2 h -5 -14.1 c -1.1,0 -2,-0.9 -2,-2 0,-1.1 0.9,-2 2,-2 z m -28.3,-1.5 c -1.1,0 -2,-0.9 -2,-2 0,-1.1 0.9,-2 2,-2 h 19.1 c 1.1,0 2,0.9 2,2 0,1.1 -0.9,2 -2,2 z m 4.2,7.2 H 411 c 0.3,0 0.6,0.1 0.9,0.2 -0.4,0 -0.7,0 -1.1,0 -3.7,0 -7,1.5 -9.4,3.9 h -9.5 c -1.1,0 -2,-0.9 -2,-2 0,-1.1 0.9,-2.1 2,-2.1 z m 0,5.6 h 8.2 c -0.9,1.2 -1.6,2.6 -2,4.1 h -6.2 c -1.1,0 -2,-0.9 -2,-2 0,-1.2 0.9,-2.1 2,-2.1 z m 0,5.6 h 5.8 c -0.1,0.7 -0.2,1.4 -0.2,2.2 0,0.6 0,1.3 0.1,1.9 h -5.8 c -1.1,0 -2,-0.9 -2,-2 0,-1.1 1,-2.1 2.1,-2.1 z m 0,9.7 c -1.1,0 -2,-0.9 -2,-2 0,-1.1 0.9,-2 2,-2 h 6.1 c 0.4,1.5 1,2.8 1.9,4.1 h -8 z m 18.9,4.2 c -6.5,0 -11.7,-5.3 -11.7,-11.7 0,-6.4 5.3,-11.7 11.7,-11.7 6.4,0 11.7,5.3 11.7,11.7 0,6.4 -5.2,11.7 -11.7,11.7 z"
     id="path1210" /></g><g
   transform="translate(16.666069,-67.553461)"
   id="g1220"><path
     inkscape:connector-curvature="0"
     class="st0"
     d="M 303.7,-322.8 H 339 c 1.3,0 2.3,-1 2.3,-2.3 v 0 c 0,-1.3 -1,-2.3 -2.3,-2.3 h -35.4 c -1.3,0 -2.3,1 -2.3,2.3 v 0 c 0.1,1.3 1.1,2.3 2.4,2.3 z"
     id="path1214" /><path
     inkscape:connector-curvature="0"
     class="st0"
     d="M 303.7,-309.9 H 339 c 1.3,0 2.3,-1 2.3,-2.3 v 0 c 0,-1.3 -1,-2.3 -2.3,-2.3 h -35.4 c -1.3,0 -2.3,1 -2.3,2.3 v 0 c 0.1,1.3 1.1,2.3 2.4,2.3 z"
     id="path1216" /><path
     inkscape:connector-curvature="0"
     class="st0"
     d="M 303.7,-335.7 H 339 c 1.3,0 2.3,-1 2.3,-2.3 v 0 c 0,-1.3 -1,-2.3 -2.3,-2.3 h -35.4 c -1.3,0 -2.3,1 -2.3,2.3 v 0 c 0.1,1.3 1.1,2.3 2.4,2.3 z"
     id="path1218" /></g><g
   transform="translate(16.666069,-67.553461)"
   id="g1226"><path
     inkscape:connector-curvature="0"
     class="st0"
     d="m 492.5,-70.4 v -13.1 c 0,-1.6 -1.3,-3 -3,-3 H 466 c -1.6,0 -3,1.3 -3,3 v 13.1 c 0,1.6 1.3,3 3,3 h 0.3 v 3.6 c 0,0.7 0.4,1.3 1,1.5 0.2,0.1 0.4,0.1 0.6,0.1 0.5,0 0.9,-0.2 1.2,-0.5 0,0 0,0 0.1,-0.1 l 3.8,-4.7 h 16.5 c 1.7,0.1 3,-1.3 3,-2.9 z m -25.2,0.9 H 466 c -0.5,0 -0.9,-0.4 -0.9,-0.9 v -13.1 c 0,-0.5 0.4,-0.9 0.9,-0.9 h 23.6 c 0.5,0 0.9,0.4 0.9,0.9 v 13.1 c 0,0.5 -0.4,0.9 -0.9,0.9 h -17 c 0,0 -0.1,0 -0.1,0 -0.1,0 -0.2,0 -0.3,0.1 v 0 0 c 0,0 -0.1,0.1 -0.1,0.1 0,0 -0.1,0.1 -0.1,0.1 0,0 0,0 -0.1,0.1 l -3.4,4.2 v -3.6 c -0.2,-0.5 -0.7,-1 -1.2,-1 z"
     id="path1222" /><path
     inkscape:connector-curvature="0"
     class="st0"
     d="m 500,-65.5 h -0.3 v -3.6 c 0,-0.7 -0.4,-1.3 -1,-1.6 -0.6,-0.3 -1.3,-0.1 -1.8,0.4 0,0 0,0.1 -0.1,0.1 l -3.8,4.7 h -16.5 c -1.6,0 -3,1.3 -3,3 v 13.1 c 0,1.6 1.3,3 3,3 H 500 c 1.6,0 3,-1.3 3,-3 v -13.1 c 0,-1.7 -1.4,-3 -3,-3 z m -23.6,2 h 17 c 0.1,0 0.3,0 0.4,-0.1 v 0 c 0,0 0,0 0.1,0 0.1,0 0.1,-0.1 0.2,-0.2 0,0 0,0 0.1,-0.1 l 3.4,-4.2 v 3.6 c 0,0.6 0.5,1 1,1 h 1.3 c 0.5,0 0.9,0.4 0.9,0.9 v 13.1 c 0,0.5 -0.4,0.9 -0.9,0.9 h -23.6 c -0.5,0 -0.9,-0.4 -0.9,-0.9 v -13.1 c 0.1,-0.5 0.5,-0.9 1,-0.9 z"
     id="path1224" /></g><g
   transform="translate(16.666069,-67.553461)"
   id="g1284"><path
     inkscape:connector-curvature="0"
     class="st0"
     d="m -485.9,379 c -0.1,-0.4 -0.3,-0.8 -0.6,-1 L -509,361.6 c -0.5,-0.4 -1.3,-0.4 -1.8,0 l -22.5,16.4 c -0.3,0.2 -0.5,0.6 -0.6,1 -0.1,0.4 0,0.8 0.3,1.1 0.5,0.7 1.5,0.8 2.2,0.3 l 21.5,-15.8 21.5,15.8 c 0.3,0.2 0.6,0.3 0.9,0.3 0.5,0 1,-0.2 1.3,-0.6 0.3,-0.3 0.4,-0.7 0.3,-1.1 z"
     id="path1280" /><path
     inkscape:connector-curvature="0"
     class="st0"
     d="m -492.6,380.2 c -0.9,0 -1.5,0.7 -1.5,1.5 V 401 h -9.2 v -10.4 c 0,-3.6 -2.9,-6.5 -6.5,-6.5 -3.6,0 -6.5,2.9 -6.5,6.5 V 401 h -9.2 v -19.3 c 0,-0.9 -0.7,-1.5 -1.5,-1.5 -0.8,0 -1.5,0.7 -1.5,1.5 v 20.8 c 0,0.9 0.7,1.5 1.5,1.5 h 12.3 c 0.8,0 1.5,-0.6 1.5,-1.4 0,0 0,-0.1 0,-0.1 v -11.9 c 0,-1.9 1.5,-3.4 3.4,-3.4 1.9,0 3.4,1.5 3.4,3.4 v 11.9 c 0,0 0,0.1 0,0.1 0.1,0.8 0.7,1.4 1.5,1.4 h 12.3 c 0.9,0 1.5,-0.7 1.5,-1.5 v -20.8 c 0,-0.8 -0.7,-1.5 -1.5,-1.5 z"
     id="path1282" /></g><g
   transform="translate(16.666069,-67.553461)"
   id="g1292"><path
     inkscape:connector-curvature="0"
     class="st0"
     d="m -605.4,365.4 h -35.5 c -1.8,0 -3.3,1.2 -3.3,2.6 0,1.4 1.5,2.6 3.3,2.6 h 35.5 c 1.8,0 3.3,-1.2 3.3,-2.6 0,-1.4 -1.5,-2.6 -3.3,-2.6 z"
     id="path1286" /><path
     inkscape:connector-curvature="0"
     class="st0"
     d="m -605.4,380.1 h -35.5 c -1.8,0 -3.3,1.2 -3.3,2.6 0,1.4 1.5,2.6 3.3,2.6 h 35.5 c 1.8,0 3.3,-1.2 3.3,-2.6 0,-1.5 -1.5,-2.6 -3.3,-2.6 z"
     id="path1288" /><path
     inkscape:connector-curvature="0"
     class="st0"
     d="m -605.4,394.7 h -35.5 c -1.8,0 -3.3,1.2 -3.3,2.6 0,1.4 1.5,2.6 3.3,2.6 h 35.5 c 1.8,0 3.3,-1.2 3.3,-2.6 0,-1.4 -1.5,-2.6 -3.3,-2.6 z"
     id="path1290" /></g><path
   inkscape:connector-curvature="0"
   class="st0"
   d="m -246.23394,330.44653 -10.8,-10.8 c 1.7,-2.7 2.6,-5.8 2.6,-9.1 0,-9.3 -7.6,-16.9 -16.9,-16.9 -9.3,0 -16.9,7.6 -16.9,16.9 0,9.3 7.6,16.9 16.9,16.9 3.2,0 6.4,-0.9 9.1,-2.6 l 10.8,10.8 c 0.7,0.7 1.6,1.1 2.6,1.1 1,0 1.9,-0.4 2.6,-1.1 0.7,-0.7 1.1,-1.6 1.1,-2.6 -0.1,-1 -0.4,-1.9 -1.1,-2.6 z m -25.1,-34.5 c 8,0 14.5,6.5 14.5,14.5 0,3.1 -1,6 -2.8,8.5 -0.9,1.3 -2,2.3 -3.3,3.3 v 0 c -2.5,1.8 -5.4,2.8 -8.5,2.8 -8,0 -14.5,-6.5 -14.5,-14.5 0,-8.1 6.6,-14.6 14.6,-14.6 z m 23.8,37.1 c 0,0.4 -0.1,0.7 -0.4,0.9 v 0 c -0.5,0.5 -1.4,0.5 -1.8,0 l -10.6,-10.6 c 0.7,-0.6 1.3,-1.2 1.8,-1.8 l 10.6,10.6 c 0.2,0.2 0.4,0.5 0.4,0.9 z"
   id="path1294" /><text
   y="379.85806"
   x="-631.58966"
   class="st0"
   style="font-size:18.63549995px;font-family:OpenSans-Regular"
   id="text1296">Menu</text>

<text
   y="379.85806"
   x="-516.30548"
   class="st0"
   style="font-size:18.63549995px;font-family:OpenSans-Regular"
   id="text1298">Início</text>

<text
   y="379.85806"
   x="-416.88693"
   class="st0"
   style="font-size:18.63549995px;font-family:OpenSans-Regular"
   id="text1300">Cadastro</text>

<text
   y="379.85806"
   x="-305.42993"
   class="st0"
   style="font-size:18.63549995px;font-family:OpenSans-Regular"
   id="text1302">Pesquisa</text>

<g
   transform="translate(16.666069,-67.553461)"
   id="g1318"><path
     inkscape:connector-curvature="0"
     class="st0"
     d="m -398.2,377.2 h 15.1 c 0.5,0 1,-0.5 1,-1 0,-0.5 -0.5,-1 -1,-1 h -15.1 c -0.5,0 -1,0.5 -1,1 0,0.5 0.5,1 1,1 z"
     id="path1304" /><path
     inkscape:connector-curvature="0"
     class="st0"
     d="m -383.1,385.6 h -15.1 c -0.5,0 -1,0.5 -1,1 0,0.5 0.5,1 1,1 h 15.1 c 0.5,0 1,-0.5 1,-1 0,-0.5 -0.4,-1 -1,-1 z"
     id="path1306" /><path
     inkscape:connector-curvature="0"
     class="st0"
     d="m -383.1,396.1 h -15.1 c -0.5,0 -1,0.5 -1,1 0,0.5 0.5,1 1,1 h 15.1 c 0.5,0 1,-0.5 1,-1 0,-0.6 -0.4,-1 -1,-1 z"
     id="path1308" /><path
     inkscape:connector-curvature="0"
     class="st0"
     d="m -404.9,377.4 c 0.1,0.2 0.4,0.4 0.7,0.4 h 0.1 c 0.2,0 0.4,-0.1 0.6,-0.2 l 4.1,-3.2 c 0.5,-0.3 0.6,-0.9 0.3,-1.4 -0.1,-0.2 -0.4,-0.4 -0.6,-0.5 -0.3,-0.1 -0.5,0 -0.7,0.1 -0.1,0 -0.1,0.1 -0.2,0.2 l -3.2,2.5 -0.4,-0.6 c -0.1,-0.2 -0.4,-0.4 -0.6,-0.4 -0.3,0 -0.5,0 -0.7,0.2 -0.2,0.1 -0.4,0.4 -0.4,0.6 0,0.3 0,0.5 0.2,0.7 z"
     id="path1310" /><path
     inkscape:connector-curvature="0"
     class="st0"
     d="m -405.9,386.3 1,1.4 v 0 c 0.2,0.2 0.4,0.4 0.7,0.4 v 0 h 0.1 c 0.2,0 0.4,-0.1 0.6,-0.2 l 4.1,-3.2 c 0.2,-0.2 0.4,-0.4 0.4,-0.6 0,-0.3 0,-0.5 -0.2,-0.7 -0.2,-0.2 -0.4,-0.4 -0.6,-0.4 -0.3,0 -0.5,0 -0.7,0.2 l -3.3,2.6 -0.4,-0.5 c -0.1,-0.2 -0.3,-0.4 -0.6,-0.5 -0.3,-0.1 -0.5,-0.1 -0.8,0 -0.2,0.1 -0.4,0.3 -0.5,0.6 -0.1,0.3 -0.1,0.5 0.1,0.8 0.1,0 0.1,0 0.1,0.1 z"
     id="path1312" /><path
     inkscape:connector-curvature="0"
     class="st0"
     d="m -399.1,393.7 c -0.2,-0.2 -0.4,-0.4 -0.6,-0.4 -0.3,0 -0.5,0 -0.7,0.2 l -3.3,2.6 -0.4,-0.6 c -0.1,-0.2 -0.4,-0.4 -0.6,-0.4 -0.3,0 -0.5,0 -0.7,0.2 -0.5,0.3 -0.6,0.9 -0.3,1.4 l 1,1.5 v 0 c 0.2,0.2 0.4,0.4 0.7,0.4 h 0.1 c 0.2,0 0.4,-0.1 0.6,-0.2 l 4.1,-3.2 c 0.2,-0.2 0.4,-0.4 0.4,-0.6 -0.1,-0.4 -0.2,-0.6 -0.3,-0.9 z"
     id="path1314" /><path
     inkscape:connector-curvature="0"
     class="st0"
     d="m -379.8,361.2 h -29.3 c -1.3,0 -2.4,1.1 -2.4,2.4 V 402 c 0,1.3 1.1,2.4 2.4,2.4 h 29.3 c 1.3,0 2.4,-1.1 2.4,-2.4 v -38.4 c 0,-1.3 -1.1,-2.4 -2.4,-2.4 z m 0.4,8.9 V 402 c 0,0.2 -0.2,0.4 -0.4,0.4 h -29.3 c -0.2,0 -0.4,-0.2 -0.4,-0.4 v -31.9 z m -30.1,-2 v -4.5 c 0,-0.2 0.2,-0.4 0.4,-0.4 h 29.3 c 0.2,0 0.4,0.2 0.4,0.4 v 4.5 z"
     id="path1316" /></g><path
   inkscape:connector-curvature="0"
   class="st0"
   d="m -595.73394,20.846539 c -1.1,0.5 -2.3,0.8 -3.6,1 1.3,-0.8 2.3,-2 2.8,-3.4 -1.2,0.7 -2.5,1.2 -4,1.5 -1.1,-1.2 -2.8,-2 -4.5,-2 -3.4,0 -6.2,2.8 -6.2,6.2 0,0.5 0.1,1 0.2,1.4 -5.2,-0.3 -9.8,-2.7 -12.9,-6.5 -0.5,0.9 -0.8,2 -0.8,3.1 0,2.2 1.1,4.1 2.8,5.2 -1,0 -2,-0.3 -2.8,-0.8 v 0.1 c 0,3 2.2,5.6 5,6.1 -0.5,0.1 -1.1,0.2 -1.7,0.2 -0.4,0 -0.8,0 -1.2,-0.1 0.8,2.5 3.1,4.3 5.8,4.3 -2.1,1.7 -4.8,2.7 -7.7,2.7 -0.5,0 -1,0 -1.5,-0.1 2.8,1.8 6,2.8 9.6,2.8 11.5,0 17.7,-9.5 17.7,-17.7 v -0.8 c 1.1,-0.8 2.2,-1.9 3,-3.2"
   id="path1320" /><g
   transform="translate(16.666069,-67.553461)"
   id="g1324"><path
     inkscape:connector-curvature="0"
     class="st0"
     d="m -613.5,32.5 c 0,-2.5 -2.2,-4.7 -4.7,-4.7 H -637 c -2.5,0 -4.7,2.2 -4.7,4.7 v 18.8 c 0,2.5 2.2,4.7 4.7,4.7 h 9.4 V 45.3 h -3.5 v -4.7 h 3.5 v -1.8 c 0,-3.2 2.4,-6 5.3,-6 h 3.8 v 4.7 h -3.8 c -0.4,0 -0.9,0.5 -0.9,1.3 v 1.9 h 4.7 v 4.7 h -4.7 V 56 h 5 c 2.5,0 4.7,-2.2 4.7,-4.7 z"
     id="path1322" /></g><g
   transform="translate(16.666069,-67.553461)"
   id="g1332"><path
     inkscape:connector-curvature="0"
     class="st0"
     d="m -621.5,139.7 h -12.1 c -4.7,0 -8.6,3.8 -8.6,8.6 v 12.1 c 0,4.7 3.8,8.6 8.6,8.6 h 12.1 c 4.7,0 8.6,-3.8 8.6,-8.6 v -12.1 c -0.1,-4.7 -3.9,-8.6 -8.6,-8.6 z m 5.8,20.8 c 0,3.3 -2.6,5.9 -5.9,5.9 h -12.1 c -3.3,0 -5.9,-2.6 -5.9,-5.9 v -12.3 c 0,-3.3 2.6,-5.9 5.9,-5.9 h 12.1 c 3.3,0 5.9,2.6 5.9,5.9 z"
     id="path1326" /><path
     inkscape:connector-curvature="0"
     class="st0"
     d="m -627.6,146.8 c -4.2,0 -7.5,3.4 -7.5,7.5 0,4.1 3.4,7.5 7.5,7.5 4.1,0 7.5,-3.4 7.5,-7.5 0,-4.1 -3.3,-7.5 -7.5,-7.5 z m 0,12.4 c -2.7,0 -4.9,-2.2 -4.9,-4.9 0,-2.7 2.2,-4.9 4.9,-4.9 2.7,0 4.9,2.2 4.9,4.9 0,2.7 -2.2,4.9 -4.9,4.9 z"
     id="path1328" /><circle
     class="st0"
     cx="-619.79999"
     cy="146.60001"
     r="1.8"
     id="circle1330" /></g><g
   transform="translate(16.666069,-67.553461)"
   id="g1338"><g
     id="g1336"><path
       inkscape:connector-curvature="0"
       class="st0"
       d="m -614.3,198.1 c -8.9,-0.8 -17.8,-0.8 -26.7,0 -1.8,0.2 -3.7,1.8 -4,3.7 -1,5.6 -1,11.1 0,16.7 0.3,1.8 2.2,3.5 4,3.7 8.9,0.8 17.8,0.8 26.7,0 1.8,-0.2 3.7,-1.9 4,-3.7 1,-5.6 1,-11.1 0,-16.7 -0.3,-1.8 -2.1,-3.5 -4,-3.7 z m -17.1,17.1 c -0.1,-3.6 -0.1,-7.3 0,-10.9 3.4,1.8 6.9,3.6 10.3,5.4 -3.4,1.8 -6.9,3.7 -10.3,5.5 z"
       id="path1334" /></g></g><path
   inkscape:connector-curvature="0"
   class="st2"
   d="m -624.83394,183.74653 v 27.8 h 27.8 v -27.9 z m 8.6,23.1 h -4.1 v -12.4 h 4.1 z m -2,-14.1 v 0 c -1.4,0 -2.3,-1 -2.3,-2.1 0,-1.2 0.9,-2.1 2.3,-2.1 1.4,0 2.3,0.9 2.3,2.1 0,1.1 -0.9,2.1 -2.3,2.1 z m 16.9,14.1 h -4.1 v -6.6 c 0,-1.7 -0.6,-2.8 -2.1,-2.8 -1.1,0 -1.8,0.8 -2.1,1.5 -0.1,0.3 -0.1,0.6 -0.1,1 v 6.9 h -4.1 c 0,0 0.1,-11.3 0,-12.4 h 4.1 v 1.8 c 0.5,-0.9 1.5,-2 3.7,-2 2.7,0 4.8,1.8 4.8,5.6 z"
   id="path1340" /><g
   transform="translate(16.666069,-67.553461)"
   id="g1356"><path
     inkscape:connector-curvature="0"
     class="st0"
     d="m 419.5,-145.4 c -0.4,0.1 -0.6,0.4 -0.6,0.8 v 8.7 8 0.9 c -0.7,-0.5 -1.6,-0.8 -2.5,-0.8 -2.3,0 -4.2,1.9 -4.2,4.2 0,2.3 1.9,4.2 4.2,4.2 2.3,0 4.2,-1.9 4.2,-4.2 0,0 0,0 0,-0.1 v -4.2 -10.4 l 5.6,-1.8 v -1.8 -4 -1.8 z m -3.1,24.2 c -1.4,0 -2.5,-1.1 -2.5,-2.5 0,-1.4 1.1,-2.5 2.5,-2.5 1.4,0 2.5,1.1 2.5,2.5 0,1.4 -1.1,2.5 -2.5,2.5 z"
     id="path1342" /><path
     inkscape:connector-curvature="0"
     class="st0"
     d="m 412.8,-117.5 c -0.4,-0.3 -0.9,-0.2 -1.1,0.1 -1.3,1.6 -2.9,2.7 -4.8,3.4 -1.9,0.7 -3.9,0.8 -5.9,0.3 -0.2,0 -0.4,0 -0.6,0.1 -0.2,0.1 -0.3,0.3 -0.4,0.5 -0.1,0.4 0.1,0.7 0.4,0.9 0.1,0 0.1,0.1 0.2,0.1 0.9,0.2 1.8,0.3 2.7,0.3 1.4,0 2.8,-0.2 4.1,-0.7 2.2,-0.8 4.1,-2.1 5.5,-3.9 0.3,-0.3 0.2,-0.8 -0.1,-1.1 z"
     id="path1344" /><path
     inkscape:connector-curvature="0"
     class="st0"
     d="m 402.5,-117.8 c -0.4,-0.1 -0.9,0.2 -1,0.6 -0.1,0.4 0.1,0.8 0.4,0.9 0,0 0.1,0 0.2,0.1 0.5,0.1 1.1,0.2 1.6,0.2 2.1,0 4.1,-1 5.5,-2.7 v 0 c 0.3,-0.3 0.2,-0.9 -0.1,-1.1 -0.4,-0.3 -0.9,-0.2 -1.1,0.1 -1.4,1.6 -3.5,2.4 -5.5,1.9 z"
     id="path1346" /><path
     inkscape:connector-curvature="0"
     class="st0"
     d="m 403.1,-109.2 c -8.5,0 -15.4,-6.9 -15.4,-15.4 0,-8.5 6.9,-15.4 15.4,-15.4 5.6,0 10.5,3.1 13.2,7.6 l 1.4,-0.8 c -3,-5 -8.4,-8.4 -14.6,-8.4 -9.4,0 -17,7.6 -17,17 0,9.4 7.6,17 17,17 6.2,0 11.7,-3.4 14.6,-8.4 l -1.4,-0.9 c -2.5,4.6 -7.5,7.7 -13.2,7.7 z"
     id="path1348" /><path
     inkscape:connector-curvature="0"
     class="st0"
     d="m 405.4,-135.5 c 0.2,0.1 0.4,0 0.6,-0.1 0.2,-0.1 0.3,-0.3 0.4,-0.5 0.1,-0.4 -0.2,-0.9 -0.6,-1 -2.3,-0.5 -4.6,-0.4 -6.8,0.4 -2.2,0.8 -4.1,2.1 -5.5,3.9 -0.3,0.3 -0.2,0.9 0.1,1.1 0,0 0.1,0.1 0.1,0.1 0.1,0.1 0.2,0.1 0.4,0.1 0.2,0 0.5,-0.1 0.6,-0.3 1.3,-1.6 2.9,-2.7 4.8,-3.4 1.9,-0.6 3.9,-0.7 5.9,-0.3 z"
     id="path1350" /><path
     inkscape:connector-curvature="0"
     class="st0"
     d="m 403.8,-131.3 c 0.4,0.1 0.9,-0.2 1,-0.6 0,-0.2 0,-0.4 -0.1,-0.6 -0.1,-0.2 -0.3,-0.3 -0.5,-0.4 -2.6,-0.6 -5.4,0.3 -7.1,2.5 -0.1,0.2 -0.2,0.4 -0.2,0.6 0,0.2 0.1,0.4 0.3,0.5 0,0 0.1,0.1 0.1,0.1 0.1,0.1 0.2,0.1 0.4,0.1 0.2,0 0.5,-0.1 0.6,-0.3 1.4,-1.7 3.5,-2.4 5.5,-1.9 z"
     id="path1352" /><path
     inkscape:connector-curvature="0"
     class="st0"
     d="m 407.9,-124.6 c 0,-2.6 -2.1,-4.8 -4.8,-4.8 -2.7,0 -4.8,2.1 -4.8,4.8 0,2.6 2.1,4.8 4.8,4.8 2.7,0 4.8,-2.1 4.8,-4.8 z m -7.9,0 c 0,-1.7 1.4,-3.1 3.1,-3.1 1.7,0 3.1,1.4 3.1,3.1 0,1.7 -1.4,3.1 -3.1,3.1 -1.7,0 -3.1,-1.3 -3.1,-3.1 z"
     id="path1354" /></g><g
   transform="translate(16.666069,-67.553461)"
   id="g1366"><path
     inkscape:connector-curvature="0"
     class="st0"
     d="m 408.7,-75 c 0,-0.3 -0.1,-0.6 -0.4,-0.7 -0.2,-0.2 -0.5,-0.2 -0.8,-0.1 l -14.8,4.7 c -0.4,0.1 -0.6,0.5 -0.6,0.8 v 15 c -0.6,-0.4 -1.3,-0.6 -2,-0.6 -2.1,0 -3.8,1.7 -3.8,3.8 0,2.1 1.7,3.8 3.8,3.8 2.1,0 3.8,-1.7 3.8,-3.8 v -12.6 l 13.1,-4.2 v 7.3 c -0.6,-0.4 -1.3,-0.6 -2,-0.6 -2.1,0 -3.8,1.7 -3.8,3.8 0,2.1 1.7,3.8 3.8,3.8 2.1,0 3.8,-1.7 3.8,-3.8 v -12.6 0 z m -14.8,8.5 v -3.1 l 13.1,-4.2 v 3.1 z m 13.1,8.2 c 0,1.1 -0.9,2 -2,2 -1.1,0 -2,-0.9 -2,-2 0,-1.1 0.9,-2 2,-2 1.1,0 2,0.9 2,2 z m -14.9,6.3 c 0,1.1 -0.9,2 -2,2 -1.1,0 -2,-0.9 -2,-2 0,-1.1 0.9,-2 2,-2 1.1,-0.1 2,0.8 2,2 z"
     id="path1358" /><rect
     x="411.60001"
     y="-74.199997"
     class="st0"
     width="14.7"
     height="2.4000001"
     id="rect1360" /><rect
     x="411.60001"
     y="-68.199997"
     class="st0"
     width="14.7"
     height="2.4000001"
     id="rect1362" /><rect
     x="411.60001"
     y="-80.099998"
     class="st0"
     width="14.7"
     height="2.4000001"
     id="rect1364" /></g><g
   transform="translate(16.666069,-67.553461)"
   id="g1378"><path
     inkscape:connector-curvature="0"
     class="st0"
     d="m 414.6,-195.2 c -1.1,-1.1 -2.3,-1.9 -3.7,-2.4 1.5,-1.2 2.5,-3 2.4,-5 0,-1.6 -0.7,-3.2 -1.9,-4.4 -1.2,-1.1 -2.7,-1.8 -4.3,-1.8 H 407 c -3.4,0 -6.1,2.8 -6.1,6.2 0,1.9 0.9,3.8 2.4,4.9 -1.4,0.5 -2.6,1.3 -3.7,2.4 -2,2 -3.1,4.6 -3.1,7.4 v 0.3 h 2 v -0.3 c 0.1,-4.7 3.9,-8.5 8.6,-8.5 4.7,0 8.6,3.8 8.6,8.5 v 0.3 h 2 v -0.3 c -0.1,-2.7 -1.2,-5.3 -3.1,-7.3 z m -6,-3.4 c -0.5,0.2 -1,0.3 -1.6,0.3 h -0.1 c -2.2,-0.1 -4,-1.9 -4.1,-4.1 0,-0.6 0.1,-1.2 0.3,-1.7 0.2,-0.5 0.5,-1 0.9,-1.4 0.4,-0.4 0.9,-0.7 1.4,-0.9 0.5,-0.2 1,-0.3 1.6,-0.3 0,0 0.1,0 0.1,0 2.2,0.1 4,1.9 4.1,4.1 0,0.6 -0.1,1.2 -0.3,1.7 -0.2,0.5 -0.5,1 -0.9,1.4 -0.4,0.4 -0.8,0.7 -1.4,0.9 z"
     id="path1368" /><g
     id="g1376"><path
       inkscape:connector-curvature="0"
       class="st0"
       d="m 411.1,-179.1 -3.1,2.8 v -8.6 c 0,-0.5 -0.4,-0.9 -0.9,-0.9 -0.5,0 -0.9,0.4 -0.9,0.9 v 8.6 l -3.1,-2.8 c -0.4,-0.3 -0.9,-0.3 -1.2,0.1 -0.3,0.4 -0.3,0.9 0.1,1.2 l 4.1,3.7 c 0.3,0.3 0.7,0.4 1.1,0.4 0.4,0 0.8,-0.1 1.1,-0.4 l 4.1,-3.7 c 0.4,-0.3 0.4,-0.9 0.1,-1.2 -0.5,-0.4 -1.1,-0.4 -1.4,-0.1 z"
       id="path1370" /><path
       inkscape:connector-curvature="0"
       class="st0"
       d="m 395.8,-184.6 c -0.2,0 -0.5,0.1 -0.6,0.3 l -6.1,6.1 -0.2,-4.2 c 0,-0.5 -0.4,-0.8 -0.9,-0.8 -0.5,0 -0.8,0.4 -0.8,0.9 l 0.3,5.5 c 0,0.4 0.2,0.8 0.5,1 0.3,0.2 0.6,0.4 1,0.5 l 5.5,0.3 c 0,0 0,0 0,0 0.5,0 0.8,-0.4 0.9,-0.8 0,-0.5 -0.3,-0.9 -0.8,-0.9 l -4.2,-0.2 6.1,-6.1 c 0.3,-0.3 0.3,-0.9 0,-1.2 -0.3,-0.4 -0.5,-0.4 -0.7,-0.4 z"
       id="path1372" /><path
       inkscape:connector-curvature="0"
       class="st0"
       d="m 426.2,-183.3 c -0.5,0 -0.9,0.3 -0.9,0.8 l -0.2,4.2 -6.1,-6.1 c -0.3,-0.3 -0.9,-0.3 -1.2,0 -0.3,0.3 -0.3,0.9 0,1.2 l 6.1,6.1 -4.2,0.2 c -0.5,0 -0.8,0.4 -0.8,0.9 0,0.5 0.4,0.8 0.9,0.8 0,0 0,0 0,0 l 5.5,-0.3 c 0.4,0 0.8,-0.2 1,-0.5 0.2,-0.3 0.4,-0.6 0.5,-1 l 0.3,-5.5 c 0,-0.4 -0.4,-0.8 -0.9,-0.8 z"
       id="path1374" /></g></g><g
   transform="translate(16.666069,-67.553461)"
   id="g1384"><path
     inkscape:connector-curvature="0"
     class="st0"
     d="m 322.5,-56.5 c -1.3,-1.3 -2.7,-2.2 -4.4,-2.8 1.8,-1.4 2.9,-3.5 2.8,-5.8 0,-1.9 -0.8,-3.7 -2.2,-5.1 -1.4,-1.3 -3.2,-2.1 -5.1,-2.1 h -0.1 c -4,0.1 -7.2,3.3 -7.2,7.3 0,2.3 1.1,4.4 2.8,5.8 -1.6,0.6 -3.1,1.6 -4.4,2.8 -2.3,2.3 -3.6,5.4 -3.6,8.6 v 0.3 h 2.3 v -0.3 c 0.1,-5.5 4.6,-10 10.1,-10 5.5,0 10,4.5 10.1,10 v 0.3 h 2.3 v -0.3 c 0.2,-3.3 -1.1,-6.4 -3.4,-8.7 z m -6.9,-4 c -0.6,0.2 -1.2,0.4 -1.9,0.4 h -0.2 c -2.6,-0.1 -4.7,-2.2 -4.8,-4.8 0,-0.7 0.1,-1.4 0.4,-2 0.3,-0.6 0.6,-1.2 1.1,-1.7 0.5,-0.5 1,-0.8 1.6,-1.1 0.6,-0.2 1.2,-0.4 1.9,-0.4 0.1,0 0.1,0 0.2,0 2.6,0.1 4.7,2.2 4.8,4.8 0,0.7 -0.1,1.4 -0.4,2 -0.3,0.6 -0.6,1.2 -1.1,1.7 -0.4,0.5 -1,0.8 -1.6,1.1 z"
     id="path1380" /><path
     inkscape:connector-curvature="0"
     class="st0"
     d="m 341.4,-54.9 c 0,-2.9 -1.2,-5.6 -3.2,-7.6 -1.1,-1.1 -2.4,-1.9 -3.8,-2.5 1.6,-1.2 2.5,-3.1 2.5,-5.1 0,-1.7 -0.7,-3.3 -2,-4.5 -1.2,-1.2 -2.8,-1.8 -4.5,-1.8 0,0 0,0 0,0 -3.5,0.1 -6.4,2.9 -6.4,6.4 0,2 0.9,3.8 2.5,5.1 -1.4,0.6 -2.7,1.4 -3.8,2.5 -0.8,0.8 -1.5,1.8 -2,2.8 l -0.1,0.1 1.8,1.1 0.2,-0.3 c 1.5,-3 4.6,-4.8 7.9,-4.8 4.8,0 8.8,3.9 8.9,8.8 v 0.3 h 2.1 z M 332,-66.1 c -0.6,0.2 -1.2,0.3 -1.8,0.3 -2.3,-0.1 -4.1,-1.9 -4.2,-4.2 0,-0.6 0.1,-1.2 0.3,-1.8 0.2,-0.5 0.5,-1 1,-1.4 0.4,-0.4 0.9,-0.7 1.4,-1 0.5,-0.2 1.1,-0.3 1.6,-0.3 0,0 0.1,0 0.1,0 2.3,0.1 4.1,1.9 4.2,4.2 0,0.6 -0.1,1.2 -0.3,1.8 -0.2,0.5 -0.5,1 -1,1.4 -0.3,0.5 -0.8,0.8 -1.3,1 z"
     id="path1382" /></g><g
   transform="translate(16.666069,-67.553461)"
   id="g1392"><path
     inkscape:connector-curvature="0"
     class="st0"
     d="m 420.5,-276.8 h -21.4 c -1.7,0 -3.3,0.6 -4.6,1.7 l -0.5,0.5 h 4.7 c 0.1,0 0.2,0 0.4,0 h 21.4 c 2.6,0 4.8,2.1 4.8,4.8 v 21.4 c 0,0.1 0,0.3 0,0.4 v 4.7 l 0.5,-0.5 c 1.1,-1.3 1.7,-2.9 1.7,-4.6 v -21.4 c -0.1,-3.9 -3.2,-7 -7,-7 z"
     id="path1386" /><path
     inkscape:connector-curvature="0"
     class="st0"
     d="m 413.7,-266.6 c -0.2,-0.2 -0.5,-0.2 -0.8,-0.1 l -13.1,4.2 c -0.4,0.1 -0.6,0.5 -0.6,0.9 v 13.1 c -0.5,-0.3 -1.1,-0.4 -1.6,-0.4 -1.9,0 -3.5,1.6 -3.5,3.5 0,1.9 1.6,3.5 3.5,3.5 1.9,0 3.5,-1.6 3.5,-3.5 v -11 l 11.3,-3.6 v 6.1 c -0.5,-0.3 -1.1,-0.4 -1.6,-0.4 -1.9,0 -3.5,1.6 -3.5,3.5 0,1.9 1.6,3.5 3.5,3.5 1.9,0 3.5,-1.6 3.5,-3.5 v -14.8 c -0.2,-0.5 -0.3,-0.8 -0.6,-1 z m -12.7,8.1 v -2.5 l 11.3,-3.6 v 2.5 z m 9.6,9.1 c -0.9,0 -1.7,-0.8 -1.7,-1.7 0,-0.9 0.8,-1.7 1.7,-1.7 0.9,0 1.7,0.8 1.7,1.7 0,0.9 -0.8,1.7 -1.7,1.7 z m -11.4,3.8 c 0,0.9 -0.8,1.7 -1.7,1.7 -0.9,0 -1.7,-0.8 -1.7,-1.7 0,-0.9 0.8,-1.7 1.7,-1.7 0.9,0 1.7,0.8 1.7,1.7 z"
     id="path1388" /><path
     inkscape:connector-curvature="0"
     class="st0"
     d="m 416.7,-272 h -23.4 c -3.3,0 -5.9,2.6 -5.9,5.9 v 23.4 c 0,3.3 2.6,5.9 5.9,5.9 h 23.4 c 3.3,0 5.9,-2.6 5.9,-5.9 v -23.4 c 0,-3.3 -2.6,-5.9 -5.9,-5.9 z m 3.7,5.9 v 23.4 c 0,2.1 -1.7,3.7 -3.7,3.7 h -23.4 c -2.1,0 -3.7,-1.7 -3.7,-3.7 v -23.4 c 0,-2.1 1.7,-3.7 3.7,-3.7 h 23.4 c 2.1,-0.1 3.7,1.6 3.7,3.7 z"
     id="path1390" /></g><g
   transform="translate(16.666069,-67.553461)"
   id="g1398"><path
     inkscape:connector-curvature="0"
     class="st0"
     d="m 556.4,-327.4 c -2.2,0 -4,1.8 -4,4 0,1.1 0.5,2.1 1.2,2.9 v 3.6 c 0,1.5 1.2,2.7 2.7,2.7 1.5,0 2.7,-1.2 2.7,-2.7 v -3.6 c 0.8,-0.7 1.2,-1.8 1.2,-2.9 0.2,-2.2 -1.6,-4 -3.8,-4 z m 1.4,5.5 c -0.4,0.4 -0.6,0.9 -0.6,1.4 v 3.6 c 0,0.4 -0.4,0.8 -0.8,0.8 -0.4,0 -0.8,-0.4 -0.8,-0.8 v -3.6 c 0,-0.5 -0.2,-1 -0.6,-1.4 -0.4,-0.4 -0.6,-0.9 -0.6,-1.5 0,-1.1 0.9,-2 2,-2 1.1,0 2,0.9 2,2 0,0.5 -0.2,1.1 -0.6,1.5 z"
     id="path1394" /><path
     inkscape:connector-curvature="0"
     class="st0"
     d="m 568,-332.6 h -2.9 v -7.6 c 0,-4.8 -3.9,-8.8 -8.8,-8.8 -4.8,0 -8.8,3.9 -8.8,8.8 v 7.6 h -2.9 c -1.6,0 -2.9,1.3 -2.9,2.9 v 17.8 c 0,1.6 1.3,2.9 2.9,2.9 H 568 c 1.6,0 2.9,-1.3 2.9,-2.9 v -17.8 c 0,-1.6 -1.3,-2.9 -2.9,-2.9 z m -18.4,-7.7 c 0,-3.8 3.1,-6.8 6.8,-6.8 3.8,0 6.8,3.1 6.8,6.8 v 7.6 h -13.7 v -7.6 z m 19.4,28.4 c 0,0.5 -0.4,1 -1,1 h -23.3 c -0.5,0 -1,-0.4 -1,-1 v -17.8 c 0,-0.5 0.4,-1 1,-1 H 568 c 0.5,0 1,0.4 1,1 z"
     id="path1396" /></g><path
   inkscape:connector-curvature="0"
   class="st0"
   d="m 589.26603,-317.95347 c 0.8,-1 1.2,-2.2 1.2,-3.3 -0.1,-1.3 -0.6,-2.3 -1.1,-2.9 0.5,-1.4 0.8,-3.5 -1.1,-5.1 -1.3,-1.2 -3.6,-1.8 -6.7,-1.6 -2.2,0.1 -4,0.5 -4.1,0.5 v 0 c -0.4,0.1 -0.9,0.2 -1.3,0.3 0,-0.5 0.1,-1.9 1,-4.9 1.2,-3.6 1.1,-6.3 -0.2,-8.1 -1.4,-1.9 -3.6,-2.1 -4.3,-2.1 -0.6,0 -1.2,0.3 -1.6,0.7 -0.9,1.1 -0.8,3.1 -0.7,4 -1.1,3 -4.2,10.2 -6.8,12.2 -0.1,0 -0.1,0.1 -0.1,0.1 -0.8,0.8 -1.3,1.7 -1.6,2.5 -0.5,-0.3 -1.1,-0.4 -1.7,-0.4 h -5.1 c -1.9,0 -3.5,1.6 -3.5,3.5 v 13.6 c 0,1.9 1.6,3.5 3.5,3.5 h 5.1 c 0.7,0 1.4,-0.2 2,-0.6 l 2,0.2 c 0.3,0 5.7,0.7 11.2,0.6 1,0.1 1.9,0.1 2.8,0.1 1.5,0 2.8,-0.1 3.9,-0.4 2.6,-0.5 4.3,-1.6 5.2,-3.2 0.7,-1.2 0.7,-2.4 0.6,-3.2 1.7,-1.5 2,-3.2 1.9,-4.3 -0.2,-0.7 -0.3,-1.2 -0.5,-1.7 z m -34.2,10.3 c -0.7,0 -1.2,-0.6 -1.2,-1.2 v -13.7 c 0,-0.7 0.6,-1.2 1.2,-1.2 h 5.1 c 0.7,0 1.2,0.6 1.2,1.2 v 13.6 c 0,0.7 -0.6,1.2 -1.2,1.2 z m 32.1,-11.3 c -0.4,0.4 -0.4,0.9 -0.2,1.4 0,0 0.3,0.6 0.4,1.4 0.1,1.1 -0.5,2.1 -1.6,2.9 -0.4,0.3 -0.6,0.8 -0.4,1.3 0,0 0.4,1.1 -0.2,2.2 -0.6,1 -1.8,1.7 -3.7,2.1 -1.5,0.3 -3.6,0.4 -6.1,0.2 h -0.1 c -5.4,0.1 -10.8,-0.6 -10.9,-0.6 v 0 l -0.8,-0.1 c 0.1,-0.2 0.1,-0.5 0.1,-0.7 v -13.7 c 0,-0.4 -0.1,-0.7 -0.2,-1 0.2,-0.6 0.6,-1.8 1.6,-2.9 3.8,-3 7.4,-13 7.6,-13.5 0.1,-0.2 0.1,-0.4 0.1,-0.6 -0.1,-0.9 -0.1,-2.1 0.1,-2.4 0.4,0 1.6,0.1 2.4,1.1 0.9,1.2 0.8,3.3 -0.1,6.1 -1.4,4.3 -1.5,6.5 -0.4,7.5 0.6,0.5 1.3,0.5 1.8,0.3 0.5,-0.1 1,-0.2 1.5,-0.3 0,0 0.1,0 0.1,0 2.6,-0.6 7.2,-0.9 8.8,0.6 1.4,1.2 0.4,2.9 0.3,3.1 -0.3,0.5 -0.2,1.1 0.2,1.5 0,0 0.9,0.8 0.9,1.9 -0.1,0.7 -0.5,1.5 -1.2,2.2 z m 0,0"
   id="path1404" /><g
   transform="translate(16.666069,-67.553461)"
   id="g1422"><path
     inkscape:connector-curvature="0"
     class="st0"
     d="m 551.9,-176.9 c 0.1,0.2 0.2,0.3 0.3,0.5 v 0 0 c 0.3,0.5 0.7,1 1,1.6 0.2,0.4 0.7,0.6 1.1,0.6 0.4,0 0.9,-0.2 1.1,-0.6 0.3,-0.5 0.7,-1 1,-1.5 v 0 0 c 0.1,-0.2 0.2,-0.3 0.3,-0.5 0,0 0,0 0,0 l 1.7,-2.6 c 0,0 0,0 0,0 4.9,-7.3 7.4,-10.9 8.8,-13.6 1.3,-2.6 1.6,-4.3 1.6,-6.6 0,-8.1 -6.6,-14.6 -14.6,-14.6 -8,0 -14.6,6.6 -14.6,14.6 0,5.1 1.3,6.7 10.4,20.2 0,0 0,0 0,0 l 1.9,2.5 c 0,0 0,0 0,0 z m -9.5,-22.8 c 0,-6.6 5.4,-11.9 11.9,-11.9 6.6,0 11.9,5.4 11.9,11.9 0,4 -0.9,5.4 -8.2,16.1 -1.1,1.6 -2.3,3.5 -3.7,5.5 -1.4,-2.1 -2.6,-3.9 -3.7,-5.5 -7.3,-10.7 -8.2,-12.1 -8.2,-16.1 z"
     id="path1416" /><g
     id="g1420"><path
       inkscape:connector-curvature="0"
       class="st0"
       d="m 554.3,-190.9 c -4.8,0 -8.7,-3.9 -8.7,-8.7 0,-4.8 3.9,-8.7 8.7,-8.7 4.8,0 8.7,3.9 8.7,8.7 0,4.8 -3.9,8.7 -8.7,8.7 z m 0,-14.4 c -3.2,0 -5.8,2.6 -5.8,5.8 0,3.2 2.6,5.8 5.8,5.8 3.2,0 5.8,-2.6 5.8,-5.8 0,-3.2 -2.6,-5.8 -5.8,-5.8 z"
       id="path1418" /></g></g><g
   transform="translate(0.1857159,-0.18571627)"
   id="g972"><path
     inkscape:connector-curvature="0"
     class="st0"
     d="m 24.9,13.2 c -0.6,-0.6 -1.1,-1 -1.8,-1.3 0.8,-0.8 1.1,-1.8 1.1,-2.8 C 24.2,8 23.8,7 22.9,6.2 22.1,5.4 21.1,5 20,5 c -2.3,0.1 -4.1,1.9 -4.1,4.1 0,1.1 0.4,2.1 1.1,2.8 -0.6,0.3 -1.3,0.7 -1.8,1.3 -0.6,0.6 -1.1,1.4 -1.4,2.2 l 1.9,0.5 c 0.8,-1.6 2.4,-2.7 4.3,-2.7 1.9,0 3.5,1.1 4.3,2.7 l 2,-0.5 C 26,14.6 25.5,13.9 24.9,13.2 Z M 20,11.5 c -1.3,0 -2.4,-1.1 -2.4,-2.4 0,-1.3 1.1,-2.4 2.4,-2.4 1.3,0 2.4,1.1 2.4,2.4 0,1.3 -1.1,2.4 -2.4,2.4 z"
     id="path964" /><path
     inkscape:connector-curvature="0"
     class="st0"
     d="m 24.1,25.8 c 1.2,-1.1 1.8,-2.6 1.7,-4.2 0,-1.5 -0.6,-2.9 -1.7,-4 C 22.9,16.5 21.5,16 20,16 c -3.2,0.1 -5.7,2.6 -5.7,5.7 0,1.6 0.6,3.1 1.8,4.2 -1,0.4 -2,1.1 -2.9,1.9 -1.8,1.8 -2.8,4.2 -2.8,6.6 V 35 h 2.4 v -0.6 c 0.1,-3.9 3.3,-7 7.1,-7 3.9,0 7,3.2 7.1,7 V 35 h 2.4 V 34.5 C 29.5,32 28.6,29.6 26.8,27.8 26,26.9 25.1,26.2 24.1,25.8 Z M 20,25.2 c -2.1,0 -3.7,-1.7 -3.7,-3.7 0,-2 1.7,-3.7 3.7,-3.7 2,0 3.7,1.7 3.7,3.7 0,2 -1.6,3.7 -3.7,3.7 z"
     id="path966" /><path
     inkscape:connector-curvature="0"
     class="st0"
     d="m 11.9,25.6 c 0.6,-0.5 1.2,-1 2,-1.3 -0.5,-0.4 -1.2,-0.8 -1.8,-1.2 1,-1 1.6,-2.3 1.6,-3.7 0,-2.7 -2.3,-5 -5.1,-5.1 C 7.2,14.3 6,14.8 5,15.7 4,16.6 3.4,17.9 3.4,19.3 3.4,20.7 4,22 5,23 4.1,23.5 3.3,24 2.6,24.7 0.9,26.3 0,28.4 0,30.5 v 0.8 h 2.2 v -0.6 c 0.1,-3.4 2.9,-6.2 6.2,-6.2 1.2,0 2.4,0.4 3.5,1.1 z M 5.2,19.3 c 0,-1.8 1.5,-3.3 3.3,-3.3 1.8,0 3.3,1.5 3.3,3.3 0,1.8 -1.5,3.3 -3.3,3.3 -1.8,0 -3.3,-1.5 -3.3,-3.3 z"
     id="path968" /><path
     inkscape:connector-curvature="0"
     class="st0"
     d="M 37.5,24.7 C 36.8,24 36,23.5 35.1,23 c 1,-0.9 1.6,-2.3 1.6,-3.7 0,-1.4 -0.6,-2.6 -1.6,-3.6 -0.9,-0.9 -2.2,-1.4 -3.6,-1.4 -2.8,0.1 -5.1,2.4 -5.1,5.1 0,1.4 0.6,2.7 1.6,3.7 -0.7,0.3 -1.3,0.7 -1.8,1.2 0.7,0.4 1.4,0.8 2,1.3 1,-0.7 2.2,-1 3.5,-1 3.4,0 6.2,2.8 6.2,6.2 v 0.6 H 40 v -0.7 c 0,-2.3 -0.9,-4.4 -2.5,-6 z m -5.9,-2.2 c -1.8,0 -3.3,-1.5 -3.3,-3.3 0,-1.8 1.5,-3.3 3.3,-3.3 1.8,0 3.3,1.5 3.3,3.3 0,1.8 -1.5,3.3 -3.3,3.3 z"
     id="path970" /></g></svg>