<?xml version="1.0" encoding="UTF-8" standalone="no"?>
<!-- Generator: Adobe Illustrator 16.0.0, SVG Export Plug-In . SVG Version: 6.00 Build 0)  -->

<svg
   xmlns:osb="http://www.openswatchbook.org/uri/2009/osb"
   xmlns:dc="http://purl.org/dc/elements/1.1/"
   xmlns:cc="http://creativecommons.org/ns#"
   xmlns:rdf="http://www.w3.org/1999/02/22-rdf-syntax-ns#"
   xmlns:svg="http://www.w3.org/2000/svg"
   xmlns="http://www.w3.org/2000/svg"
   xmlns:sodipodi="http://sodipodi.sourceforge.net/DTD/sodipodi-0.dtd"
   xmlns:inkscape="http://www.inkscape.org/namespaces/inkscape"
   version="1.1"
   id="Capa_1"
   x="0px"
   y="0px"
   width="40"
   height="40"
   viewBox="0 0 40 40"
   xml:space="preserve"
   sodipodi:docname="ios-dashboard.svg"
   inkscape:version="0.92.4 (5da689c313, 2019-01-14)"><metadata
   id="metadata5772"><rdf:RDF><cc:Work
       rdf:about=""><dc:format>image/svg+xml</dc:format><dc:type
         rdf:resource="http://purl.org/dc/dcmitype/StillImage" /><dc:title></dc:title></cc:Work></rdf:RDF></metadata><defs
   id="defs5770"><linearGradient
     id="linearGradient7834"
     osb:paint="solid"><stop
       style="stop-color:#000000;stop-opacity:1;"
       offset="0"
       id="stop7832" /></linearGradient><linearGradient
     id="linearGradient7810"
     osb:paint="solid"><stop
       style="stop-color:#ffffff;stop-opacity:1;"
       offset="0"
       id="stop7808" /></linearGradient><linearGradient
     id="linearGradient6356"
     osb:paint="gradient"><stop
       style="stop-color:#ffffff;stop-opacity:1;"
       offset="0"
       id="stop6352" /><stop
       style="stop-color:#ffffff;stop-opacity:0;"
       offset="1"
       id="stop6354" /></linearGradient></defs><sodipodi:namedview
   pagecolor="#ffffff"
   bordercolor="#666666"
   borderopacity="1"
   objecttolerance="10"
   gridtolerance="10"
   guidetolerance="10"
   inkscape:pageopacity="0"
   inkscape:pageshadow="2"
   inkscape:window-width="1360"
   inkscape:window-height="705"
   id="namedview5768"
   showgrid="false"
   inkscape:zoom="9.6682956"
   inkscape:cx="14.837994"
   inkscape:cy="22.612143"
   inkscape:window-x="-8"
   inkscape:window-y="-8"
   inkscape:window-maximized="1"
   inkscape:current-layer="Capa_1" />

<g
   id="g5737"
   transform="translate(0,-236.164)">
</g>
<g
   id="g5739"
   transform="translate(0,-236.164)">
</g>
<g
   id="g5741"
   transform="translate(0,-236.164)">
</g>
<g
   id="g5743"
   transform="translate(0,-236.164)">
</g>
<g
   id="g5745"
   transform="translate(0,-236.164)">
</g>
<g
   id="g5747"
   transform="translate(0,-236.164)">
</g>
<g
   id="g5749"
   transform="translate(0,-236.164)">
</g>
<g
   id="g5751"
   transform="translate(0,-236.164)">
</g>
<g
   id="g5753"
   transform="translate(0,-236.164)">
</g>
<g
   id="g5755"
   transform="translate(0,-236.164)">
</g>
<g
   id="g5757"
   transform="translate(0,-236.164)">
</g>
<g
   id="g5759"
   transform="translate(0,-236.164)">
</g>
<g
   id="g5761"
   transform="translate(0,-236.164)">
</g>
<g
   id="g5763"
   transform="translate(0,-236.164)">
</g>
<g
   id="g5765"
   transform="translate(0,-236.164)">
</g>
<g
   transform="translate(0.06366455,-0.06683389)"
   id="g868"><path
     inkscape:connector-curvature="0"
     class="st1"
     d="M 39.98,16.94 C 39.93,16.6 39.75,16.3 39.47,16.1 L 20.76,2.39 C 20.3,2.06 19.69,2.06 19.24,2.39 L 0.53,16.09 c -0.28,0.2 -0.46,0.5 -0.51,0.84 -0.05,0.34 0.03,0.68 0.23,0.96 0.42,0.57 1.23,0.7 1.8,0.28 L 20,5.03 37.95,18.17 c 0.22,0.16 0.49,0.25 0.76,0.25 0.41,0 0.8,-0.2 1.04,-0.53 0.2,-0.27 0.29,-0.61 0.23,-0.95 z"
     id="path864" /><path
     inkscape:connector-curvature="0"
     class="st1"
     d="m 34.36,17.93 c -0.71,0 -1.29,0.58 -1.29,1.29 v 16.06 h -7.68 v -8.65 c 0,-2.97 -2.42,-5.39 -5.39,-5.39 -2.97,0 -5.39,2.42 -5.39,5.39 v 8.65 H 6.93 V 19.22 c 0,-0.71 -0.58,-1.29 -1.29,-1.29 -0.71,0 -1.29,0.58 -1.29,1.29 v 17.35 c 0,0.71 0.58,1.29 1.29,1.29 H 15.9 c 0.67,0 1.23,-0.52 1.28,-1.18 0,-0.03 0.01,-0.07 0.01,-0.11 v -9.94 c 0,-1.55 1.26,-2.81 2.81,-2.81 1.55,0 2.81,1.26 2.81,2.81 v 9.94 c 0,0.04 0,0.07 0,0.1 0.05,0.67 0.61,1.19 1.28,1.19 h 10.26 c 0.71,0 1.29,-0.58 1.29,-1.29 V 19.22 c 0.01,-0.71 -0.57,-1.29 -1.28,-1.29 z"
     id="path866" /></g></svg>