<?xml version="1.0" encoding="UTF-8" standalone="no"?>
<!-- Generator: Adobe Illustrator 19.0.0, SVG Export Plug-In . SVG Version: 6.00 Build 0)  -->

<svg
   xmlns:dc="http://purl.org/dc/elements/1.1/"
   xmlns:cc="http://creativecommons.org/ns#"
   xmlns:rdf="http://www.w3.org/1999/02/22-rdf-syntax-ns#"
   xmlns:svg="http://www.w3.org/2000/svg"
   xmlns="http://www.w3.org/2000/svg"
   xmlns:sodipodi="http://sodipodi.sourceforge.net/DTD/sodipodi-0.dtd"
   xmlns:inkscape="http://www.inkscape.org/namespaces/inkscape"
   version="1.1"
   id="Capa_1"
   x="0px"
   y="0px"
   viewBox="0 0 40 40"
   xml:space="preserve"
   sodipodi:docname="ios-pseudonimo.svg"
   width="40"
   height="40"
   inkscape:version="0.92.4 (5da689c313, 2019-01-14)"><metadata
   id="metadata923"><rdf:RDF><cc:Work
       rdf:about=""><dc:format>image/svg+xml</dc:format><dc:type
         rdf:resource="http://purl.org/dc/dcmitype/StillImage" /><dc:title></dc:title></cc:Work></rdf:RDF></metadata><defs
   id="defs921" /><sodipodi:namedview
   pagecolor="#ffffff"
   bordercolor="#666666"
   borderopacity="1"
   objecttolerance="10"
   gridtolerance="10"
   guidetolerance="10"
   inkscape:pageopacity="0"
   inkscape:pageshadow="2"
   inkscape:window-width="1360"
   inkscape:window-height="705"
   id="namedview919"
   showgrid="false"
   inkscape:zoom="4.1875"
   inkscape:cx="2.9273805"
   inkscape:cy="26.033678"
   inkscape:window-x="-8"
   inkscape:window-y="-8"
   inkscape:window-maximized="1"
   inkscape:current-layer="g1775" />



<g
   id="g888"
   transform="translate(0,-472)">
</g>
<g
   id="g890"
   transform="translate(0,-472)">
</g>
<g
   id="g892"
   transform="translate(0,-472)">
</g>
<g
   id="g894"
   transform="translate(0,-472)">
</g>
<g
   id="g896"
   transform="translate(0,-472)">
</g>
<g
   id="g898"
   transform="translate(0,-472)">
</g>
<g
   id="g900"
   transform="translate(0,-472)">
</g>
<g
   id="g902"
   transform="translate(0,-472)">
</g>
<g
   id="g904"
   transform="translate(0,-472)">
</g>
<g
   id="g906"
   transform="translate(0,-472)">
</g>
<g
   id="g908"
   transform="translate(0,-472)">
</g>
<g
   id="g910"
   transform="translate(0,-472)">
</g>
<g
   id="g912"
   transform="translate(0,-472)">
</g>
<g
   id="g914"
   transform="translate(0,-472)">
</g>
<g
   id="g916"
   transform="translate(0,-472)">
</g>
<g
   transform="matrix(0.07295929,0,0,0.07295929,10.21022,26.036774)"
   id="g1775"><g
     transform="matrix(13.706274,0,0,13.706274,-139.10232,-360.95858)"
     id="g836"
     style="fill:#000000;fill-opacity:1"><path
       inkscape:connector-curvature="0"
       class="st0"
       d="M 30.9,37.6 C 30.8,33.4 29.2,29.7 26.3,26.9 24.7,25.3 22.8,24.1 20.7,23.4 23,21.7 24.4,19 24.4,16 24.4,13.7 23.4,11.4 21.6,9.6 20,7.9 17.7,7 15.4,7 c -4.9,0.1 -8.9,4.1 -8.9,9 0,2.9 1.4,5.6 3.7,7.2 -2.1,0.8 -4,2 -5.6,3.6 C 1.7,29.7 0.1,33.5 0,37.6 V 38 H 2.7 V 37.7 C 2.8,30.7 8.5,25 15.5,25 c 6.9,0 12.6,5.6 12.7,12.6 v 0.3 h 2.7 z M 21.7,15.9 c 0,0.9 -0.1,1.7 -0.4,2.6 -0.3,0.7 -0.7,1.4 -1.4,2.1 -0.6,0.6 -1.3,1.1 -2.1,1.4 -0.8,0.3 -1.6,0.4 -2.4,0.4 h -0.2 c -3.3,-0.1 -5.9,-2.7 -6.1,-6.1 0,-0.9 0.1,-1.7 0.4,-2.6 0.3,-0.7 0.7,-1.4 1.4,-2.1 0.6,-0.6 1.3,-1.1 2.1,-1.4 0.6,-0.3 1.3,-0.4 2.1,-0.4 0.2,0 0.3,0 0.5,0 3.3,0.1 6,2.8 6.1,6.1 z"
       id="path832"
       style="fill:#000000;fill-opacity:1" /><path
       inkscape:connector-curvature="0"
       class="st0"
       d="M 39.9,7.6 C 39.7,7 39.2,6.6 38.6,6.5 L 35.2,6 33.7,2.9 C 33.4,2.4 32.9,2 32.2,2 31.6,2 31,2.3 30.8,2.9 L 29.3,6 25.9,6.5 c -0.6,0.1 -1.1,0.5 -1.3,1.1 -0.2,0.6 0,1.2 0.4,1.6 l 2.5,2.4 -0.6,3.4 c -0.1,0.6 0.1,1.2 0.6,1.6 0.3,0.2 0.6,0.3 0.9,0.3 0.3,0 0.5,-0.1 0.7,-0.2 l 3.1,-1.6 3.1,1.6 c 0.5,0.3 1.2,0.2 1.7,-0.1 0.5,-0.4 0.7,-1 0.6,-1.6 L 37,11.7 39.5,9.3 C 40,8.8 40.1,8.2 39.9,7.6 Z m -10.6,4.2 c 0.1,-0.5 -0.1,-1 -0.5,-1.4 l -2.2,-2.1 3,-0.4 C 30.1,7.8 30.6,7.5 30.8,7 L 32.1,4.3 33.6,7 c 0.2,0.5 0.7,0.8 1.2,0.9 l 3,0.4 -2.2,2.1 c -0.4,0.4 -0.5,0.9 -0.5,1.4 l 0.5,3 -2.6,-1.4 c -0.2,-0.1 -0.5,-0.2 -0.7,-0.2 -0.3,0 -0.5,0.1 -0.7,0.2 l -2.7,1.4 z"
       id="path834"
       style="fill:#000000;fill-opacity:1" /></g></g></svg>