<?xml version="1.0" encoding="UTF-8" standalone="no"?>
<!-- Generator: Adobe Illustrator 19.0.0, SVG Export Plug-In . SVG Version: 6.00 Build 0)  -->

<svg
   xmlns:dc="http://purl.org/dc/elements/1.1/"
   xmlns:cc="http://creativecommons.org/ns#"
   xmlns:rdf="http://www.w3.org/1999/02/22-rdf-syntax-ns#"
   xmlns:svg="http://www.w3.org/2000/svg"
   xmlns="http://www.w3.org/2000/svg"
   xmlns:sodipodi="http://sodipodi.sourceforge.net/DTD/sodipodi-0.dtd"
   xmlns:inkscape="http://www.inkscape.org/namespaces/inkscape"
   version="1.1"
   id="Capa_1"
   x="0px"
   y="0px"
   viewBox="0 0 40 40"
   xml:space="preserve"
   sodipodi:docname="ios-exclamation.svg"
   width="40"
   height="40"
   inkscape:version="0.92.4 (5da689c313, 2019-01-14)"><metadata
   id="metadata923"><rdf:RDF><cc:Work
       rdf:about=""><dc:format>image/svg+xml</dc:format><dc:type
         rdf:resource="http://purl.org/dc/dcmitype/StillImage" /><dc:title></dc:title></cc:Work></rdf:RDF></metadata><defs
   id="defs921" /><sodipodi:namedview
   pagecolor="#ffffff"
   bordercolor="#666666"
   borderopacity="1"
   objecttolerance="10"
   gridtolerance="10"
   guidetolerance="10"
   inkscape:pageopacity="0"
   inkscape:pageshadow="2"
   inkscape:window-width="1360"
   inkscape:window-height="705"
   id="namedview919"
   showgrid="false"
   inkscape:zoom="5.9220193"
   inkscape:cx="42.332746"
   inkscape:cy="12.754928"
   inkscape:window-x="-8"
   inkscape:window-y="-8"
   inkscape:window-maximized="1"
   inkscape:current-layer="Capa_1" />
<g
   id="g874"
   transform="matrix(0.07521852,0,0,0.07521852,0.84430658,0.67014724)">
	<g
   id="g872">
		<path
   d="M 256,0 C 114.497,0 0,114.507 0,256 0,397.503 114.507,512 256,512 397.503,512 512,397.493 512,256 512,114.497 397.493,0 256,0 Z m 0,472 C 136.607,472 40,375.385 40,256 40,136.607 136.615,40 256,40 c 119.393,0 216,96.615 216,216 0,119.393 -96.615,216 -216,216 z"
   id="path870"
   inkscape:connector-curvature="0" />
	</g>
</g>
<g
   id="g880"
   transform="matrix(0.96611148,0,0,0.96611148,0.84430658,-455.46706)">
	<g
   id="g878">
		<path
   d="m 19.931386,482.1712 c -0.860008,0 -1.557139,0.69713 -1.557139,1.55714 v 10.02744 c 0,0.86 0.697131,1.55714 1.557139,1.55714 0.860008,0 1.55714,-0.69714 1.55714,-1.55714 v -10.02744 c 0,-0.86001 -0.697132,-1.55714 -1.55714,-1.55714 z"
   id="path876"
   inkscape:connector-curvature="0"
   style="stroke-width:0.07785698" />
	</g>
</g>
<g
   id="g886"
   transform="matrix(0.07521852,0,0,0.07521852,0.84430658,0.67014724)">
	<g
   id="g884">
		<circle
   cx="256"
   cy="349.16"
   r="27"
   id="circle882" />
	</g>
</g>
<g
   id="g888"
   transform="translate(0,-472)">
</g>
<g
   id="g890"
   transform="translate(0,-472)">
</g>
<g
   id="g892"
   transform="translate(0,-472)">
</g>
<g
   id="g894"
   transform="translate(0,-472)">
</g>
<g
   id="g896"
   transform="translate(0,-472)">
</g>
<g
   id="g898"
   transform="translate(0,-472)">
</g>
<g
   id="g900"
   transform="translate(0,-472)">
</g>
<g
   id="g902"
   transform="translate(0,-472)">
</g>
<g
   id="g904"
   transform="translate(0,-472)">
</g>
<g
   id="g906"
   transform="translate(0,-472)">
</g>
<g
   id="g908"
   transform="translate(0,-472)">
</g>
<g
   id="g910"
   transform="translate(0,-472)">
</g>
<g
   id="g912"
   transform="translate(0,-472)">
</g>
<g
   id="g914"
   transform="translate(0,-472)">
</g>
<g
   id="g916"
   transform="translate(0,-472)">
</g>
</svg>