<?xml version="1.0" encoding="UTF-8" standalone="no"?>
<!-- Generator: Adobe Illustrator 19.0.0, SVG Export Plug-In . SVG Version: 6.00 Build 0)  -->

<svg
   xmlns:dc="http://purl.org/dc/elements/1.1/"
   xmlns:cc="http://creativecommons.org/ns#"
   xmlns:rdf="http://www.w3.org/1999/02/22-rdf-syntax-ns#"
   xmlns:svg="http://www.w3.org/2000/svg"
   xmlns="http://www.w3.org/2000/svg"
   xmlns:sodipodi="http://sodipodi.sourceforge.net/DTD/sodipodi-0.dtd"
   xmlns:inkscape="http://www.inkscape.org/namespaces/inkscape"
   version="1.1"
   id="Capa_1"
   x="0px"
   y="0px"
   viewBox="0 0 40 40"
   xml:space="preserve"
   sodipodi:docname="ios-noticia.svg"
   width="40"
   height="40"
   inkscape:version="0.92.4 (5da689c313, 2019-01-14)"><metadata
   id="metadata923"><rdf:RDF><cc:Work
       rdf:about=""><dc:format>image/svg+xml</dc:format><dc:type
         rdf:resource="http://purl.org/dc/dcmitype/StillImage" /><dc:title></dc:title></cc:Work></rdf:RDF></metadata><defs
   id="defs921" /><sodipodi:namedview
   pagecolor="#ffffff"
   bordercolor="#666666"
   borderopacity="1"
   objecttolerance="10"
   gridtolerance="10"
   guidetolerance="10"
   inkscape:pageopacity="0"
   inkscape:pageshadow="2"
   inkscape:window-width="1360"
   inkscape:window-height="705"
   id="namedview919"
   showgrid="false"
   inkscape:zoom="4.1875"
   inkscape:cx="-40.17091"
   inkscape:cy="26.033678"
   inkscape:window-x="-8"
   inkscape:window-y="-8"
   inkscape:window-maximized="1"
   inkscape:current-layer="g1775" />



<g
   id="g888"
   transform="translate(0,-472)">
</g>
<g
   id="g890"
   transform="translate(0,-472)">
</g>
<g
   id="g892"
   transform="translate(0,-472)">
</g>
<g
   id="g894"
   transform="translate(0,-472)">
</g>
<g
   id="g896"
   transform="translate(0,-472)">
</g>
<g
   id="g898"
   transform="translate(0,-472)">
</g>
<g
   id="g900"
   transform="translate(0,-472)">
</g>
<g
   id="g902"
   transform="translate(0,-472)">
</g>
<g
   id="g904"
   transform="translate(0,-472)">
</g>
<g
   id="g906"
   transform="translate(0,-472)">
</g>
<g
   id="g908"
   transform="translate(0,-472)">
</g>
<g
   id="g910"
   transform="translate(0,-472)">
</g>
<g
   id="g912"
   transform="translate(0,-472)">
</g>
<g
   id="g914"
   transform="translate(0,-472)">
</g>
<g
   id="g916"
   transform="translate(0,-472)">
</g>
<g
   transform="matrix(0.07295929,0,0,0.07295929,10.21022,26.036774)"
   id="g1775"><g
     transform="matrix(13.706274,0,0,13.706274,-136.55862,-355.15007)"
     id="g870"><path
       inkscape:connector-curvature="0"
       class="st0"
       d="M 39.8,3.9 C 39.6,3.7 39.4,3.7 39.2,3.7 c -0.4,0 -0.8,0.4 -0.8,0.8 v 27.9 c 0,3.1 -2.5,5.6 -5.6,5.6 H 7.2 C 4.1,38 1.6,35.5 1.6,32.4 V 2.1 h 31.2 v 27.3 c 0,0.4 0.4,0.8 0.8,0.8 0.4,0 0.8,-0.4 0.8,-0.8 V 1.3 C 34.4,0.9 34,0.5 33.6,0.5 H 0.8 C 0.4,0.5 0,0.8 0,1.3 v 31.1 c 0,4 3.2,7.2 7.2,7.2 h 25.6 c 4,0 7.2,-3.2 7.2,-7.2 V 4.5 C 40,4.3 39.9,4.1 39.8,3.9 Z"
       id="path854" /><path
       inkscape:connector-curvature="0"
       class="st0"
       d="M 28.6,8.1 C 29,8.1 29.4,7.7 29.4,7.3 29.4,6.9 29,6.5 28.6,6.5 H 5.7 c -0.4,0 -0.8,0.4 -0.8,0.8 0,0.4 0.4,0.8 0.8,0.8 z"
       id="path856" /><path
       inkscape:connector-curvature="0"
       class="st0"
       d="m 5.7,29.5 h 22.9 c 0.4,0 0.8,-0.4 0.8,-0.8 0,-0.4 -0.4,-0.8 -0.8,-0.8 H 5.7 c -0.4,0 -0.8,0.4 -0.8,0.8 0,0.4 0.3,0.8 0.8,0.8 z"
       id="path858" /><path
       inkscape:connector-curvature="0"
       class="st0"
       d="m 9.3,34.9 h 19.3 c 0.4,0 0.8,-0.4 0.8,-0.8 0,-0.4 -0.4,-0.8 -0.8,-0.8 H 9.3 c -0.4,0 -0.8,0.4 -0.8,0.8 0,0.4 0.4,0.8 0.8,0.8 z"
       id="path860" /><path
       inkscape:connector-curvature="0"
       class="st0"
       d="m 4.5,12 v 11.4 c 0,0.4 0.4,0.8 0.8,0.8 h 11.4 c 0.4,0 0.8,-0.4 0.8,-0.8 V 12 c 0,-0.4 -0.4,-0.8 -0.8,-0.8 H 5.3 c -0.4,0 -0.8,0.4 -0.8,0.8 z m 1.6,0.8 h 9.8 v 9.8 H 6.1 Z"
       id="path862" /><path
       inkscape:connector-curvature="0"
       class="st0"
       d="m 29.1,12.3 h -7.5 c -0.4,0 -0.8,0.4 -0.8,0.8 0,0.4 0.4,0.8 0.8,0.8 h 7.5 c 0.4,0 0.8,-0.4 0.8,-0.8 0,-0.4 -0.4,-0.8 -0.8,-0.8 z"
       id="path864" /><path
       inkscape:connector-curvature="0"
       class="st0"
       d="m 29.1,17 h -7.5 c -0.4,0 -0.8,0.4 -0.8,0.8 0,0.4 0.4,0.8 0.8,0.8 h 7.5 c 0.4,0 0.8,-0.4 0.8,-0.8 0,-0.4 -0.4,-0.8 -0.8,-0.8 z"
       id="path866" /><path
       inkscape:connector-curvature="0"
       class="st0"
       d="m 29.9,22.9 c 0,-0.4 -0.4,-0.8 -0.8,-0.8 h -7.5 c -0.4,0 -0.8,0.4 -0.8,0.8 0,0.4 0.4,0.8 0.8,0.8 h 7.5 c 0.4,0 0.8,-0.4 0.8,-0.8 z"
       id="path868" /></g></g></svg>