<?xml version="1.0" encoding="UTF-8" standalone="no"?>
<!-- Generator: Adobe Illustrator 16.0.0, SVG Export Plug-In . SVG Version: 6.00 Build 0)  -->

<svg
   xmlns:osb="http://www.openswatchbook.org/uri/2009/osb"
   xmlns:dc="http://purl.org/dc/elements/1.1/"
   xmlns:cc="http://creativecommons.org/ns#"
   xmlns:rdf="http://www.w3.org/1999/02/22-rdf-syntax-ns#"
   xmlns:svg="http://www.w3.org/2000/svg"
   xmlns="http://www.w3.org/2000/svg"
   xmlns:sodipodi="http://sodipodi.sourceforge.net/DTD/sodipodi-0.dtd"
   xmlns:inkscape="http://www.inkscape.org/namespaces/inkscape"
   version="1.1"
   id="Capa_1"
   x="0px"
   y="0px"
   width="40"
   height="40"
   viewBox="0 0 40 40"
   xml:space="preserve"
   sodipodi:docname="ios-cadastro.svg"
   inkscape:version="0.92.4 (5da689c313, 2019-01-14)"><metadata
   id="metadata5772"><rdf:RDF><cc:Work
       rdf:about=""><dc:format>image/svg+xml</dc:format><dc:type
         rdf:resource="http://purl.org/dc/dcmitype/StillImage" /><dc:title></dc:title></cc:Work></rdf:RDF></metadata><defs
   id="defs5770"><linearGradient
     id="linearGradient7834"
     osb:paint="solid"><stop
       style="stop-color:#000000;stop-opacity:1;"
       offset="0"
       id="stop7832" /></linearGradient><linearGradient
     id="linearGradient7810"
     osb:paint="solid"><stop
       style="stop-color:#ffffff;stop-opacity:1;"
       offset="0"
       id="stop7808" /></linearGradient><linearGradient
     id="linearGradient6356"
     osb:paint="gradient"><stop
       style="stop-color:#ffffff;stop-opacity:1;"
       offset="0"
       id="stop6352" /><stop
       style="stop-color:#ffffff;stop-opacity:0;"
       offset="1"
       id="stop6354" /></linearGradient></defs><sodipodi:namedview
   pagecolor="#ffffff"
   bordercolor="#666666"
   borderopacity="1"
   objecttolerance="10"
   gridtolerance="10"
   guidetolerance="10"
   inkscape:pageopacity="0"
   inkscape:pageshadow="2"
   inkscape:window-width="1360"
   inkscape:window-height="705"
   id="namedview5768"
   showgrid="false"
   inkscape:zoom="9.6682956"
   inkscape:cx="13.035504"
   inkscape:cy="20.876476"
   inkscape:window-x="-8"
   inkscape:window-y="-8"
   inkscape:window-maximized="1"
   inkscape:current-layer="Capa_1" />

<g
   id="g5737"
   transform="translate(0,-236.164)">
</g>
<g
   id="g5739"
   transform="translate(0,-236.164)">
</g>
<g
   id="g5741"
   transform="translate(0,-236.164)">
</g>
<g
   id="g5743"
   transform="translate(0,-236.164)">
</g>
<g
   id="g5745"
   transform="translate(0,-236.164)">
</g>
<g
   id="g5747"
   transform="translate(0,-236.164)">
</g>
<g
   id="g5749"
   transform="translate(0,-236.164)">
</g>
<g
   id="g5751"
   transform="translate(0,-236.164)">
</g>
<g
   id="g5753"
   transform="translate(0,-236.164)">
</g>
<g
   id="g5755"
   transform="translate(0,-236.164)">
</g>
<g
   id="g5757"
   transform="translate(0,-236.164)">
</g>
<g
   id="g5759"
   transform="translate(0,-236.164)">
</g>
<g
   id="g5761"
   transform="translate(0,-236.164)">
</g>
<g
   id="g5763"
   transform="translate(0,-236.164)">
</g>
<g
   id="g5765"
   transform="translate(0,-236.164)">
</g>
<g
   transform="translate(0.06558383,0.03784645)"
   id="g12254"><path
     inkscape:connector-curvature="0"
     class="st1"
     d="m 16.52,14.8 h 14.02 c 0.51,0 0.92,-0.41 0.92,-0.92 0,-0.51 -0.41,-0.92 -0.92,-0.92 H 16.52 c -0.51,0 -0.92,0.41 -0.92,0.92 0,0.5 0.41,0.92 0.92,0.92 z"
     id="path12240" /><path
     inkscape:connector-curvature="0"
     class="st1"
     d="M 30.54,22.65 H 16.52 c -0.51,0 -0.92,0.41 -0.92,0.92 0,0.51 0.41,0.92 0.92,0.92 h 14.02 c 0.51,0 0.92,-0.41 0.92,-0.92 0.01,-0.5 -0.41,-0.92 -0.92,-0.92 z"
     id="path12242" /><path
     inkscape:connector-curvature="0"
     class="st1"
     d="M 30.54,32.34 H 16.52 c -0.51,0 -0.92,0.41 -0.92,0.92 0,0.51 0.41,0.92 0.92,0.92 h 14.02 c 0.51,0 0.92,-0.41 0.92,-0.92 0.01,-0.5 -0.41,-0.92 -0.92,-0.92 z"
     id="path12244" /><path
     inkscape:connector-curvature="0"
     class="st1"
     d="m 10.34,14.99 c 0.14,0.2 0.37,0.34 0.61,0.38 h 0.14 c 0.2,0 0.4,-0.07 0.57,-0.2 l 3.76,-2.94 c 0.42,-0.26 0.57,-0.82 0.32,-1.25 -0.12,-0.21 -0.32,-0.37 -0.56,-0.43 -0.24,-0.06 -0.49,-0.03 -0.69,0.09 -0.07,0.04 -0.14,0.09 -0.2,0.15 l -3,2.34 -0.37,-0.53 c -0.14,-0.2 -0.35,-0.34 -0.6,-0.38 -0.24,-0.04 -0.49,0.01 -0.69,0.15 -0.2,0.14 -0.34,0.35 -0.38,0.6 -0.04,0.24 0.01,0.49 0.15,0.69 z"
     id="path12246" /><path
     inkscape:connector-curvature="0"
     class="st1"
     d="m 9.41,23.26 0.92,1.34 v 0 c 0.14,0.21 0.37,0.35 0.62,0.38 H 11 11.09 c 0.2,0 0.4,-0.07 0.57,-0.2 l 3.77,-2.95 c 0.2,-0.15 0.33,-0.36 0.37,-0.6 0.04,-0.24 -0.02,-0.49 -0.17,-0.69 -0.15,-0.2 -0.36,-0.33 -0.61,-0.37 -0.24,-0.04 -0.49,0.02 -0.68,0.17 l -3.05,2.39 -0.36,-0.51 c -0.11,-0.21 -0.3,-0.36 -0.52,-0.44 -0.23,-0.08 -0.48,-0.06 -0.7,0.05 -0.22,0.11 -0.39,0.3 -0.46,0.53 -0.08,0.23 -0.06,0.49 0.05,0.71 0.03,0.08 0.07,0.14 0.11,0.19 z"
     id="path12248" /><path
     inkscape:connector-curvature="0"
     class="st1"
     d="m 15.62,30.17 c -0.15,-0.2 -0.36,-0.33 -0.6,-0.37 -0.25,-0.04 -0.49,0.02 -0.69,0.17 l -3.05,2.38 -0.37,-0.53 C 10.77,31.62 10.56,31.48 10.31,31.44 10.07,31.4 9.82,31.45 9.62,31.59 9.2,31.88 9.1,32.46 9.39,32.88 l 0.94,1.34 v 0 c 0.14,0.2 0.37,0.34 0.61,0.38 h 0.14 c 0.2,0 0.4,-0.07 0.57,-0.2 l 3.77,-2.95 c 0.2,-0.15 0.33,-0.36 0.37,-0.61 0.04,-0.23 -0.02,-0.47 -0.17,-0.67 z"
     id="path12250" /><path
     inkscape:connector-curvature="0"
     class="st1"
     d="M 33.6,0 H 6.4 C 5.19,0 4.21,0.98 4.21,2.19 V 37.81 C 4.21,39.01 5.2,40 6.4,40 h 27.2 c 1.21,0 2.19,-0.99 2.19,-2.19 V 2.19 C 35.79,0.98 34.81,0 33.6,0 Z m 0.34,8.26 v 29.55 c 0,0.19 -0.15,0.34 -0.34,0.34 H 6.4 C 6.21,38.15 6.06,38 6.06,37.81 V 8.26 Z M 6.06,6.41 V 2.19 C 6.06,2 6.21,1.85 6.4,1.85 h 27.2 c 0.19,0 0.34,0.15 0.34,0.34 v 4.22 z"
     id="path12252" /></g></svg>