<?xml version="1.0" encoding="UTF-8" standalone="no"?>
<!-- Generator: Adobe Illustrator 16.0.0, SVG Export Plug-In . SVG Version: 6.00 Build 0)  -->

<svg
   xmlns:osb="http://www.openswatchbook.org/uri/2009/osb"
   xmlns:dc="http://purl.org/dc/elements/1.1/"
   xmlns:cc="http://creativecommons.org/ns#"
   xmlns:rdf="http://www.w3.org/1999/02/22-rdf-syntax-ns#"
   xmlns:svg="http://www.w3.org/2000/svg"
   xmlns="http://www.w3.org/2000/svg"
   xmlns:sodipodi="http://sodipodi.sourceforge.net/DTD/sodipodi-0.dtd"
   xmlns:inkscape="http://www.inkscape.org/namespaces/inkscape"
   version="1.1"
   id="Capa_1"
   x="0px"
   y="0px"
   width="40"
   height="40"
   viewBox="0 0 40 40"
   xml:space="preserve"
   sodipodi:docname="ios-perfil.svg"
   inkscape:version="0.92.4 (5da689c313, 2019-01-14)"><metadata
   id="metadata5772"><rdf:RDF><cc:Work
       rdf:about=""><dc:format>image/svg+xml</dc:format><dc:type
         rdf:resource="http://purl.org/dc/dcmitype/StillImage" /><dc:title></dc:title></cc:Work></rdf:RDF></metadata><defs
   id="defs5770"><linearGradient
     id="linearGradient7834"
     osb:paint="solid"><stop
       style="stop-color:#000000;stop-opacity:1;"
       offset="0"
       id="stop7832" /></linearGradient><linearGradient
     id="linearGradient7810"
     osb:paint="solid"><stop
       style="stop-color:#ffffff;stop-opacity:1;"
       offset="0"
       id="stop7808" /></linearGradient><linearGradient
     id="linearGradient6356"
     osb:paint="gradient"><stop
       style="stop-color:#ffffff;stop-opacity:1;"
       offset="0"
       id="stop6352" /><stop
       style="stop-color:#ffffff;stop-opacity:0;"
       offset="1"
       id="stop6354" /></linearGradient></defs><sodipodi:namedview
   pagecolor="#ffffff"
   bordercolor="#666666"
   borderopacity="1"
   objecttolerance="10"
   gridtolerance="10"
   guidetolerance="10"
   inkscape:pageopacity="0"
   inkscape:pageshadow="2"
   inkscape:window-width="1360"
   inkscape:window-height="705"
   id="namedview5768"
   showgrid="false"
   inkscape:zoom="9.6682956"
   inkscape:cx="13.286531"
   inkscape:cy="20.876476"
   inkscape:window-x="-8"
   inkscape:window-y="-8"
   inkscape:window-maximized="1"
   inkscape:current-layer="Capa_1" />

<g
   id="g5737"
   transform="translate(0,-236.164)">
</g>
<g
   id="g5739"
   transform="translate(0,-236.164)">
</g>
<g
   id="g5741"
   transform="translate(0,-236.164)">
</g>
<g
   id="g5743"
   transform="translate(0,-236.164)">
</g>
<g
   id="g5745"
   transform="translate(0,-236.164)">
</g>
<g
   id="g5747"
   transform="translate(0,-236.164)">
</g>
<g
   id="g5749"
   transform="translate(0,-236.164)">
</g>
<g
   id="g5751"
   transform="translate(0,-236.164)">
</g>
<g
   id="g5753"
   transform="translate(0,-236.164)">
</g>
<g
   id="g5755"
   transform="translate(0,-236.164)">
</g>
<g
   id="g5757"
   transform="translate(0,-236.164)">
</g>
<g
   id="g5759"
   transform="translate(0,-236.164)">
</g>
<g
   id="g5761"
   transform="translate(0,-236.164)">
</g>
<g
   id="g5763"
   transform="translate(0,-236.164)">
</g>
<g
   id="g5765"
   transform="translate(0,-236.164)">
</g>
<path
   inkscape:connector-curvature="0"
   class="st1"
   d="m 26.605584,21.368347 -0.46,-0.16 0.4,-0.27 c 3.16,-2.18 5.02,-5.75 4.98,-9.57 -0.03,-3.0500002 -1.26,-5.9100002 -3.46,-8.0600002 -2.2,-2.15 -5.1,-3.30999999 -8.15,-3.26999999 -6.24,0.08 -11.3099997,5.21999999 -11.3099997,11.46000019 0,3.77 1.8599997,7.3 4.9799997,9.44 l 0.4,0.27 -0.46,0.16 c -2.87,0.99 -5.4299997,2.59 -7.5999997,4.77 -3.72,3.72 -5.79999999,8.65 -5.85999999,13.9 H 2.7455843 c 0.13,-9.44 7.8499997,-17.08 17.3199997,-17.08 9.47,0 17.19,7.64 17.32,17.08 h 2.68 c -0.06,-5.25 -2.14,-10.18 -5.86,-13.9 -2.17,-2.17 -4.73,-3.78 -7.6,-4.77 z m -6.54,-1.09 c -0.1,0 -0.2,0 -0.29,0 -4.61,-0.15 -8.34,-3.88 -8.49,-8.49 -0.04,-1.24 0.17,-2.4400002 0.63,-3.5800002 0.44,-1.1 1.1,-2.08 1.94,-2.92 0.84,-0.84 1.82,-1.49 2.92,-1.94 1.14,-0.46 2.34,-0.67 3.58,-0.63 4.61,0.15 8.34,3.88 8.49,8.4900002 0.04,1.24 -0.17,2.44 -0.63,3.58 -0.44,1.1 -1.1,2.08 -1.94,2.92 -0.84,0.84 -1.82,1.49 -2.92,1.94 -1.05,0.42 -2.15,0.63 -3.29,0.63 z"
   id="path6142" /></svg>