<?xml version="1.0" encoding="UTF-8" standalone="no"?>
<!-- Generator: Adobe Illustrator 16.0.0, SVG Export Plug-In . SVG Version: 6.00 Build 0)  -->

<svg
   xmlns:osb="http://www.openswatchbook.org/uri/2009/osb"
   xmlns:dc="http://purl.org/dc/elements/1.1/"
   xmlns:cc="http://creativecommons.org/ns#"
   xmlns:rdf="http://www.w3.org/1999/02/22-rdf-syntax-ns#"
   xmlns:svg="http://www.w3.org/2000/svg"
   xmlns="http://www.w3.org/2000/svg"
   xmlns:sodipodi="http://sodipodi.sourceforge.net/DTD/sodipodi-0.dtd"
   xmlns:inkscape="http://www.inkscape.org/namespaces/inkscape"
   version="1.1"
   id="Capa_1"
   x="0px"
   y="0px"
   width="40"
   height="40"
   viewBox="0 0 40 40"
   xml:space="preserve"
   sodipodi:docname="ios-contato.svg"
   inkscape:version="0.92.4 (5da689c313, 2019-01-14)"><metadata
   id="metadata5772"><rdf:RDF><cc:Work
       rdf:about=""><dc:format>image/svg+xml</dc:format><dc:type
         rdf:resource="http://purl.org/dc/dcmitype/StillImage" /><dc:title></dc:title></cc:Work></rdf:RDF></metadata><defs
   id="defs5770"><linearGradient
     id="linearGradient7834"
     osb:paint="solid"><stop
       style="stop-color:#000000;stop-opacity:1;"
       offset="0"
       id="stop7832" /></linearGradient><linearGradient
     id="linearGradient7810"
     osb:paint="solid"><stop
       style="stop-color:#ffffff;stop-opacity:1;"
       offset="0"
       id="stop7808" /></linearGradient><linearGradient
     id="linearGradient6356"
     osb:paint="gradient"><stop
       style="stop-color:#ffffff;stop-opacity:1;"
       offset="0"
       id="stop6352" /><stop
       style="stop-color:#ffffff;stop-opacity:0;"
       offset="1"
       id="stop6354" /></linearGradient></defs><sodipodi:namedview
   pagecolor="#ffffff"
   bordercolor="#666666"
   borderopacity="1"
   objecttolerance="10"
   gridtolerance="10"
   guidetolerance="10"
   inkscape:pageopacity="0"
   inkscape:pageshadow="2"
   inkscape:window-width="1360"
   inkscape:window-height="705"
   id="namedview5768"
   showgrid="false"
   inkscape:zoom="9.6682956"
   inkscape:cx="13.286531"
   inkscape:cy="20.876476"
   inkscape:window-x="-8"
   inkscape:window-y="-8"
   inkscape:window-maximized="1"
   inkscape:current-layer="Capa_1" />

<g
   id="g5737"
   transform="translate(0,-236.164)">
</g>
<g
   id="g5739"
   transform="translate(0,-236.164)">
</g>
<g
   id="g5741"
   transform="translate(0,-236.164)">
</g>
<g
   id="g5743"
   transform="translate(0,-236.164)">
</g>
<g
   id="g5745"
   transform="translate(0,-236.164)">
</g>
<g
   id="g5747"
   transform="translate(0,-236.164)">
</g>
<g
   id="g5749"
   transform="translate(0,-236.164)">
</g>
<g
   id="g5751"
   transform="translate(0,-236.164)">
</g>
<g
   id="g5753"
   transform="translate(0,-236.164)">
</g>
<g
   id="g5755"
   transform="translate(0,-236.164)">
</g>
<g
   id="g5757"
   transform="translate(0,-236.164)">
</g>
<g
   id="g5759"
   transform="translate(0,-236.164)">
</g>
<g
   id="g5761"
   transform="translate(0,-236.164)">
</g>
<g
   id="g5763"
   transform="translate(0,-236.164)">
</g>
<g
   id="g5765"
   transform="translate(0,-236.164)">
</g>
<g
   id="g5114"
   transform="translate(0.0705566,0.04284692)"><path
     inkscape:connector-curvature="0"
     class="st0"
     d="M 29.53,16.07 V 2.98 C 29.53,1.34 28.19,0 26.55,0 H 2.98 C 1.34,0 0,1.34 0,2.98 v 13.09 c 0,1.64 1.34,2.98 2.98,2.98 h 0.29 v 3.56 c 0,0.68 0.4,1.29 1.03,1.55 0.21,0.09 0.42,0.13 0.64,0.13 0.45,0 0.87,-0.17 1.18,-0.49 0.03,-0.03 0.05,-0.05 0.07,-0.08 L 10,19.05 h 16.53 c 1.66,0 3,-1.33 3,-2.98 z M 4.29,17.02 H 2.98 C 2.46,17.02 2.04,16.6 2.04,16.08 V 2.98 c 0,-0.52 0.42,-0.94 0.94,-0.94 h 23.56 c 0.52,0 0.94,0.42 0.94,0.94 v 13.09 c 0,0.52 -0.42,0.94 -0.94,0.94 H 9.53 c -0.03,0 -0.07,0 -0.1,0.01 -0.1,0.02 -0.2,0.04 -0.3,0.08 L 9.1,17.11 9.07,17.12 C 9.02,17.15 8.98,17.18 8.93,17.21 8.88,17.24 8.84,17.28 8.8,17.32 8.78,17.34 8.75,17.36 8.73,17.38 L 5.3,21.58 V 18.03 C 5.31,17.47 4.85,17.02 4.29,17.02 Z"
     id="path5110" /><path
     inkscape:connector-curvature="0"
     class="st0"
     d="m 37.02,20.94 h -0.29 v -3.56 c 0,-0.68 -0.41,-1.29 -1.03,-1.55 -0.63,-0.26 -1.34,-0.12 -1.82,0.36 -0.03,0.03 -0.05,0.05 -0.07,0.08 L 30,20.94 H 13.45 c -1.64,0 -2.98,1.34 -2.98,2.98 v 13.09 c 0,1.64 1.34,2.98 2.98,2.98 h 23.56 c 1.64,0 2.98,-1.34 2.98,-2.98 V 23.93 C 40,22.28 38.66,20.95 37.02,20.94 Z m -23.56,2.04 h 17.02 c 0.14,0 0.28,-0.03 0.41,-0.09 l 0.04,-0.02 c 0.02,-0.01 0.04,-0.03 0.07,-0.04 0.07,-0.04 0.14,-0.1 0.2,-0.16 0.02,-0.02 0.05,-0.04 0.07,-0.06 l 3.43,-4.2 v 3.55 c 0,0.56 0.46,1.02 1.02,1.02 h 1.31 c 0.52,0 0.94,0.42 0.94,0.94 v 13.09 c 0,0.52 -0.42,0.94 -0.94,0.94 H 13.46 c -0.52,0 -0.94,-0.42 -0.94,-0.94 V 23.93 c -0.01,-0.52 0.42,-0.95 0.94,-0.95 z"
     id="path5112" /></g></svg>