<?xml version="1.0" encoding="UTF-8" standalone="no"?>
<!-- Generator: Adobe Illustrator 16.0.0, SVG Export Plug-In . SVG Version: 6.00 Build 0)  -->

<svg
   xmlns:osb="http://www.openswatchbook.org/uri/2009/osb"
   xmlns:dc="http://purl.org/dc/elements/1.1/"
   xmlns:cc="http://creativecommons.org/ns#"
   xmlns:rdf="http://www.w3.org/1999/02/22-rdf-syntax-ns#"
   xmlns:svg="http://www.w3.org/2000/svg"
   xmlns="http://www.w3.org/2000/svg"
   xmlns:sodipodi="http://sodipodi.sourceforge.net/DTD/sodipodi-0.dtd"
   xmlns:inkscape="http://www.inkscape.org/namespaces/inkscape"
   version="1.1"
   id="Capa_1"
   x="0px"
   y="0px"
   width="40"
   height="40"
   viewBox="0 0 40 40"
   xml:space="preserve"
   sodipodi:docname="ios-obra.svg"
   inkscape:version="0.92.4 (5da689c313, 2019-01-14)"><metadata
   id="metadata5772"><rdf:RDF><cc:Work
       rdf:about=""><dc:format>image/svg+xml</dc:format><dc:type
         rdf:resource="http://purl.org/dc/dcmitype/StillImage" /><dc:title></dc:title></cc:Work></rdf:RDF></metadata><defs
   id="defs5770"><linearGradient
     id="linearGradient7834"
     osb:paint="solid"><stop
       style="stop-color:#000000;stop-opacity:1;"
       offset="0"
       id="stop7832" /></linearGradient><linearGradient
     id="linearGradient7810"
     osb:paint="solid"><stop
       style="stop-color:#ffffff;stop-opacity:1;"
       offset="0"
       id="stop7808" /></linearGradient><linearGradient
     id="linearGradient6356"
     osb:paint="gradient"><stop
       style="stop-color:#ffffff;stop-opacity:1;"
       offset="0"
       id="stop6352" /><stop
       style="stop-color:#ffffff;stop-opacity:0;"
       offset="1"
       id="stop6354" /></linearGradient></defs><sodipodi:namedview
   pagecolor="#ffffff"
   bordercolor="#666666"
   borderopacity="1"
   objecttolerance="10"
   gridtolerance="10"
   guidetolerance="10"
   inkscape:pageopacity="0"
   inkscape:pageshadow="2"
   inkscape:window-width="1360"
   inkscape:window-height="705"
   id="namedview5768"
   showgrid="false"
   inkscape:zoom="9.6682956"
   inkscape:cx="14.837994"
   inkscape:cy="22.612143"
   inkscape:window-x="-8"
   inkscape:window-y="-8"
   inkscape:window-maximized="1"
   inkscape:current-layer="Capa_1" />

<g
   id="g5737"
   transform="translate(0,-236.164)">
</g>
<g
   id="g5739"
   transform="translate(0,-236.164)">
</g>
<g
   id="g5741"
   transform="translate(0,-236.164)">
</g>
<g
   id="g5743"
   transform="translate(0,-236.164)">
</g>
<g
   id="g5745"
   transform="translate(0,-236.164)">
</g>
<g
   id="g5747"
   transform="translate(0,-236.164)">
</g>
<g
   id="g5749"
   transform="translate(0,-236.164)">
</g>
<g
   id="g5751"
   transform="translate(0,-236.164)">
</g>
<g
   id="g5753"
   transform="translate(0,-236.164)">
</g>
<g
   id="g5755"
   transform="translate(0,-236.164)">
</g>
<g
   id="g5757"
   transform="translate(0,-236.164)">
</g>
<g
   id="g5759"
   transform="translate(0,-236.164)">
</g>
<g
   id="g5761"
   transform="translate(0,-236.164)">
</g>
<g
   id="g5763"
   transform="translate(0,-236.164)">
</g>
<g
   id="g5765"
   transform="translate(0,-236.164)">
</g>
<path
   inkscape:connector-curvature="0"
   class="st1"
   d="m 35.107845,6.9515987 v 0 -5.84 c 0,-0.34000002 -0.17,-0.67000002 -0.44,-0.87000002 -0.28,-0.2 -0.64,-0.26 -0.96,-0.16 l -21.73,6.90000002 c -0.44,0.16 -0.75,0.57 -0.75,1.04 v 11.0200003 10.22 1.19 c -0.89,-0.66 -1.9800005,-1.05 -3.1700005,-1.05 -2.94,0 -5.32,2.38 -5.32,5.32 0.01,2.94 2.39,5.32 5.33,5.32 2.9400005,0 5.3200005,-2.38 5.3200005,-5.32 0,-0.03 0,-0.05 0,-0.08 v -5.29 -13.24 l 19.58,-6.2300003 V 21.301599 c -0.89,-0.66 -1.98,-1.05 -3.17,-1.05 -2.94,0 -5.32,2.38 -5.32,5.32 0,2.94 2.38,5.32 5.32,5.32 2.94,0 5.32,-2.38 5.32,-5.32 0,0 0,-0.01 0,-0.01 v 0 V 6.9515987 Z M 8.0678445,37.931599 c -1.77,0 -3.21,-1.44 -3.21,-3.21 0,-1.77 1.44,-3.21 3.21,-3.21 1.77,0 3.2100005,1.44 3.2100005,3.21 -0.01,1.77 -1.4400005,3.21 -3.2100005,3.21 z m 5.3100005,-24.08 V 8.8015987 l 19.58,-6.22 v 5.05 z m 16.41,14.93 c -1.77,0 -3.21,-1.44 -3.21,-3.21 0,-1.77 1.44,-3.21 3.21,-3.21 1.77,0 3.21,1.44 3.21,3.21 0,1.77 -1.43,3.21 -3.21,3.21 z"
   id="path2838" /></svg>