<?xml version="1.0" encoding="UTF-8" standalone="no"?>
<!-- Generator: Adobe Illustrator 16.0.0, SVG Export Plug-In . SVG Version: 6.00 Build 0)  -->

<svg
   xmlns:osb="http://www.openswatchbook.org/uri/2009/osb"
   xmlns:dc="http://purl.org/dc/elements/1.1/"
   xmlns:cc="http://creativecommons.org/ns#"
   xmlns:rdf="http://www.w3.org/1999/02/22-rdf-syntax-ns#"
   xmlns:svg="http://www.w3.org/2000/svg"
   xmlns="http://www.w3.org/2000/svg"
   xmlns:sodipodi="http://sodipodi.sourceforge.net/DTD/sodipodi-0.dtd"
   xmlns:inkscape="http://www.inkscape.org/namespaces/inkscape"
   version="1.1"
   id="Capa_1"
   x="0px"
   y="0px"
   width="40"
   height="40"
   viewBox="0 0 40 40"
   xml:space="preserve"
   sodipodi:docname="ios-email.svg"
   inkscape:version="0.92.4 (5da689c313, 2019-01-14)"><metadata
   id="metadata5772"><rdf:RDF><cc:Work
       rdf:about=""><dc:format>image/svg+xml</dc:format><dc:type
         rdf:resource="http://purl.org/dc/dcmitype/StillImage" /><dc:title></dc:title></cc:Work></rdf:RDF></metadata><defs
   id="defs5770"><linearGradient
     id="linearGradient7834"
     osb:paint="solid"><stop
       style="stop-color:#000000;stop-opacity:1;"
       offset="0"
       id="stop7832" /></linearGradient><linearGradient
     id="linearGradient7810"
     osb:paint="solid"><stop
       style="stop-color:#ffffff;stop-opacity:1;"
       offset="0"
       id="stop7808" /></linearGradient><linearGradient
     id="linearGradient6356"
     osb:paint="gradient"><stop
       style="stop-color:#ffffff;stop-opacity:1;"
       offset="0"
       id="stop6352" /><stop
       style="stop-color:#ffffff;stop-opacity:0;"
       offset="1"
       id="stop6354" /></linearGradient></defs><sodipodi:namedview
   pagecolor="#ffffff"
   bordercolor="#666666"
   borderopacity="1"
   objecttolerance="10"
   gridtolerance="10"
   guidetolerance="10"
   inkscape:pageopacity="0"
   inkscape:pageshadow="2"
   inkscape:window-width="1360"
   inkscape:window-height="705"
   id="namedview5768"
   showgrid="false"
   inkscape:zoom="9.6682956"
   inkscape:cx="14.837994"
   inkscape:cy="22.612143"
   inkscape:window-x="-8"
   inkscape:window-y="-8"
   inkscape:window-maximized="1"
   inkscape:current-layer="Capa_1" />

<g
   id="g5737"
   transform="translate(0,-236.164)">
</g>
<g
   id="g5739"
   transform="translate(0,-236.164)">
</g>
<g
   id="g5741"
   transform="translate(0,-236.164)">
</g>
<g
   id="g5743"
   transform="translate(0,-236.164)">
</g>
<g
   id="g5745"
   transform="translate(0,-236.164)">
</g>
<g
   id="g5747"
   transform="translate(0,-236.164)">
</g>
<g
   id="g5749"
   transform="translate(0,-236.164)">
</g>
<g
   id="g5751"
   transform="translate(0,-236.164)">
</g>
<g
   id="g5753"
   transform="translate(0,-236.164)">
</g>
<g
   id="g5755"
   transform="translate(0,-236.164)">
</g>
<g
   id="g5757"
   transform="translate(0,-236.164)">
</g>
<g
   id="g5759"
   transform="translate(0,-236.164)">
</g>
<g
   id="g5761"
   transform="translate(0,-236.164)">
</g>
<g
   id="g5763"
   transform="translate(0,-236.164)">
</g>
<g
   id="g5765"
   transform="translate(0,-236.164)">
</g>
<g
   transform="translate(0.16899861,0.55500127)"
   id="g3920"><path
     inkscape:connector-curvature="0"
     class="st0"
     d="M 35.12,4.78 H 4.89 C 2.19,4.78 0,6.97 0,9.67 v 20.66 c 0,2.7 2.19,4.89 4.89,4.89 h 30.22 c 2.7,0 4.89,-2.19 4.89,-4.89 V 9.68 c 0.01,-2.7 -2.19,-4.9 -4.88,-4.9 z m 2.65,25.55 c 0,1.46 -1.19,2.66 -2.66,2.66 H 4.89 C 3.43,32.99 2.23,31.8 2.23,30.33 V 9.68 c 0,-1.46 1.19,-2.66 2.66,-2.66 h 30.22 c 1.47,0 2.66,1.19 2.66,2.66 z m 0,0"
     id="path3916" /><path
     inkscape:connector-curvature="0"
     class="st0"
     d="m 25.23,19.74 9.78,-8.77 C 35.47,10.56 35.51,9.85 35.09,9.39 34.68,8.93 33.97,8.89 33.51,9.31 L 20.02,21.42 17.39,19.07 C 17.38,19.06 17.37,19.05 17.37,19.05 17.31,18.99 17.25,18.94 17.19,18.89 L 6.48,9.3 C 6.02,8.88 5.31,8.93 4.9,9.39 4.49,9.85 4.53,10.56 4.99,10.97 l 9.9,8.85 -9.86,9.23 c -0.45,0.42 -0.47,1.13 -0.05,1.58 0.22,0.23 0.52,0.36 0.82,0.36 0.27,0 0.55,-0.1 0.76,-0.3 l 10.01,-9.36 2.71,2.42 c 0.22,0.19 0.48,0.28 0.75,0.28 0.26,0 0.54,-0.1 0.74,-0.29 l 2.79,-2.5 9.95,9.45 c 0.21,0.21 0.5,0.31 0.77,0.31 0.3,0 0.59,-0.12 0.81,-0.35 0.42,-0.45 0.41,-1.16 -0.04,-1.58 z m 0,0"
     id="path3918" /></g></svg>