<?xml version="1.0" encoding="UTF-8" standalone="no"?>
<!-- Generator: Adobe Illustrator 16.0.0, SVG Export Plug-In . SVG Version: 6.00 Build 0)  -->

<svg
   xmlns:osb="http://www.openswatchbook.org/uri/2009/osb"
   xmlns:dc="http://purl.org/dc/elements/1.1/"
   xmlns:cc="http://creativecommons.org/ns#"
   xmlns:rdf="http://www.w3.org/1999/02/22-rdf-syntax-ns#"
   xmlns:svg="http://www.w3.org/2000/svg"
   xmlns="http://www.w3.org/2000/svg"
   xmlns:sodipodi="http://sodipodi.sourceforge.net/DTD/sodipodi-0.dtd"
   xmlns:inkscape="http://www.inkscape.org/namespaces/inkscape"
   version="1.1"
   id="Capa_1"
   x="0px"
   y="0px"
   width="40"
   height="40"
   viewBox="0 0 40 40"
   xml:space="preserve"
   sodipodi:docname="md-carteira.svg"
   inkscape:version="0.92.4 (5da689c313, 2019-01-14)"><metadata
   id="metadata5772"><rdf:RDF><cc:Work
       rdf:about=""><dc:format>image/svg+xml</dc:format><dc:type
         rdf:resource="http://purl.org/dc/dcmitype/StillImage" /><dc:title></dc:title></cc:Work></rdf:RDF></metadata><defs
   id="defs5770"><linearGradient
     id="linearGradient7834"
     osb:paint="solid"><stop
       style="stop-color:#000000;stop-opacity:1;"
       offset="0"
       id="stop7832" /></linearGradient><linearGradient
     id="linearGradient7810"
     osb:paint="solid"><stop
       style="stop-color:#ffffff;stop-opacity:1;"
       offset="0"
       id="stop7808" /></linearGradient><linearGradient
     id="linearGradient6356"
     osb:paint="gradient"><stop
       style="stop-color:#ffffff;stop-opacity:1;"
       offset="0"
       id="stop6352" /><stop
       style="stop-color:#ffffff;stop-opacity:0;"
       offset="1"
       id="stop6354" /></linearGradient></defs><sodipodi:namedview
   pagecolor="#ffffff"
   bordercolor="#666666"
   borderopacity="1"
   objecttolerance="10"
   gridtolerance="10"
   guidetolerance="10"
   inkscape:pageopacity="0"
   inkscape:pageshadow="2"
   inkscape:window-width="1360"
   inkscape:window-height="705"
   id="namedview5768"
   showgrid="false"
   inkscape:zoom="9.6682956"
   inkscape:cx="14.837994"
   inkscape:cy="22.612143"
   inkscape:window-x="-8"
   inkscape:window-y="-8"
   inkscape:window-maximized="1"
   inkscape:current-layer="Capa_1" />

<g
   id="g5737"
   transform="translate(0,-236.164)">
</g>
<g
   id="g5739"
   transform="translate(0,-236.164)">
</g>
<g
   id="g5741"
   transform="translate(0,-236.164)">
</g>
<g
   id="g5743"
   transform="translate(0,-236.164)">
</g>
<g
   id="g5745"
   transform="translate(0,-236.164)">
</g>
<g
   id="g5747"
   transform="translate(0,-236.164)">
</g>
<g
   id="g5749"
   transform="translate(0,-236.164)">
</g>
<g
   id="g5751"
   transform="translate(0,-236.164)">
</g>
<g
   id="g5753"
   transform="translate(0,-236.164)">
</g>
<g
   id="g5755"
   transform="translate(0,-236.164)">
</g>
<g
   id="g5757"
   transform="translate(0,-236.164)">
</g>
<g
   id="g5759"
   transform="translate(0,-236.164)">
</g>
<g
   id="g5761"
   transform="translate(0,-236.164)">
</g>
<g
   id="g5763"
   transform="translate(0,-236.164)">
</g>
<g
   id="g5765"
   transform="translate(0,-236.164)">
</g>
<g
   transform="translate(0.06558443,0.55500044)"
   id="g1681"><path
     inkscape:connector-curvature="0"
     class="st0"
     d="m 6.66,26.11 c 0,-2.97 2.42,-5.38 5.38,-5.38 2.97,0 5.38,2.42 5.38,5.38 v 0.28 h 1.61 v -0.28 c 0,-1.87 -0.73,-3.63 -2.05,-4.95 -0.64,-0.64 -1.37,-1.14 -2.19,-1.49 0.9,-0.8 1.42,-1.96 1.4,-3.16 -0.01,-1.11 -0.46,-2.15 -1.26,-2.93 -0.8,-0.78 -1.85,-1.2 -2.96,-1.19 -2.27,0.03 -4.11,1.9 -4.11,4.16 0,1.18 0.52,2.33 1.4,3.11 -0.81,0.35 -1.55,0.85 -2.19,1.49 -1.32,1.32 -2.05,3.08 -2.05,4.95 v 0.28 h 1.61 v -0.27 z m 7.18,-7.75 c -0.5,0.5 -1.18,0.77 -1.89,0.75 -1.34,-0.04 -2.42,-1.13 -2.47,-2.47 -0.02,-0.71 0.24,-1.38 0.75,-1.89 0.48,-0.48 1.12,-0.75 1.8,-0.75 0.03,0 0.06,0 0.09,0 1.34,0.04 2.42,1.13 2.47,2.47 0.02,0.72 -0.24,1.39 -0.75,1.89 z"
     id="path1671" /><path
     inkscape:connector-curvature="0"
     class="st0"
     d="M 37.31,6.91 H 2.69 C 1.21,6.91 0,8.11 0,9.6 v 20.8 c 0,1.48 1.21,2.69 2.69,2.69 H 37.31 C 38.79,33.09 40,31.88 40,30.4 V 9.6 C 40,8.11 38.79,6.91 37.31,6.91 Z M 2.02,9.6 c 0,-0.37 0.3,-0.68 0.68,-0.68 h 34.62 c 0.37,0 0.68,0.3 0.68,0.68 v 20.8 c 0,0.37 -0.3,0.68 -0.68,0.68 H 2.69 c -0.37,0 -0.68,-0.3 -0.68,-0.68 V 9.6 Z"
     id="path1673" /><path
     inkscape:connector-curvature="0"
     class="st0"
     d="m 23.83,16.31 h 9.04 c 0.56,0 1.01,-0.45 1.01,-1.01 0,-0.56 -0.45,-1.01 -1.01,-1.01 h -9.04 c -0.56,0 -1.01,0.45 -1.01,1.01 0,0.56 0.46,1.01 1.01,1.01 z"
     id="path1675" /><path
     inkscape:connector-curvature="0"
     class="st0"
     d="m 23.83,21.01 h 9.04 c 0.56,0 1.01,-0.45 1.01,-1.01 0,-0.56 -0.45,-1.01 -1.01,-1.01 h -9.04 c -0.56,0 -1.01,0.45 -1.01,1.01 0,0.56 0.46,1.01 1.01,1.01 z"
     id="path1677" /><path
     inkscape:connector-curvature="0"
     class="st0"
     d="m 23.83,25.7 h 9.04 c 0.56,0 1.01,-0.45 1.01,-1.01 0,-0.56 -0.45,-1.01 -1.01,-1.01 h -9.04 c -0.56,0 -1.01,0.45 -1.01,1.01 0,0.56 0.46,1.01 1.01,1.01 z"
     id="path1679" /></g></svg>