<?xml version="1.0" encoding="UTF-8" standalone="no"?>
<!-- Generator: Adobe Illustrator 19.0.0, SVG Export Plug-In . SVG Version: 6.00 Build 0)  -->

<svg
   xmlns:dc="http://purl.org/dc/elements/1.1/"
   xmlns:cc="http://creativecommons.org/ns#"
   xmlns:rdf="http://www.w3.org/1999/02/22-rdf-syntax-ns#"
   xmlns:svg="http://www.w3.org/2000/svg"
   xmlns="http://www.w3.org/2000/svg"
   xmlns:sodipodi="http://sodipodi.sourceforge.net/DTD/sodipodi-0.dtd"
   xmlns:inkscape="http://www.inkscape.org/namespaces/inkscape"
   version="1.1"
   id="Capa_1"
   x="0px"
   y="0px"
   viewBox="0 0 40 40"
   xml:space="preserve"
   sodipodi:docname="md-filiacao.svg"
   width="40"
   height="40"
   inkscape:version="0.92.4 (5da689c313, 2019-01-14)"><metadata
   id="metadata923"><rdf:RDF><cc:Work
       rdf:about=""><dc:format>image/svg+xml</dc:format><dc:type
         rdf:resource="http://purl.org/dc/dcmitype/StillImage" /><dc:title></dc:title></cc:Work></rdf:RDF></metadata><defs
   id="defs921" /><sodipodi:namedview
   pagecolor="#ffffff"
   bordercolor="#666666"
   borderopacity="1"
   objecttolerance="10"
   gridtolerance="10"
   guidetolerance="10"
   inkscape:pageopacity="0"
   inkscape:pageshadow="2"
   inkscape:window-width="1360"
   inkscape:window-height="705"
   id="namedview919"
   showgrid="false"
   inkscape:zoom="4.1875"
   inkscape:cx="2.9273805"
   inkscape:cy="26.033678"
   inkscape:window-x="-8"
   inkscape:window-y="-8"
   inkscape:window-maximized="1"
   inkscape:current-layer="g1775" />



<g
   id="g888"
   transform="translate(0,-472)">
</g>
<g
   id="g890"
   transform="translate(0,-472)">
</g>
<g
   id="g892"
   transform="translate(0,-472)">
</g>
<g
   id="g894"
   transform="translate(0,-472)">
</g>
<g
   id="g896"
   transform="translate(0,-472)">
</g>
<g
   id="g898"
   transform="translate(0,-472)">
</g>
<g
   id="g900"
   transform="translate(0,-472)">
</g>
<g
   id="g902"
   transform="translate(0,-472)">
</g>
<g
   id="g904"
   transform="translate(0,-472)">
</g>
<g
   id="g906"
   transform="translate(0,-472)">
</g>
<g
   id="g908"
   transform="translate(0,-472)">
</g>
<g
   id="g910"
   transform="translate(0,-472)">
</g>
<g
   id="g912"
   transform="translate(0,-472)">
</g>
<g
   id="g914"
   transform="translate(0,-472)">
</g>
<g
   id="g916"
   transform="translate(0,-472)">
</g>
<g
   transform="matrix(0.07295929,0,0,0.07295929,10.21022,26.036774)"
   id="g1775"><g
     transform="matrix(13.706274,0,0,13.706274,-139.1258,-347.86602)"
     id="g3649"
     style="fill-opacity:1"><path
       inkscape:connector-curvature="0"
       class="st0"
       d="M 30.6,36.8 C 30.5,32.6 29,29 26.1,26.2 c -1.6,-1.6 -3.5,-2.8 -5.7,-3.6 2.4,-1.7 3.8,-4.4 3.8,-7.4 0,-2.3 -1,-4.5 -2.7,-6.3 -1.7,-1.6 -4,-2.6 -6.3,-2.6 -4.8,0.1 -8.8,4.1 -8.8,8.9 0,2.9 1.4,5.6 3.8,7.2 C 8,23.2 6.1,24.4 4.4,26.1 1.7,29 0.1,32.8 0,36.8 v 0.3 h 2.5 v -0.2 c 0.1,-7 5.8,-12.6 12.8,-12.6 7,0 12.7,5.7 12.8,12.6 v 0.2 h 2.5 z M 21.7,15.2 c 0,0.9 -0.1,1.8 -0.4,2.6 -0.3,0.7 -0.7,1.5 -1.4,2.1 -0.6,0.6 -1.4,1.1 -2.1,1.4 -0.8,0.3 -1.6,0.4 -2.4,0.4 H 15.2 C 11.9,21.6 9.2,18.9 9,15.5 9,14.6 9.1,13.7 9.4,12.9 9.7,12.2 10.1,11.4 10.8,10.8 11.4,10.2 12.2,9.7 12.9,9.4 13.6,9.2 14.3,9 15.1,9 c 0.2,0 0.3,0 0.5,0 3.3,0.1 6,2.8 6.1,6.2 z"
       id="path3641"
       style="fill-opacity:1" /><rect
       x="25.700001"
       y="8.8999996"
       class="st0"
       width="14.3"
       height="2.4000001"
       id="rect3643"
       style="fill-opacity:1" /><rect
       x="25.700001"
       y="2.9000001"
       class="st0"
       width="14.3"
       height="2.4000001"
       id="rect3645"
       style="fill-opacity:1" /><rect
       x="25.700001"
       y="14.9"
       class="st0"
       width="14.3"
       height="2.4000001"
       id="rect3647"
       style="fill-opacity:1" /></g></g></svg>