<?xml version="1.0" encoding="UTF-8" standalone="no"?>
<!-- Generator: Adobe Illustrator 16.0.0, SVG Export Plug-In . SVG Version: 6.00 Build 0)  -->

<svg
   xmlns:osb="http://www.openswatchbook.org/uri/2009/osb"
   xmlns:dc="http://purl.org/dc/elements/1.1/"
   xmlns:cc="http://creativecommons.org/ns#"
   xmlns:rdf="http://www.w3.org/1999/02/22-rdf-syntax-ns#"
   xmlns:svg="http://www.w3.org/2000/svg"
   xmlns="http://www.w3.org/2000/svg"
   xmlns:sodipodi="http://sodipodi.sourceforge.net/DTD/sodipodi-0.dtd"
   xmlns:inkscape="http://www.inkscape.org/namespaces/inkscape"
   version="1.1"
   id="Capa_1"
   x="0px"
   y="0px"
   width="40"
   height="40"
   viewBox="0 0 40 40"
   xml:space="preserve"
   sodipodi:docname="md-fonograma.svg"
   inkscape:version="0.92.4 (5da689c313, 2019-01-14)"><metadata
   id="metadata5772"><rdf:RDF><cc:Work
       rdf:about=""><dc:format>image/svg+xml</dc:format><dc:type
         rdf:resource="http://purl.org/dc/dcmitype/StillImage" /><dc:title></dc:title></cc:Work></rdf:RDF></metadata><defs
   id="defs5770"><linearGradient
     id="linearGradient7834"
     osb:paint="solid"><stop
       style="stop-color:#000000;stop-opacity:1;"
       offset="0"
       id="stop7832" /></linearGradient><linearGradient
     id="linearGradient7810"
     osb:paint="solid"><stop
       style="stop-color:#ffffff;stop-opacity:1;"
       offset="0"
       id="stop7808" /></linearGradient><linearGradient
     id="linearGradient6356"
     osb:paint="gradient"><stop
       style="stop-color:#ffffff;stop-opacity:1;"
       offset="0"
       id="stop6352" /><stop
       style="stop-color:#ffffff;stop-opacity:0;"
       offset="1"
       id="stop6354" /></linearGradient></defs><sodipodi:namedview
   pagecolor="#ffffff"
   bordercolor="#666666"
   borderopacity="1"
   objecttolerance="10"
   gridtolerance="10"
   guidetolerance="10"
   inkscape:pageopacity="0"
   inkscape:pageshadow="2"
   inkscape:window-width="1360"
   inkscape:window-height="705"
   id="namedview5768"
   showgrid="false"
   inkscape:zoom="9.6682956"
   inkscape:cx="13.035504"
   inkscape:cy="20.876476"
   inkscape:window-x="-8"
   inkscape:window-y="-8"
   inkscape:window-maximized="1"
   inkscape:current-layer="Capa_1" />

<g
   id="g5737"
   transform="translate(0,-236.164)">
</g>
<g
   id="g5739"
   transform="translate(0,-236.164)">
</g>
<g
   id="g5741"
   transform="translate(0,-236.164)">
</g>
<g
   id="g5743"
   transform="translate(0,-236.164)">
</g>
<g
   id="g5745"
   transform="translate(0,-236.164)">
</g>
<g
   id="g5747"
   transform="translate(0,-236.164)">
</g>
<g
   id="g5749"
   transform="translate(0,-236.164)">
</g>
<g
   id="g5751"
   transform="translate(0,-236.164)">
</g>
<g
   id="g5753"
   transform="translate(0,-236.164)">
</g>
<g
   id="g5755"
   transform="translate(0,-236.164)">
</g>
<g
   id="g5757"
   transform="translate(0,-236.164)">
</g>
<g
   id="g5759"
   transform="translate(0,-236.164)">
</g>
<g
   id="g5761"
   transform="translate(0,-236.164)">
</g>
<g
   id="g5763"
   transform="translate(0,-236.164)">
</g>
<g
   id="g5765"
   transform="translate(0,-236.164)">
</g>
<g
   id="g13533"
   transform="translate(0.0655838,-0.06558382)"><path
     inkscape:connector-curvature="0"
     class="st1"
     d="m 33.31,2.13 c -0.35,0.11 -0.59,0.44 -0.59,0.81 v 8.66 8.03 0.93 c -0.7,-0.52 -1.56,-0.82 -2.49,-0.82 -2.31,0 -4.18,1.87 -4.18,4.18 0,2.31 1.87,4.18 4.18,4.18 2.31,0 4.18,-1.87 4.18,-4.18 0,-0.02 0,-0.04 0,-0.06 V 19.71 9.29 L 40,7.51 V 5.74 1.77 0 Z m -3.08,24.3 c -1.39,0 -2.52,-1.13 -2.52,-2.52 0,-1.39 1.13,-2.52 2.52,-2.52 1.39,0 2.52,1.13 2.52,2.52 0,1.39 -1.13,2.52 -2.52,2.52 z"
     id="path13519" /><path
     inkscape:connector-curvature="0"
     class="st1"
     d="m 26.62,30.07 c -0.35,-0.28 -0.86,-0.23 -1.14,0.12 -1.27,1.55 -2.94,2.72 -4.83,3.37 -1.89,0.66 -3.92,0.78 -5.88,0.35 -0.21,-0.04 -0.43,-0.01 -0.61,0.11 -0.18,0.12 -0.31,0.3 -0.36,0.51 -0.08,0.37 0.1,0.74 0.44,0.9 0.06,0.03 0.12,0.05 0.18,0.06 0.88,0.19 1.77,0.29 2.67,0.29 1.39,0 2.77,-0.23 4.09,-0.69 2.17,-0.75 4.09,-2.09 5.55,-3.88 0.29,-0.34 0.24,-0.85 -0.11,-1.14 z"
     id="path13521" /><path
     inkscape:connector-curvature="0"
     class="st1"
     d="m 16.3,29.78 c -0.43,-0.1 -0.87,0.17 -0.97,0.6 -0.09,0.37 0.09,0.75 0.43,0.92 0.05,0.02 0.1,0.04 0.16,0.06 0.53,0.13 1.07,0.19 1.61,0.19 2.1,0 4.13,-0.96 5.46,-2.65 v 0 c 0.27,-0.35 0.21,-0.86 -0.14,-1.13 -0.35,-0.28 -0.86,-0.21 -1.13,0.14 -1.28,1.61 -3.41,2.35 -5.42,1.87 z"
     id="path13523" /><path
     inkscape:connector-curvature="0"
     class="st1"
     d="M 16.99,38.38 C 8.52,38.38 1.62,31.49 1.62,23.01 1.62,14.54 8.51,7.64 16.99,7.64 c 5.63,0 10.55,3.05 13.23,7.58 l 1.39,-0.83 C 28.65,9.39 23.22,6.01 16.99,6.01 7.62,6.03 0,13.65 0,23.01 0,32.38 7.62,40 16.99,40 c 6.24,0 11.69,-3.39 14.65,-8.43 l -1.35,-0.89 c -2.66,4.6 -7.62,7.7 -13.3,7.7 z"
     id="path13525" /><path
     inkscape:connector-curvature="0"
     class="st1"
     d="m 19.2,12.12 c 0.21,0.05 0.43,0.01 0.61,-0.11 0.18,-0.12 0.31,-0.3 0.36,-0.51 0.09,-0.44 -0.18,-0.87 -0.62,-0.96 -2.25,-0.49 -4.59,-0.35 -6.76,0.4 -2.17,0.75 -4.09,2.09 -5.55,3.88 -0.28,0.34 -0.23,0.85 0.12,1.14 0.05,0.04 0.1,0.07 0.15,0.09 0.11,0.06 0.23,0.08 0.35,0.08 0.24,0 0.47,-0.1 0.62,-0.3 1.27,-1.55 2.94,-2.72 4.83,-3.38 1.89,-0.64 3.93,-0.76 5.89,-0.33 z"
     id="path13527" /><path
     inkscape:connector-curvature="0"
     class="st1"
     d="m 17.67,16.25 c 0.43,0.1 0.87,-0.16 0.97,-0.6 0.05,-0.21 0.02,-0.42 -0.09,-0.61 -0.11,-0.19 -0.29,-0.32 -0.5,-0.37 -2.62,-0.63 -5.4,0.33 -7.06,2.46 -0.13,0.17 -0.19,0.38 -0.17,0.6 0.03,0.21 0.13,0.41 0.31,0.54 0.05,0.04 0.1,0.07 0.14,0.09 0.11,0.05 0.23,0.08 0.35,0.08 0.24,0 0.48,-0.11 0.64,-0.31 1.27,-1.62 3.4,-2.36 5.41,-1.88 z"
     id="path13529" /><path
     inkscape:connector-curvature="0"
     class="st1"
     d="m 21.74,23.01 c 0,-2.62 -2.13,-4.76 -4.76,-4.76 -2.63,0 -4.76,2.13 -4.76,4.76 0,2.62 2.13,4.76 4.76,4.76 2.63,0 4.76,-2.13 4.76,-4.76 z m -7.9,0 c 0,-1.73 1.41,-3.14 3.14,-3.14 1.73,0 3.14,1.41 3.14,3.14 0,1.73 -1.41,3.14 -3.14,3.14 -1.73,0 -3.14,-1.4 -3.14,-3.14 z"
     id="path13531" /></g></svg>