<?xml version="1.0" encoding="UTF-8" standalone="no"?>
<!-- Generator: Adobe Illustrator 16.0.0, SVG Export Plug-In . SVG Version: 6.00 Build 0)  -->

<svg
   xmlns:osb="http://www.openswatchbook.org/uri/2009/osb"
   xmlns:dc="http://purl.org/dc/elements/1.1/"
   xmlns:cc="http://creativecommons.org/ns#"
   xmlns:rdf="http://www.w3.org/1999/02/22-rdf-syntax-ns#"
   xmlns:svg="http://www.w3.org/2000/svg"
   xmlns="http://www.w3.org/2000/svg"
   xmlns:sodipodi="http://sodipodi.sourceforge.net/DTD/sodipodi-0.dtd"
   xmlns:inkscape="http://www.inkscape.org/namespaces/inkscape"
   version="1.1"
   id="Capa_1"
   x="0px"
   y="0px"
   width="40"
   height="40"
   viewBox="0 0 40 40"
   xml:space="preserve"
   sodipodi:docname="md-financeiro.svg"
   inkscape:version="0.92.4 (5da689c313, 2019-01-14)"><metadata
   id="metadata5772"><rdf:RDF><cc:Work
       rdf:about=""><dc:format>image/svg+xml</dc:format><dc:type
         rdf:resource="http://purl.org/dc/dcmitype/StillImage" /><dc:title></dc:title></cc:Work></rdf:RDF></metadata><defs
   id="defs5770"><linearGradient
     id="linearGradient7834"
     osb:paint="solid"><stop
       style="stop-color:#000000;stop-opacity:1;"
       offset="0"
       id="stop7832" /></linearGradient><linearGradient
     id="linearGradient7810"
     osb:paint="solid"><stop
       style="stop-color:#ffffff;stop-opacity:1;"
       offset="0"
       id="stop7808" /></linearGradient><linearGradient
     id="linearGradient6356"
     osb:paint="gradient"><stop
       style="stop-color:#ffffff;stop-opacity:1;"
       offset="0"
       id="stop6352" /><stop
       style="stop-color:#ffffff;stop-opacity:0;"
       offset="1"
       id="stop6354" /></linearGradient></defs><sodipodi:namedview
   pagecolor="#ffffff"
   bordercolor="#666666"
   borderopacity="1"
   objecttolerance="10"
   gridtolerance="10"
   guidetolerance="10"
   inkscape:pageopacity="0"
   inkscape:pageshadow="2"
   inkscape:window-width="1360"
   inkscape:window-height="705"
   id="namedview5768"
   showgrid="false"
   inkscape:zoom="9.6682956"
   inkscape:cx="14.837994"
   inkscape:cy="22.612143"
   inkscape:window-x="-8"
   inkscape:window-y="-8"
   inkscape:window-maximized="1"
   inkscape:current-layer="Capa_1" />

<g
   id="g5737"
   transform="translate(0,-236.164)">
</g>
<g
   id="g5739"
   transform="translate(0,-236.164)">
</g>
<g
   id="g5741"
   transform="translate(0,-236.164)">
</g>
<g
   id="g5743"
   transform="translate(0,-236.164)">
</g>
<g
   id="g5745"
   transform="translate(0,-236.164)">
</g>
<g
   id="g5747"
   transform="translate(0,-236.164)">
</g>
<g
   id="g5749"
   transform="translate(0,-236.164)">
</g>
<g
   id="g5751"
   transform="translate(0,-236.164)">
</g>
<g
   id="g5753"
   transform="translate(0,-236.164)">
</g>
<g
   id="g5755"
   transform="translate(0,-236.164)">
</g>
<g
   id="g5757"
   transform="translate(0,-236.164)">
</g>
<g
   id="g5759"
   transform="translate(0,-236.164)">
</g>
<g
   id="g5761"
   transform="translate(0,-236.164)">
</g>
<g
   id="g5763"
   transform="translate(0,-236.164)">
</g>
<g
   id="g5765"
   transform="translate(0,-236.164)">
</g>
<g
   transform="translate(0.06558475,-0.05556115)"
   id="g3797"><path
     inkscape:connector-curvature="0"
     class="st1"
     d="m 26.72,21.57 c 1.23,0 2.23,0.87 2.23,1.93 0,0.56 0.45,1.01 1.01,1.01 0.56,0 1.01,-0.45 1.01,-1.01 0,-1.86 -1.38,-3.42 -3.24,-3.84 v -0.53 c 0,-0.56 -0.45,-1.01 -1.01,-1.01 -0.56,0 -1.01,0.45 -1.01,1.01 v 0.53 c -1.86,0.42 -3.24,1.98 -3.24,3.84 0,2.18 1.91,3.95 4.25,3.95 1.23,0 2.23,0.87 2.23,1.93 0,1.06 -1,1.93 -2.23,1.93 -1.23,0 -2.23,-0.87 -2.23,-1.93 0,-0.56 -0.45,-1.01 -1.01,-1.01 -0.56,0 -1.01,0.45 -1.01,1.01 0,1.86 1.38,3.42 3.24,3.84 v 0.44 c 0,0.56 0.45,1.01 1.01,1.01 0.56,0 1.01,-0.45 1.01,-1.01 v -0.44 c 1.86,-0.42 3.24,-1.98 3.24,-3.84 0,-2.18 -1.91,-3.95 -4.25,-3.95 -1.23,0 -2.23,-0.87 -2.23,-1.93 0,-1.06 1,-1.93 2.23,-1.93 z"
     id="path3793" /><path
     inkscape:connector-curvature="0"
     class="st1"
     d="m 30.27,13.68 c -0.1,-0.23 -0.21,-0.44 -0.35,-0.64 h 2.03 c 1.98,0 3.59,-1.61 3.59,-3.59 0,-1.98 -1.61,-3.59 -3.59,-3.59 H 25.7 c 0.4,-0.58 0.63,-1.28 0.63,-2.03 0,-1.98 -1.61,-3.59 -3.59,-3.59 H 3.59 C 1.61,0.23 0,1.85 0,3.83 0,5.81 1.61,7.42 3.59,7.42 H 9.85 C 9.45,8 9.22,8.7 9.22,9.45 c 0,0.75 0.23,1.45 0.63,2.03 H 7.81 c -1.98,0 -3.59,1.61 -3.59,3.59 0,1.14 0.53,2.15 1.36,2.81 -0.83,0.66 -1.36,1.67 -1.36,2.81 0,1.14 0.53,2.15 1.36,2.81 -0.83,0.66 -1.36,1.67 -1.36,2.81 0,1.14 0.53,2.15 1.36,2.81 -0.83,0.66 -1.36,1.67 -1.36,2.81 0,1.98 1.61,3.59 3.59,3.59 h 9.21 c 2.43,2.59 5.88,4.22 9.7,4.22 C 34.04,39.74 40,33.78 40,26.46 40,20.39 35.87,15.24 30.27,13.68 Z m 1.68,-6.26 c 1.12,0 2.03,0.91 2.03,2.03 0,1.12 -0.91,2.03 -2.03,2.03 h -5 -14.14 c -1.12,0 -2.03,-0.91 -2.03,-2.03 0,-1.12 0.91,-2.03 2.03,-2.03 z M 3.59,5.86 C 2.47,5.86 1.56,4.95 1.56,3.83 1.56,2.71 2.47,1.8 3.59,1.8 h 19.14 c 1.12,0 2.03,0.91 2.03,2.03 0,1.12 -0.91,2.03 -2.03,2.03 H 3.59 Z m 4.22,7.19 h 19.14 c 0.31,0 0.62,0.07 0.89,0.2 -0.37,-0.03 -0.74,-0.05 -1.12,-0.05 -3.67,0 -6.99,1.49 -9.4,3.91 H 7.81 c -1.12,0 -2.03,-0.91 -2.03,-2.03 0,-1.12 0.91,-2.03 2.03,-2.03 z m 0,5.62 h 8.17 c -0.89,1.22 -1.57,2.59 -2.01,4.06 H 7.81 c -1.12,0 -2.03,-0.91 -2.03,-2.03 0,-1.12 0.91,-2.03 2.03,-2.03 z m 0,5.63 h 5.81 c -0.12,0.71 -0.18,1.44 -0.18,2.19 0,0.64 0.05,1.26 0.13,1.87 H 7.81 c -1.12,0 -2.03,-0.91 -2.03,-2.03 0,-1.12 0.91,-2.03 2.03,-2.03 z m 0,9.68 c -1.12,0 -2.03,-0.91 -2.03,-2.03 0,-1.12 0.91,-2.03 2.03,-2.03 h 6.08 c 0.39,1.47 1.03,2.84 1.87,4.06 z M 26.72,38.2 C 20.26,38.2 15,32.95 15,26.48 c 0,-6.47 5.26,-11.72 11.72,-11.72 6.46,0 11.72,5.26 11.72,11.72 0,6.46 -5.26,11.72 -11.72,11.72 z"
     id="path3795" /></g></svg>