<?xml version="1.0" encoding="UTF-8" standalone="no"?>
<!-- Generator: Adobe Illustrator 19.0.0, SVG Export Plug-In . SVG Version: 6.00 Build 0)  -->

<svg
   xmlns:dc="http://purl.org/dc/elements/1.1/"
   xmlns:cc="http://creativecommons.org/ns#"
   xmlns:rdf="http://www.w3.org/1999/02/22-rdf-syntax-ns#"
   xmlns:svg="http://www.w3.org/2000/svg"
   xmlns="http://www.w3.org/2000/svg"
   xmlns:sodipodi="http://sodipodi.sourceforge.net/DTD/sodipodi-0.dtd"
   xmlns:inkscape="http://www.inkscape.org/namespaces/inkscape"
   version="1.1"
   id="Capa_1"
   x="0px"
   y="0px"
   viewBox="0 0 40 40"
   xml:space="preserve"
   sodipodi:docname="md-localizacao.svg"
   width="40"
   height="40"
   inkscape:version="0.92.4 (5da689c313, 2019-01-14)"><metadata
   id="metadata923"><rdf:RDF><cc:Work
       rdf:about=""><dc:format>image/svg+xml</dc:format><dc:type
         rdf:resource="http://purl.org/dc/dcmitype/StillImage" /><dc:title></dc:title></cc:Work></rdf:RDF></metadata><defs
   id="defs921" /><sodipodi:namedview
   pagecolor="#ffffff"
   bordercolor="#666666"
   borderopacity="1"
   objecttolerance="10"
   gridtolerance="10"
   guidetolerance="10"
   inkscape:pageopacity="0"
   inkscape:pageshadow="2"
   inkscape:window-width="1360"
   inkscape:window-height="705"
   id="namedview919"
   showgrid="false"
   inkscape:zoom="8.375"
   inkscape:cx="14.976808"
   inkscape:cy="13.77345"
   inkscape:window-x="-8"
   inkscape:window-y="-8"
   inkscape:window-maximized="1"
   inkscape:current-layer="g1775" />



<g
   id="g888"
   transform="translate(0,-472)">
</g>
<g
   id="g890"
   transform="translate(0,-472)">
</g>
<g
   id="g892"
   transform="translate(0,-472)">
</g>
<g
   id="g894"
   transform="translate(0,-472)">
</g>
<g
   id="g896"
   transform="translate(0,-472)">
</g>
<g
   id="g898"
   transform="translate(0,-472)">
</g>
<g
   id="g900"
   transform="translate(0,-472)">
</g>
<g
   id="g902"
   transform="translate(0,-472)">
</g>
<g
   id="g904"
   transform="translate(0,-472)">
</g>
<g
   id="g906"
   transform="translate(0,-472)">
</g>
<g
   id="g908"
   transform="translate(0,-472)">
</g>
<g
   id="g910"
   transform="translate(0,-472)">
</g>
<g
   id="g912"
   transform="translate(0,-472)">
</g>
<g
   id="g914"
   transform="translate(0,-472)">
</g>
<g
   id="g916"
   transform="translate(0,-472)">
</g>
<g
   transform="matrix(0.07295929,0,0,0.07295929,10.21022,26.036774)"
   id="g1775"><g
     transform="matrix(1.0635391,0,0,1.0635391,-118.7082,-338.45217)"
     id="g2430"><g
       id="g2428"><g
         id="g2426"><path
           inkscape:connector-curvature="0"
           d="M 240,0 C 142.798,0 64,78.798 64,176 c 0,94.576 162.896,292.712 169.832,301.096 1.52,1.839 3.782,2.904 6.168,2.904 2.386,0 4.648,-1.065 6.168,-2.904 C 253.104,468.712 416,270.576 416,176 416,78.798 337.202,0 240,0 Z m 0,459.288 C 209.896,421.712 80,254.976 80,176 80.101,87.676 151.677,16.101 240,16 c 88.324,0.101 159.899,71.676 160,160 0,78.96 -129.896,245.704 -160,283.288 z"
           id="path2422" /><path
           inkscape:connector-curvature="0"
           d="m 348.88,145.664 -104,-80 c -2.877,-2.214 -6.883,-2.214 -9.76,0 l -104,80 c -3.499,2.697 -4.149,7.721 -1.452,11.22 1.514,1.964 3.852,3.115 6.332,3.116 h 24 v 88 c 0,4.418 3.582,8 8,8 h 144 c 4.418,0 8,-3.582 8,-8 v -88 h 24 c 4.418,-0.002 7.998,-3.586 7.996,-8.004 -10e-4,-2.48 -1.152,-4.818 -3.116,-6.332 z M 256,240 h -32 v -48 h 32 z m 56,-96 c -4.418,0 -8,3.582 -8,8 v 88 h -32 v -56 c 0,-4.418 -3.582,-8 -8,-8 h -48 c -4.418,0 -8,3.582 -8,8 v 56 h -32 v -88 c 0,-4.418 -3.582,-8 -8,-8 h -8.48 L 240,82.096 320.48,144 Z"
           id="path2424" /></g></g></g></g></svg>