<?xml version="1.0" encoding="UTF-8" standalone="no"?>
<!-- Generator: Adobe Illustrator 16.0.0, SVG Export Plug-In . SVG Version: 6.00 Build 0)  -->

<svg
   xmlns:osb="http://www.openswatchbook.org/uri/2009/osb"
   xmlns:dc="http://purl.org/dc/elements/1.1/"
   xmlns:cc="http://creativecommons.org/ns#"
   xmlns:rdf="http://www.w3.org/1999/02/22-rdf-syntax-ns#"
   xmlns:svg="http://www.w3.org/2000/svg"
   xmlns="http://www.w3.org/2000/svg"
   xmlns:sodipodi="http://sodipodi.sourceforge.net/DTD/sodipodi-0.dtd"
   xmlns:inkscape="http://www.inkscape.org/namespaces/inkscape"
   version="1.1"
   id="Capa_1"
   x="0px"
   y="0px"
   width="40"
   height="40"
   viewBox="0 0 40 40"
   xml:space="preserve"
   sodipodi:docname="md-poutpourri.svg"
   inkscape:version="0.92.4 (5da689c313, 2019-01-14)"><metadata
   id="metadata5772"><rdf:RDF><cc:Work
       rdf:about=""><dc:format>image/svg+xml</dc:format><dc:type
         rdf:resource="http://purl.org/dc/dcmitype/StillImage" /><dc:title></dc:title></cc:Work></rdf:RDF></metadata><defs
   id="defs5770"><linearGradient
     id="linearGradient7834"
     osb:paint="solid"><stop
       style="stop-color:#000000;stop-opacity:1;"
       offset="0"
       id="stop7832" /></linearGradient><linearGradient
     id="linearGradient7810"
     osb:paint="solid"><stop
       style="stop-color:#ffffff;stop-opacity:1;"
       offset="0"
       id="stop7808" /></linearGradient><linearGradient
     id="linearGradient6356"
     osb:paint="gradient"><stop
       style="stop-color:#ffffff;stop-opacity:1;"
       offset="0"
       id="stop6352" /><stop
       style="stop-color:#ffffff;stop-opacity:0;"
       offset="1"
       id="stop6354" /></linearGradient></defs><sodipodi:namedview
   pagecolor="#ffffff"
   bordercolor="#666666"
   borderopacity="1"
   objecttolerance="10"
   gridtolerance="10"
   guidetolerance="10"
   inkscape:pageopacity="0"
   inkscape:pageshadow="2"
   inkscape:window-width="1360"
   inkscape:window-height="705"
   id="namedview5768"
   showgrid="false"
   inkscape:zoom="9.6682956"
   inkscape:cx="13.286531"
   inkscape:cy="20.876476"
   inkscape:window-x="-8"
   inkscape:window-y="-8"
   inkscape:window-maximized="1"
   inkscape:current-layer="Capa_1" />

<g
   id="g5737"
   transform="translate(0,-236.164)">
</g>
<g
   id="g5739"
   transform="translate(0,-236.164)">
</g>
<g
   id="g5741"
   transform="translate(0,-236.164)">
</g>
<g
   id="g5743"
   transform="translate(0,-236.164)">
</g>
<g
   id="g5745"
   transform="translate(0,-236.164)">
</g>
<g
   id="g5747"
   transform="translate(0,-236.164)">
</g>
<g
   id="g5749"
   transform="translate(0,-236.164)">
</g>
<g
   id="g5751"
   transform="translate(0,-236.164)">
</g>
<g
   id="g5753"
   transform="translate(0,-236.164)">
</g>
<g
   id="g5755"
   transform="translate(0,-236.164)">
</g>
<g
   id="g5757"
   transform="translate(0,-236.164)">
</g>
<g
   id="g5759"
   transform="translate(0,-236.164)">
</g>
<g
   id="g5761"
   transform="translate(0,-236.164)">
</g>
<g
   id="g5763"
   transform="translate(0,-236.164)">
</g>
<g
   id="g5765"
   transform="translate(0,-236.164)">
</g>
<g
   id="g7502"
   transform="translate(0.06058462,0.03784687)"><path
     inkscape:connector-curvature="0"
     class="st1"
     d="M 33.07,0 H 11.71 C 10.02,0 8.4,0.62 7.13,1.73 L 6.61,2.19 h 4.73 c 0.12,-0.01 0.24,-0.01 0.37,-0.01 h 21.36 c 2.62,0 4.76,2.13 4.76,4.76 V 28.3 c 0,0.14 -0.01,0.28 -0.02,0.44 v 4.66 l 0.46,-0.52 c 1.12,-1.27 1.74,-2.9 1.74,-4.58 V 6.93 C 40,3.11 36.89,0 33.07,0 Z"
     id="path7496" /><path
     inkscape:connector-curvature="0"
     class="st1"
     d="M 26.33,10.23 C 26.09,10.06 25.79,10.01 25.52,10.1 l -13.11,4.17 c -0.38,0.12 -0.63,0.47 -0.63,0.87 V 28.2 c -0.5,-0.27 -1.07,-0.42 -1.65,-0.42 -1.91,0 -3.47,1.56 -3.47,3.47 0,1.91 1.56,3.47 3.47,3.47 1.91,0 3.47,-1.56 3.47,-3.47 V 20.21 l 11.29,-3.59 v 6.05 c -0.5,-0.27 -1.07,-0.42 -1.65,-0.42 -1.91,0 -3.47,1.56 -3.47,3.47 0,1.91 1.56,3.47 3.47,3.47 1.91,0 3.47,-1.56 3.47,-3.48 V 10.97 c 0,-0.29 -0.14,-0.56 -0.38,-0.74 z m -12.74,8.06 v -2.5 L 24.88,12.2 v 2.5 z m 9.64,9.11 c -0.92,0 -1.67,-0.75 -1.67,-1.67 0,-0.92 0.75,-1.67 1.67,-1.67 0.92,0 1.67,0.75 1.67,1.67 0.01,0.92 -0.74,1.67 -1.67,1.67 z m -11.44,3.85 c 0,0.92 -0.75,1.67 -1.67,1.67 -0.92,0 -1.67,-0.75 -1.67,-1.67 0,-0.92 0.75,-1.67 1.67,-1.67 0.92,-0.01 1.67,0.74 1.67,1.67 z"
     id="path7498" /><path
     inkscape:connector-curvature="0"
     class="st1"
     d="M 29.31,4.78 H 5.91 C 2.65,4.78 0,7.43 0,10.69 V 34.1 C 0,37.35 2.65,40 5.91,40 h 23.41 c 3.26,0 5.91,-2.65 5.91,-5.91 V 10.69 C 35.22,7.43 32.57,4.78 29.31,4.78 Z m 3.74,5.91 V 34.1 c 0,2.06 -1.67,3.73 -3.73,3.73 H 5.91 C 3.85,37.83 2.18,36.16 2.18,34.1 V 10.69 c 0,-2.06 1.67,-3.73 3.73,-3.73 h 23.41 c 2.05,-0.01 3.73,1.67 3.73,3.73 z"
     id="path7500" /></g></svg>