<?xml version="1.0" encoding="UTF-8" standalone="no"?>
<!-- Generator: Adobe Illustrator 19.0.0, SVG Export Plug-In . SVG Version: 6.00 Build 0)  -->

<svg
   xmlns:dc="http://purl.org/dc/elements/1.1/"
   xmlns:cc="http://creativecommons.org/ns#"
   xmlns:rdf="http://www.w3.org/1999/02/22-rdf-syntax-ns#"
   xmlns:svg="http://www.w3.org/2000/svg"
   xmlns="http://www.w3.org/2000/svg"
   xmlns:sodipodi="http://sodipodi.sourceforge.net/DTD/sodipodi-0.dtd"
   xmlns:inkscape="http://www.inkscape.org/namespaces/inkscape"
   version="1.1"
   id="Capa_1"
   x="0px"
   y="0px"
   viewBox="0 0 40 40"
   xml:space="preserve"
   sodipodi:docname="md-phone.svg"
   width="40"
   height="40"
   inkscape:version="0.92.4 (5da689c313, 2019-01-14)"><metadata
   id="metadata923"><rdf:RDF><cc:Work
       rdf:about=""><dc:format>image/svg+xml</dc:format><dc:type
         rdf:resource="http://purl.org/dc/dcmitype/StillImage" /><dc:title></dc:title></cc:Work></rdf:RDF></metadata><defs
   id="defs921" /><sodipodi:namedview
   pagecolor="#ffffff"
   bordercolor="#666666"
   borderopacity="1"
   objecttolerance="10"
   gridtolerance="10"
   guidetolerance="10"
   inkscape:pageopacity="0"
   inkscape:pageshadow="2"
   inkscape:window-width="1360"
   inkscape:window-height="705"
   id="namedview919"
   showgrid="false"
   inkscape:zoom="4.1875"
   inkscape:cx="46.987082"
   inkscape:cy="26.033678"
   inkscape:window-x="-8"
   inkscape:window-y="-8"
   inkscape:window-maximized="1"
   inkscape:current-layer="g1775" />



<g
   id="g888"
   transform="translate(0,-472)">
</g>
<g
   id="g890"
   transform="translate(0,-472)">
</g>
<g
   id="g892"
   transform="translate(0,-472)">
</g>
<g
   id="g894"
   transform="translate(0,-472)">
</g>
<g
   id="g896"
   transform="translate(0,-472)">
</g>
<g
   id="g898"
   transform="translate(0,-472)">
</g>
<g
   id="g900"
   transform="translate(0,-472)">
</g>
<g
   id="g902"
   transform="translate(0,-472)">
</g>
<g
   id="g904"
   transform="translate(0,-472)">
</g>
<g
   id="g906"
   transform="translate(0,-472)">
</g>
<g
   id="g908"
   transform="translate(0,-472)">
</g>
<g
   id="g910"
   transform="translate(0,-472)">
</g>
<g
   id="g912"
   transform="translate(0,-472)">
</g>
<g
   id="g914"
   transform="translate(0,-472)">
</g>
<g
   id="g916"
   transform="translate(0,-472)">
</g>
<g
   transform="matrix(0.07295929,0,0,0.07295929,10.21022,26.036774)"
   id="g1775"><path
     inkscape:connector-curvature="0"
     d="M -21.384074,9.7757382 C 30.089979,71.306695 92.053491,119.75286 162.77624,154.03285 c 26.92656,12.76037 62.93676,27.8998 103.05625,30.49513 2.48719,0.10814 4.86624,0.21628 7.35343,0.21628 26.92655,0 48.55431,-9.29993 66.18093,-28.4405 0.10814,-0.10813 0.32441,-0.32441 0.43255,-0.54069 6.27205,-7.56971 13.40921,-14.38245 20.87078,-21.62775 5.08253,-4.86625 10.27319,-9.94877 15.24757,-15.13943 23.03356,-24.006805 23.03356,-54.501937 -0.21628,-77.751771 l -64.9914,-64.991398 c -11.03015,-11.462709 -24.22308,-17.51848 -38.06484,-17.51848 -13.84176,0 -27.14283,6.055771 -38.4974,17.410341 L 195.43415,14.85826 C 191.86557,12.803624 188.18885,10.965265 184.72841,9.2350444 180.40286,7.0722691 176.40173,5.0176325 172.83315,2.7467185 137.57991,-19.638006 105.57084,-48.835472 74.967566,-86.359624 59.503723,-105.93274 49.122401,-122.36983 41.877104,-139.13134 c 10.165044,-9.1918 19.681255,-18.81615 28.87305,-28.22422 3.244163,-3.3523 6.596465,-6.7046 9.948767,-10.0569 11.678986,-11.67899 17.951035,-25.19634 17.951035,-38.92996 0,-13.73362 -6.16391,-27.25097 -17.951035,-38.92995 l -32.225352,-32.22536 c -3.784857,-3.78485 -7.353436,-7.46157 -11.030154,-11.24643 -7.137159,-7.35343 -14.598734,-14.92315 -21.95217,-21.73589 -11.1382925,-10.92202 -24.223083,-16.65337 -38.064845,-16.65337 -13.733623,0 -26.926552,5.73135 -38.4974,16.76151 l -40.4439,40.4439 c -14.70687,14.70687 -23.03356,32.54976 -24.76378,53.20427 -2.05463,25.84516 2.70347,53.31241 15.03129,86.51101 18.924287,51.365914 47.472921,99.05511 89.863316,149.9884682 z M -99.892817,-224.45283 c 1.297665,-14.38245 6.812742,-26.38586 17.194064,-36.76718 l 40.22762,-40.22762 c 6.272049,-6.05577 13.19293,-9.19179 19.897533,-9.19179 6.596465,0 13.3010681,3.13602 19.4649777,9.40807 7.2452973,6.7046 14.0580393,13.73362 21.4114753,21.1952 3.676718,3.78485 7.461575,7.56971 11.246432,11.46271 l 32.225352,32.22535 c 6.704603,6.7046 10.165044,13.51734 10.165044,20.22195 0,6.7046 -3.460441,13.51734 -10.165044,20.22195 -3.352302,3.3523 -6.704604,6.81274 -10.056905,10.16504 -10.056906,10.16504 -19.464978,19.7894 -29.8463,28.98119 -0.216277,0.21628 -0.324416,0.32442 -0.540693,0.54069 -8.975518,8.97552 -7.569714,17.51848 -5.406939,24.00681 0.108139,0.32442 0.216278,0.54069 0.324417,0.86511 8.326685,20.00567 19.897532,39.038094 37.956706,61.747235 32.44163,40.011343 66.613477,71.0471683 104.245767,94.945835 4.64997,3.027886 9.62435,5.406939 14.27432,7.785992 4.32555,2.162775 8.32668,4.217411 11.89526,6.488325 0.43256,0.216278 0.75698,0.432555 1.18953,0.648833 3.56858,1.838359 7.02902,2.703469 10.48946,2.703469 8.6511,0 14.27432,-5.515077 16.11268,-7.353436 l 40.44389,-40.4438981 c 6.27205,-6.2720479 13.0848,-9.6243499 19.7894,-9.6243499 8.21854,0 14.92315,5.0825218 19.14056,9.6243499 l 65.20768,65.0995361 c 12.97665,12.976652 12.86851,27.034692 -0.32442,40.768319 -4.54183,4.86624 -9.29993,9.51621 -14.38246,14.38245 -7.56971,7.35344 -15.46384,14.92315 -22.601,23.46611 -12.43596,13.40921 -27.25097,19.68126 -46.39153,19.68126 -1.83836,0 -3.78486,-0.10814 -5.62321,-0.21628 -35.46952,-2.27091 -68.45184,-16.11267 -93.21562,-27.8998 C 107.19292,97.908832 48.149152,51.733579 -0.8377082,-6.8776316 -41.173468,-55.431937 -68.316298,-100.63394 -86.267333,-149.08011 c -11.138292,-29.73816 -15.355707,-53.63683 -13.625484,-75.37272 z"
     id="path1773"
     style="stroke-width:1.08138764" /></g></svg>