<?xml version="1.0" encoding="UTF-8" standalone="no"?>
<!-- Generator: Adobe Illustrator 16.0.0, SVG Export Plug-In . SVG Version: 6.00 Build 0)  -->

<svg
   xmlns:osb="http://www.openswatchbook.org/uri/2009/osb"
   xmlns:dc="http://purl.org/dc/elements/1.1/"
   xmlns:cc="http://creativecommons.org/ns#"
   xmlns:rdf="http://www.w3.org/1999/02/22-rdf-syntax-ns#"
   xmlns:svg="http://www.w3.org/2000/svg"
   xmlns="http://www.w3.org/2000/svg"
   xmlns:sodipodi="http://sodipodi.sourceforge.net/DTD/sodipodi-0.dtd"
   xmlns:inkscape="http://www.inkscape.org/namespaces/inkscape"
   version="1.1"
   id="Capa_1"
   x="0px"
   y="0px"
   width="40"
   height="40"
   viewBox="0 0 40 40"
   xml:space="preserve"
   sodipodi:docname="md-repertorio.svg"
   inkscape:version="0.92.4 (5da689c313, 2019-01-14)"><metadata
   id="metadata5772"><rdf:RDF><cc:Work
       rdf:about=""><dc:format>image/svg+xml</dc:format><dc:type
         rdf:resource="http://purl.org/dc/dcmitype/StillImage" /><dc:title></dc:title></cc:Work></rdf:RDF></metadata><defs
   id="defs5770"><linearGradient
     id="linearGradient7834"
     osb:paint="solid"><stop
       style="stop-color:#000000;stop-opacity:1;"
       offset="0"
       id="stop7832" /></linearGradient><linearGradient
     id="linearGradient7810"
     osb:paint="solid"><stop
       style="stop-color:#ffffff;stop-opacity:1;"
       offset="0"
       id="stop7808" /></linearGradient><linearGradient
     id="linearGradient6356"
     osb:paint="gradient"><stop
       style="stop-color:#ffffff;stop-opacity:1;"
       offset="0"
       id="stop6352" /><stop
       style="stop-color:#ffffff;stop-opacity:0;"
       offset="1"
       id="stop6354" /></linearGradient></defs><sodipodi:namedview
   pagecolor="#ffffff"
   bordercolor="#666666"
   borderopacity="1"
   objecttolerance="10"
   gridtolerance="10"
   guidetolerance="10"
   inkscape:pageopacity="0"
   inkscape:pageshadow="2"
   inkscape:window-width="1360"
   inkscape:window-height="705"
   id="namedview5768"
   showgrid="false"
   inkscape:zoom="9.6682956"
   inkscape:cx="14.837994"
   inkscape:cy="22.612143"
   inkscape:window-x="-8"
   inkscape:window-y="-8"
   inkscape:window-maximized="1"
   inkscape:current-layer="Capa_1" />

<g
   id="g5737"
   transform="translate(0,-236.164)">
</g>
<g
   id="g5739"
   transform="translate(0,-236.164)">
</g>
<g
   id="g5741"
   transform="translate(0,-236.164)">
</g>
<g
   id="g5743"
   transform="translate(0,-236.164)">
</g>
<g
   id="g5745"
   transform="translate(0,-236.164)">
</g>
<g
   id="g5747"
   transform="translate(0,-236.164)">
</g>
<g
   id="g5749"
   transform="translate(0,-236.164)">
</g>
<g
   id="g5751"
   transform="translate(0,-236.164)">
</g>
<g
   id="g5753"
   transform="translate(0,-236.164)">
</g>
<g
   id="g5755"
   transform="translate(0,-236.164)">
</g>
<g
   id="g5757"
   transform="translate(0,-236.164)">
</g>
<g
   id="g5759"
   transform="translate(0,-236.164)">
</g>
<g
   id="g5761"
   transform="translate(0,-236.164)">
</g>
<g
   id="g5763"
   transform="translate(0,-236.164)">
</g>
<g
   id="g5765"
   transform="translate(0,-236.164)">
</g>
<path
   inkscape:connector-curvature="0"
   class="st1"
   d="m 38.930971,34.088211 -9.955949,-9.965845 c 1.593348,-2.493935 2.434556,-5.36394 2.434556,-8.342808 -0.0099,-8.560531 -6.977081,-15.52771575 -15.537613,-15.52771575 -8.560533,0 -15.53761399,6.96718475 -15.53761399,15.53761275 0,8.570429 6.96718499,15.537614 15.53761399,15.537614 2.96897,0 5.848872,-0.841209 8.342807,-2.434556 l 9.955949,9.955948 c 0.63338,0.633381 1.484485,0.989657 2.385073,0.989657 0.900588,0 1.741796,-0.34638 2.385073,-0.989657 0.633381,-0.63338 0.989657,-1.484485 0.989657,-2.385073 0,-0.900588 -0.356276,-1.741796 -0.999553,-2.375177 z M 15.871965,2.4290875 c 7.363047,0 13.360368,5.9973209 13.360368,13.3603675 0,2.830419 -0.880795,5.542079 -2.543418,7.828186 -0.831312,1.148002 -1.840762,2.147556 -2.978868,2.978867 v 0 c -2.286107,1.662624 -4.997767,2.543419 -7.828186,2.543419 -7.363047,0 -13.360368,-5.997321 -13.360368,-13.360369 C 2.511593,8.4165118 8.49902,2.4290875 15.871965,2.4290875 Z M 37.743382,36.473284 c 0,0.316691 -0.128655,0.613588 -0.34638,0.841209 v 0 c -0.455242,0.455242 -1.237071,0.445345 -1.682416,0 l -9.738224,-9.738224 c 0.60369,-0.514622 1.167795,-1.078726 1.682416,-1.682417 l 9.738224,9.738224 c 0.227622,0.217725 0.34638,0.514622 0.34638,0.841208 z"
   id="path1010"
   style="opacity:1;fill-opacity:1;fill-rule:nonzero;stroke:none;stroke-width:0.98965693;stroke-opacity:1" /></svg>