<?xml version="1.0" encoding="UTF-8" standalone="no"?>
<!-- Generator: Adobe Illustrator 16.0.0, SVG Export Plug-In . SVG Version: 6.00 Build 0)  -->

<svg
   xmlns:osb="http://www.openswatchbook.org/uri/2009/osb"
   xmlns:dc="http://purl.org/dc/elements/1.1/"
   xmlns:cc="http://creativecommons.org/ns#"
   xmlns:rdf="http://www.w3.org/1999/02/22-rdf-syntax-ns#"
   xmlns:svg="http://www.w3.org/2000/svg"
   xmlns="http://www.w3.org/2000/svg"
   xmlns:sodipodi="http://sodipodi.sourceforge.net/DTD/sodipodi-0.dtd"
   xmlns:inkscape="http://www.inkscape.org/namespaces/inkscape"
   version="1.1"
   id="Capa_1"
   x="0px"
   y="0px"
   width="40"
   height="40"
   viewBox="0 0 40 40"
   xml:space="preserve"
   sodipodi:docname="md-subtituloobra.svg"
   inkscape:version="0.92.4 (5da689c313, 2019-01-14)"><metadata
   id="metadata5772"><rdf:RDF><cc:Work
       rdf:about=""><dc:format>image/svg+xml</dc:format><dc:type
         rdf:resource="http://purl.org/dc/dcmitype/StillImage" /><dc:title></dc:title></cc:Work></rdf:RDF></metadata><defs
   id="defs5770"><linearGradient
     id="linearGradient7834"
     osb:paint="solid"><stop
       style="stop-color:#000000;stop-opacity:1;"
       offset="0"
       id="stop7832" /></linearGradient><linearGradient
     id="linearGradient7810"
     osb:paint="solid"><stop
       style="stop-color:#ffffff;stop-opacity:1;"
       offset="0"
       id="stop7808" /></linearGradient><linearGradient
     id="linearGradient6356"
     osb:paint="gradient"><stop
       style="stop-color:#ffffff;stop-opacity:1;"
       offset="0"
       id="stop6352" /><stop
       style="stop-color:#ffffff;stop-opacity:0;"
       offset="1"
       id="stop6354" /></linearGradient></defs><sodipodi:namedview
   pagecolor="#ffffff"
   bordercolor="#666666"
   borderopacity="1"
   objecttolerance="10"
   gridtolerance="10"
   guidetolerance="10"
   inkscape:pageopacity="0"
   inkscape:pageshadow="2"
   inkscape:window-width="1360"
   inkscape:window-height="705"
   id="namedview5768"
   showgrid="false"
   inkscape:zoom="9.6682956"
   inkscape:cx="13.035504"
   inkscape:cy="20.876476"
   inkscape:window-x="-8"
   inkscape:window-y="-8"
   inkscape:window-maximized="1"
   inkscape:current-layer="Capa_1" />

<g
   id="g5737"
   transform="translate(0,-236.164)">
</g>
<g
   id="g5739"
   transform="translate(0,-236.164)">
</g>
<g
   id="g5741"
   transform="translate(0,-236.164)">
</g>
<g
   id="g5743"
   transform="translate(0,-236.164)">
</g>
<g
   id="g5745"
   transform="translate(0,-236.164)">
</g>
<g
   id="g5747"
   transform="translate(0,-236.164)">
</g>
<g
   id="g5749"
   transform="translate(0,-236.164)">
</g>
<g
   id="g5751"
   transform="translate(0,-236.164)">
</g>
<g
   id="g5753"
   transform="translate(0,-236.164)">
</g>
<g
   id="g5755"
   transform="translate(0,-236.164)">
</g>
<g
   id="g5757"
   transform="translate(0,-236.164)">
</g>
<g
   id="g5759"
   transform="translate(0,-236.164)">
</g>
<g
   id="g5761"
   transform="translate(0,-236.164)">
</g>
<g
   id="g5763"
   transform="translate(0,-236.164)">
</g>
<g
   id="g5765"
   transform="translate(0,-236.164)">
</g>
<g
   transform="translate(0.0655838,-0.68616897)"
   id="g9166"><path
     inkscape:connector-curvature="0"
     class="st1"
     d="M 22.4,9.21 C 22.4,8.93 22.26,8.66 22.04,8.49 21.81,8.32 21.51,8.28 21.25,8.36 L 6.41,13.07 C 6.04,13.19 5.79,13.53 5.79,13.92 V 28.94 C 5.19,28.56 4.5,28.36 3.78,28.36 1.7,28.36 0,30.06 0,32.14 c 0,2.08 1.7,3.79 3.78,3.79 2.08,0 3.79,-1.7 3.79,-3.79 V 19.55 L 20.63,15.4 v 7.29 c -0.6,-0.38 -1.29,-0.58 -2.01,-0.58 -2.09,0 -3.78,1.7 -3.78,3.79 0,2.09 1.7,3.79 3.78,3.79 2.08,0 3.79,-1.7 3.79,-3.79 v -12.7 0 -3.99 z M 7.57,17.69 v -3.13 l 13.06,-4.15 v 3.13 z m 13.08,8.21 c 0,1.12 -0.91,2.04 -2.04,2.04 -1.13,0 -2.04,-0.91 -2.04,-2.04 0,-1.12 0.91,-2.04 2.04,-2.04 1.13,0 2.04,0.92 2.04,2.04 z M 5.82,32.14 c 0,1.12 -0.91,2.04 -2.04,2.04 -1.13,0 -2.04,-0.91 -2.04,-2.04 0,-1.12 0.91,-2.04 2.04,-2.04 1.13,0 2.04,0.92 2.04,2.04 z"
     id="path9158" /><rect
     x="25.26"
     y="10"
     class="st1"
     width="14.74"
     height="2.4300001"
     id="rect9160" /><rect
     x="25.26"
     y="15.93"
     class="st1"
     width="14.74"
     height="2.4300001"
     id="rect9162" /><rect
     x="25.26"
     y="4.0700002"
     class="st1"
     width="14.74"
     height="2.4300001"
     id="rect9164" /></g></svg>