<?xml version="1.0" encoding="utf-8"?>
<!-- Generator: Adobe Illustrator 23.1.0, SVG Export Plug-In . SVG Version: 6.00 Build 0)  -->
<svg version="1.1" id="Camada_1" xmlns="http://www.w3.org/2000/svg" xmlns:xlink="http://www.w3.org/1999/xlink" x="0px" y="0px"
	 viewBox="0 0 40 40" style="enable-background:new 0 0 40 40;" xml:space="preserve">
<style type="text/css">
	.st0{fill:#FFFFFF;}
</style>
<g>
	<path class="st0" d="M39.8,3.9c-0.2-0.2-0.4-0.2-0.6-0.2c-0.4,0-0.8,0.4-0.8,0.8v27.9c0,3.1-2.5,5.6-5.6,5.6H7.2
		c-3.1,0-5.6-2.5-5.6-5.6V2.1h31.2v27.3c0,0.4,0.4,0.8,0.8,0.8c0.4,0,0.8-0.4,0.8-0.8V1.3c0-0.4-0.4-0.8-0.8-0.8H0.8
		C0.4,0.5,0,0.8,0,1.3v31.1c0,4,3.2,7.2,7.2,7.2h25.6c4,0,7.2-3.2,7.2-7.2V4.5C40,4.3,39.9,4.1,39.8,3.9z"/>
	<path class="st0" d="M28.6,8.1c0.4,0,0.8-0.4,0.8-0.8c0-0.4-0.4-0.8-0.8-0.8H5.7c-0.4,0-0.8,0.4-0.8,0.8c0,0.4,0.4,0.8,0.8,0.8
		H28.6z"/>
	<path class="st0" d="M5.7,29.5h22.9c0.4,0,0.8-0.4,0.8-0.8s-0.4-0.8-0.8-0.8H5.7c-0.4,0-0.8,0.4-0.8,0.8S5.2,29.5,5.7,29.5z"/>
	<path class="st0" d="M9.3,34.9h19.3c0.4,0,0.8-0.4,0.8-0.8c0-0.4-0.4-0.8-0.8-0.8H9.3c-0.4,0-0.8,0.4-0.8,0.8
		C8.5,34.5,8.9,34.9,9.3,34.9z"/>
	<path class="st0" d="M4.5,12v11.4c0,0.4,0.4,0.8,0.8,0.8h11.4c0.4,0,0.8-0.4,0.8-0.8V12c0-0.4-0.4-0.8-0.8-0.8H5.3
		C4.9,11.2,4.5,11.6,4.5,12z M6.1,12.8h9.8v9.8H6.1V12.8z"/>
	<path class="st0" d="M29.1,12.3h-7.5c-0.4,0-0.8,0.4-0.8,0.8s0.4,0.8,0.8,0.8h7.5c0.4,0,0.8-0.4,0.8-0.8S29.5,12.3,29.1,12.3z"/>
	<path class="st0" d="M29.1,17h-7.5c-0.4,0-0.8,0.4-0.8,0.8s0.4,0.8,0.8,0.8h7.5c0.4,0,0.8-0.4,0.8-0.8S29.5,17,29.1,17z"/>
	<path class="st0" d="M29.9,22.9c0-0.4-0.4-0.8-0.8-0.8h-7.5c-0.4,0-0.8,0.4-0.8,0.8s0.4,0.8,0.8,0.8h7.5
		C29.5,23.7,29.9,23.3,29.9,22.9z"/>
</g>
</svg>
