<?xml version="1.0" encoding="utf-8"?>
<!-- Generator: Adobe Illustrator 23.1.0, SVG Export Plug-In . SVG Version: 6.00 Build 0)  -->
<svg version="1.1" id="Camada_1" xmlns="http://www.w3.org/2000/svg" xmlns:xlink="http://www.w3.org/1999/xlink" x="0px" y="0px"
	 viewBox="0 0 160 40" style="enable-background:new 0 0 160 40;" xml:space="preserve">
<style type="text/css">
	.st0{fill:#FFFFFF;}
</style>
<g>
	<path class="st0" d="M133.42,28.07h-7.1v-0.01c-1.86-0.17-3.31-1.71-3.36-3.59h0V13.2h-3.97v1.04v2.14v3.07v0.1v5.21
		c0,4.3,4.12,7.78,9.19,7.78c5.07,0,9.19-3.48,9.19-7.78v-5.21v-0.1v-3.07v-2.14V13.2h-3.95V28.07z"/>
	<path class="st0" d="M18.73,21.84l-0.03-0.21c0-5.17-3.66-8.2-9.24-8.2C4.12,13.43,0,15.85,0,23.05c0,6.88,4.28,9.6,9.45,9.47
		c1.74-0.05,3.77-0.28,5.29-1.18v1.19h4c0,0-0.01-5.86-0.02-8.97V21.84z M14.75,21.68v3.04v3.67h-3.67h0H7.8
		c-2.03,0-3.67-1.64-3.67-3.67v-0.55v-2.96v-3.67h6.97v0c2.02,0.01,3.65,1.65,3.65,3.67V21.68z"/>
	<path class="st0" d="M31.95,13.42c-1.74,0.04-3.77,0.27-5.3,1.18v-0.05c-0.09,0.05-0.19,0.11-0.28,0.17V7.47h-3.71v25.06h3.71
		v-1.37c1.5,0.88,3.39,1.34,5.58,1.34c5.33,0,9.45-2.41,9.45-9.61C41.41,16,37.13,13.29,31.95,13.42z M37.25,28.39h-6.92v-0.02
		c-1.94-0.01-3.53-1.52-3.67-3.43h-0.01v-7.38h6.79c0.04,0,0.07,0,0.11,0c1.96,0,3.56,1.52,3.69,3.45h0.01V28.39z"/>
	<path class="st0" d="M54.38,13.56H52.6c-4.31,0-7.8,3.58-7.8,7.99v3.49v1.46v6.03h2.11h0.52h0.76h0.38V17.61h6.83v0.02
		c0.63,0.06,1.22,0.28,1.71,0.61v-4.29c-0.36-0.1-0.74-0.17-1.12-0.22C55.48,13.62,54.94,13.56,54.38,13.56z"/>
	<path class="st0" d="M113.26,16.55h-0.03c-1.22-1.52-3-2.57-5.04-2.82c-0.51-0.11-1.05-0.17-1.6-0.17h-1.79
		c-2.46,0-4.65,1.17-6.07,2.99l-0.21,0.23l-0.17-0.23c-1.22-1.52-3-2.57-5.04-2.82c-0.52-0.11-1.06-0.17-1.61-0.17h-1.78
		c-4.3,0-7.79,3.58-7.79,7.99v10.98h3.77V17.61h6.83v0.02c1.86,0.17,3.31,1.7,3.35,3.59h0.01v11.31h0.03h4.7h0.01V17.61h6.83v0.02
		c1.86,0.17,3.31,1.7,3.36,3.59v11.31h3.85V20.48c-0.16-1.46-0.73-2.8-1.59-3.89V16.55z"/>
	<path class="st0" d="M156.68,20.76l-0.54-0.02h-0.49h-6.63h-3.86V16.8h11.31v2.34l3.31-1c0.12-0.37,0.19-0.76,0.19-1.18
		c0-1.9-1.44-3.47-3.29-3.68l-0.27-0.02h-11.24v0.01c-1.83,0.08-3.31,1.49-3.5,3.28l-0.02,0.27v4.22l0.05,0.55
		c0.27,1.71,1.71,3.02,3.47,3.11v0.01h0.17h0h7.25h3.89v4.28h-3.89h-4.08h-4.04v-2.32l-3.11,0.87c-0.15,0.4-0.23,0.83-0.23,1.28
		c0,2.04,1.66,3.7,3.7,3.7c0.11,0,11.59-0.01,11.59-0.01l0.27-0.02c1.63-0.18,2.95-1.42,3.23-3.02l0.09-0.82v-3.68l-0.03-0.55
		C159.97,22.53,158.53,20.97,156.68,20.76z"/>
	<path class="st0" d="M78.27,21.84l-0.03-0.21c0-5.17-3.66-8.2-9.24-8.2c-5.34,0-9.45,2.42-9.45,9.62c0,6.88,4.28,9.6,9.45,9.47
		c1.74-0.05,3.77-0.28,5.29-1.18v1.19h4c0,0-0.01-5.86-0.02-8.97V21.84z M74.29,21.68v3.04v3.67h-3.67h0h-3.28
		c-2.03,0-3.67-1.64-3.67-3.67v-0.55v-2.96v-3.67h6.97v0c2.02,0.01,3.65,1.65,3.65,3.67V21.68z"/>
</g>
</svg>
