<?xml version="1.0" encoding="utf-8"?>
<!-- Generator: Adobe Illustrator 23.1.0, SVG Export Plug-In . SVG Version: 6.00 Build 0)  -->
<svg version="1.1" id="Camada_1" xmlns="http://www.w3.org/2000/svg" xmlns:xlink="http://www.w3.org/1999/xlink" x="0px" y="0px"
	 viewBox="0 0 3000 3000" style="enable-background:new 0 0 3000 3000;" xml:space="preserve">
<style type="text/css">
	.st0{fill:#00A69C;}
	.st1{clip-path:url(#SVGID_2_);}
	.st2{fill:#006A75;}
</style>
<rect class="st0" width="3000" height="3000"/>
<g>
	<defs>
		<rect id="SVGID_1_" width="3000" height="3000"/>
	</defs>
	<clipPath id="SVGID_2_">
		<use xlink:href="#SVGID_1_"  style="overflow:visible;"/>
	</clipPath>
	<g class="st1">
		<path class="st2" d="M2702.7,588.68c-0.04-137.06-24.02-262.83-71.29-373.83c-46.15-108.37-114.24-202.2-202.38-278.87
			c-175.76-152.88-426.87-233.69-726.2-233.69c-311.67,0-556.25,76.68-726.95,227.91c-94.66,83.86-167.5,191.91-216.51,321.14
			c-52.12,137.45-78.55,302.29-78.55,489.94c0,170.74,24.72,324.05,73.46,455.67c45.9,123.94,113.56,230.04,201.1,315.38
			c170.33,166.03,414.74,253.19,708.76,253.18c12.83,0,25.8-0.17,38.82-0.5c112.09-2.81,208.32-12.24,294.18-28.83
			c105.48-20.38,196.15-52.22,269.67-94.66v124.31h436.07V590.53L2702.7,588.68z M2692.22,1755.17h-414.75V1622.8l-8.07,4.83
			c-132.1,79.03-317.47,120.49-566.72,126.72c-308.36,7.89-564.21-78.44-739.86-249.66c-180.05-175.5-271.35-432.35-271.35-763.41
			c0-682.35,340.27-1028.33,1011.35-1028.33c610.17,0,989.21,335.68,989.21,876.05l0.19,1.85V1755.17z"/>
		<path class="st2" d="M2033.84,175.46c-47.25-20.19-97.37-30.89-149.06-31.82v-0.07h-757.57v774.39
			c0,53.79,10.54,105.97,31.31,155.1c20.07,47.45,48.8,90.06,85.39,126.65c36.59,36.59,79.2,65.32,126.65,85.39
			c49.13,20.78,101.31,31.31,155.1,31.31h750.18V542.02c0-106.07-41.2-205.88-116.02-281.06
			C2123.44,224.4,2081.05,195.64,2033.84,175.46z M2265.18,1305.75h-739.52c-213.83,0-387.79-173.96-387.79-387.79V154.23h739
			l2.55,0.01c212.71,1.09,385.76,175.05,385.76,387.78V1305.75z"/>
		<path class="st2" d="M2035.14,2436.68c-43.6-102.39-107.93-191.03-191.21-263.47c-166.04-144.43-403.26-220.76-686.01-220.76
			c-294.41,0-525.46,72.44-686.72,215.31c-89.43,79.23-158.25,181.31-204.55,303.4c-49.23,129.84-74.2,285.55-74.2,462.8
			c0,161.28,23.35,306.1,69.4,430.44c43.36,117.09,107.28,217.33,189.99,297.95c160.91,156.85,391.8,239.19,669.54,239.18
			c12.12,0,24.38-0.16,36.67-0.47c105.87-2.65,196.77-11.56,277.87-27.23c99.43-19.21,184.94-49.2,254.32-89.18v117.19h412.42
			V2791.58l-0.18-1.77C2102.45,2660.35,2079.79,2541.53,2035.14,2436.68z M2092,3891.16h-391.09v-125.24l-8.07,4.83
			c-124.71,74.61-299.73,113.75-535.06,119.63c-291.12,7.45-532.67-74.05-698.5-235.69c-169.98-165.69-256.17-408.18-256.17-720.75
			c0-644.21,321.24-970.85,954.81-970.85c576.05,0,933.9,316.9,933.9,827.04l0.18,1.76V3891.16z"/>
		<path class="st2" d="M1330.05,2369.26v-0.07H614.02v731.62c0,50.84,9.96,100.16,29.6,146.59c18.97,44.84,46.12,85.12,80.7,119.7
			c34.58,34.58,74.86,61.74,119.7,80.7c46.43,19.64,95.75,29.6,146.59,29.6h708.75v-731.62c0-100.25-38.94-194.58-109.65-265.64
			C1520.27,2410.36,1428.25,2371.11,1330.05,2369.26z M1688.71,3466.73H990.61c-201.77,0-365.93-164.16-365.93-365.93v-720.96
			h697.78l2.23,0.01c200.72,1.03,364.01,165.18,364.01,365.92V3466.73z"/>
	</g>
</g>
</svg>
