<?xml version="1.0" encoding="UTF-8" standalone="no"?>
<!-- Generator: Adobe Illustrator 18.0.0, SVG Export Plug-In . SVG Version: 6.00 Build 0)  -->

<svg
   xmlns:dc="http://purl.org/dc/elements/1.1/"
   xmlns:cc="http://creativecommons.org/ns#"
   xmlns:rdf="http://www.w3.org/1999/02/22-rdf-syntax-ns#"
   xmlns:svg="http://www.w3.org/2000/svg"
   xmlns="http://www.w3.org/2000/svg"
   xmlns:sodipodi="http://sodipodi.sourceforge.net/DTD/sodipodi-0.dtd"
   xmlns:inkscape="http://www.inkscape.org/namespaces/inkscape"
   version="1.1"
   id="Capa_1"
   x="0px"
   y="0px"
   viewBox="0 0 311.539 311.539"
   style="enable-background:new 0 0 311.539 311.539;"
   xml:space="preserve"
   sodipodi:docname="ios-plus.svg"
   inkscape:version="0.92.4 (5da689c313, 2019-01-14)"><metadata
   id="metadata3664"><rdf:RDF><cc:Work
       rdf:about=""><dc:format>image/svg+xml</dc:format><dc:type
         rdf:resource="http://purl.org/dc/dcmitype/StillImage" /><dc:title></dc:title></cc:Work></rdf:RDF></metadata><defs
   id="defs3662" /><sodipodi:namedview
   pagecolor="#ffffff"
   bordercolor="#666666"
   borderopacity="1"
   objecttolerance="10"
   gridtolerance="10"
   guidetolerance="10"
   inkscape:pageopacity="0"
   inkscape:pageshadow="2"
   inkscape:window-width="1360"
   inkscape:window-height="705"
   id="namedview3660"
   showgrid="false"
   inkscape:zoom="0.75752955"
   inkscape:cx="155.7695"
   inkscape:cy="155.7695"
   inkscape:window-x="-8"
   inkscape:window-y="-8"
   inkscape:window-maximized="1"
   inkscape:current-layer="Capa_1" />
<g
   id="g3627">
	<path
   d="M214.603,135.77H175.77V96.937c0-11.046-8.954-20-20-20s-20,8.954-20,20v38.833H96.937c-11.046,0-20,8.954-20,20   s8.954,20,20,20h38.833v38.833c0,11.046,8.954,20,20,20s20-8.954,20-20V175.77h38.833c11.046,0,20-8.954,20-20   S225.649,135.77,214.603,135.77z"
   id="path3623" />
	<path
   d="M155.77,0C69.74,0,0,69.74,0,155.77s69.74,155.77,155.77,155.77s155.77-69.74,155.77-155.77S241.799,0,155.77,0z    M155.77,271.539C91.785,271.539,40,219.761,40,155.77C40,91.784,91.778,40,155.77,40c63.985,0,115.77,51.778,115.77,115.77   C271.539,219.755,219.761,271.539,155.77,271.539z"
   id="path3625" />
</g>
<g
   id="g3629">
</g>
<g
   id="g3631">
</g>
<g
   id="g3633">
</g>
<g
   id="g3635">
</g>
<g
   id="g3637">
</g>
<g
   id="g3639">
</g>
<g
   id="g3641">
</g>
<g
   id="g3643">
</g>
<g
   id="g3645">
</g>
<g
   id="g3647">
</g>
<g
   id="g3649">
</g>
<g
   id="g3651">
</g>
<g
   id="g3653">
</g>
<g
   id="g3655">
</g>
<g
   id="g3657">
</g>
</svg>