<?xml version="1.0" encoding="UTF-8" standalone="no"?>
<!-- Generator: Adobe Illustrator 16.0.0, SVG Export Plug-In . SVG Version: 6.00 Build 0)  -->

<svg
   xmlns:osb="http://www.openswatchbook.org/uri/2009/osb"
   xmlns:dc="http://purl.org/dc/elements/1.1/"
   xmlns:cc="http://creativecommons.org/ns#"
   xmlns:rdf="http://www.w3.org/1999/02/22-rdf-syntax-ns#"
   xmlns:svg="http://www.w3.org/2000/svg"
   xmlns="http://www.w3.org/2000/svg"
   xmlns:sodipodi="http://sodipodi.sourceforge.net/DTD/sodipodi-0.dtd"
   xmlns:inkscape="http://www.inkscape.org/namespaces/inkscape"
   version="1.1"
   id="Capa_1"
   x="0px"
   y="0px"
   width="276.164px"
   height="276.164px"
   viewBox="0 0 276.164 276.164"
   style="enable-background:new 0 0 276.164 276.164;"
   xml:space="preserve"
   sodipodi:docname="ios-potpourri.svg"
   inkscape:version="0.92.4 (5da689c313, 2019-01-14)"><metadata
   id="metadata5772"><rdf:RDF><cc:Work
       rdf:about=""><dc:format>image/svg+xml</dc:format><dc:type
         rdf:resource="http://purl.org/dc/dcmitype/StillImage" /><dc:title></dc:title></cc:Work></rdf:RDF></metadata><defs
   id="defs5770"><linearGradient
     id="linearGradient7834"
     osb:paint="solid"><stop
       style="stop-color:#000000;stop-opacity:1;"
       offset="0"
       id="stop7832" /></linearGradient><linearGradient
     id="linearGradient7810"
     osb:paint="solid"><stop
       style="stop-color:#ffffff;stop-opacity:1;"
       offset="0"
       id="stop7808" /></linearGradient><linearGradient
     id="linearGradient6356"
     osb:paint="gradient"><stop
       style="stop-color:#ffffff;stop-opacity:1;"
       offset="0"
       id="stop6352" /><stop
       style="stop-color:#ffffff;stop-opacity:0;"
       offset="1"
       id="stop6354" /></linearGradient></defs><sodipodi:namedview
   pagecolor="#ffffff"
   bordercolor="#666666"
   borderopacity="1"
   objecttolerance="10"
   gridtolerance="10"
   guidetolerance="10"
   inkscape:pageopacity="0"
   inkscape:pageshadow="2"
   inkscape:window-width="1360"
   inkscape:window-height="705"
   id="namedview5768"
   showgrid="false"
   inkscape:zoom="0.85456467"
   inkscape:cx="-77.8174"
   inkscape:cy="138.082"
   inkscape:window-x="-8"
   inkscape:window-y="-8"
   inkscape:window-maximized="1"
   inkscape:current-layer="Capa_1" />

<g
   id="g5737">
</g>
<g
   id="g5739">
</g>
<g
   id="g5741">
</g>
<g
   id="g5743">
</g>
<g
   id="g5745">
</g>
<g
   id="g5747">
</g>
<g
   id="g5749">
</g>
<g
   id="g5751">
</g>
<g
   id="g5753">
</g>
<g
   id="g5755">
</g>
<g
   id="g5757">
</g>
<g
   id="g5759">
</g>
<g
   id="g5761">
</g>
<g
   id="g5763">
</g>
<g
   id="g5765">
</g>
<path
   d="M 193.60226,3.5801868 62.121171,48.904273 C 56.550715,50.703498 52.007348,56.675298 52.007348,62.072855 V 177.83298 c -4.582947,-0.72794 -9.758422,-0.65039 -15.170908,0.6122 -19.556191,4.63201 -35.398785,21.74334 -35.398785,37.97431 0,16.23098 15.842594,25.45658 35.398785,20.82458 19.31918,-4.55541 35.003686,-21.01599 35.398665,-37.05555 0,-0.19096 0,-0.42126 0,-0.61221 V 84.734953 L 183.48832,46.148095 V 148.43366 c -4.58284,-0.72794 -9.75831,-0.6504 -15.1708,0.61219 -19.55631,4.6319 -35.39878,21.74322 -35.39878,37.97432 0,16.23086 15.84247,25.45647 35.39878,20.82456 19.55619,-4.632 35.39868,-21.43711 35.39868,-37.66809 V 13.379693 c 0,-5.3974414 -4.54338,-9.7997373 -10.11394,-9.7997373 z"
   id="path825"
   inkscape:connector-curvature="0"
   style="opacity:1;fill-opacity:1;fill-rule:nonzero;stroke-width:9.95562267" /><g
   id="g856"
   transform="matrix(7.2403093,0,0,7.1791318,135.42842,118.32965)"><path
     id="path845"
     d="m 11,3 v 1 4 6.541016 A 4,4 0 0 0 9,14 4,4 0 0 0 5,18 4,4 0 0 0 9,22 4,4 0 0 0 13,18 V 8 h 6 V 3 Z"
     inkscape:connector-curvature="0" /></g></svg>