<svg id="Layer_2" height="512" viewBox="0 0 128 128" width="512" xmlns="http://www.w3.org/2000/svg" data-name="Layer 2"><path d="m49.206 107.2a1.751 1.751 0 0 0 -2.449.358 13.368 13.368 0 0 1 -1.273 1.472 14.322 14.322 0 0 1 -10.252 4.035 1.75 1.75 0 1 0 0 3.5 17.8 17.8 0 0 0 12.727-5.06 16.923 16.923 0 0 0 1.6-1.856 1.75 1.75 0 0 0 -.353-2.449z"/><path d="m37.058 108.248a1.75 1.75 0 0 0 1.237-2.987l-15.556-15.556a1.75 1.75 0 0 0 -2.475 2.474l15.556 15.556a1.745 1.745 0 0 0 1.238.513z"/><path d="m121.3 10.628-3.93-3.928a7.751 7.751 0 0 0 -11.655.793l-.871 1.183-1.191-1.191a1.75 1.75 0 1 0 -2.474 2.475l1.566 1.566-1.55 2.106-1.2-1.2a1.75 1.75 0 1 0 -2.475 2.475l1.58 1.58-1.675 2.275a1.753 1.753 0 0 0 -.23.423l-1.516 4.047-32.699 32.125c-8.589-5.181-18.42-4.8-24.3 1.091a15.531 15.531 0 0 0 -3.741 6.022 8.231 8.231 0 0 1 -7.306 5.563 24.654 24.654 0 0 0 -16.088 7.06c-10.235 10.235-9.284 27.84 2.121 39.244a30.735 30.735 0 0 0 21.569 9.216 24.212 24.212 0 0 0 24.735-23.179 8.232 8.232 0 0 1 5.563-7.31 15.619 15.619 0 0 0 6.016-3.735c5.9-5.888 6.278-15.717 1.1-24.307l32.143-32.706 4.026-1.509a1.791 1.791 0 0 0 .424-.229l2.275-1.675 1.572 1.573a1.75 1.75 0 1 0 2.47-2.476l-1.2-1.2 2.106-1.551 1.567 1.568a1.75 1.75 0 1 0 2.475-2.475l-1.192-1.192 1.183-.871.024-.019a7.745 7.745 0 0 0 .77-11.636zm-52.229 76.225a12.157 12.157 0 0 1 -4.681 2.9 11.717 11.717 0 0 0 -7.917 10.414 20.873 20.873 0 0 1 -6.04 13.813c-8.871 8.871-24.255 7.918-34.3-2.12s-10.99-25.425-2.12-34.3a20.874 20.874 0 0 1 13.816-6.04 11.717 11.717 0 0 0 10.411-7.916 12.073 12.073 0 0 1 2.905-4.685c4.56-4.569 12.246-4.9 19.243-1.026l-13.047 12.83c-.1 0-.2-.014-.3-.014a10.246 10.246 0 1 0 0 20.492 10.238 10.238 0 0 0 10.25-10.246c0-.1-.012-.2-.015-.3l12.824-13.045c3.871 6.997 3.542 14.681-1.029 19.243zm-21.371-12.613a6.753 6.753 0 1 1 -.655-.032q.321 0 .641.031zm8.629 2.391a10.108 10.108 0 0 0 -4.958-4.959l46.015-45.214 4.161 4.161zm62.083-57.156-11.054 8.14-2.811 1.053-5.217-5.216 1.054-2.811 6.116-8.309.012-.015 2-2.715a4.269 4.269 0 0 1 3.107-1.66 4.178 4.178 0 0 1 3.281 1.236l3.92 3.922a4.245 4.245 0 0 1 -.409 6.372z"/></svg>