<?xml version="1.0" encoding="iso-8859-1"?>
<!-- Generator: Adobe Illustrator 18.0.0, SVG Export Plug-In . SVG Version: 6.00 Build 0)  -->
<!DOCTYPE svg PUBLIC "-//W3C//DTD SVG 1.1//EN" "http://www.w3.org/Graphics/SVG/1.1/DTD/svg11.dtd">
<svg version="1.1" id="Capa_1" xmlns="http://www.w3.org/2000/svg" xmlns:xlink="http://www.w3.org/1999/xlink" x="0px" y="0px"
	 viewBox="0 0 493.794 493.794" style="enable-background:new 0 0 493.794 493.794;" xml:space="preserve">
<path id="XMLID_300_" d="M489.42,46.697L447.087,4.368c-3.221-3.218-7.748-4.795-12.279-4.269
	c-4.531,0.524-8.556,3.097-10.967,6.971l-10.324,16.704l-3.055-3.051c-3.234-3.235-8.476-3.235-11.711,0
	c-3.236,3.236-3.236,8.476,0,11.712l5.805,5.808l-2.036,3.284l-0.582-0.573c-3.235-3.235-8.48-3.235-11.716,0
	c-3.235,3.235-3.235,8.477,0,11.712l3.332,3.332l-2.018,3.277l-3.963-3.956c-3.235-3.235-8.481-3.235-11.716,0
	c-3.235,3.235-3.235,8.477,0,11.712l5.342,5.338L257.993,195.574c-31.771-16.701-69.759-13.741-94.135,10.605
	c-7.591,7.604-13.153,16.55-16.666,26.214c-7.956,21.865-28.356,36.756-51.621,37.67c-24.896,0.978-48.725,10.394-66.877,28.544
	c-41.315,41.332-37.56,112.123,8.38,158.091c45.979,45.968,116.768,49.73,158.115,8.397c18.139-18.158,27.55-41.981,28.536-66.885
	c0.909-23.246,15.808-43.654,37.662-51.613c9.675-3.52,18.605-9.06,26.209-16.655c24.362-24.371,27.338-62.371,10.627-94.15
	l123.205-123.198l5.32,5.331c1.618,1.618,3.756,2.427,5.859,2.427c2.133,0,4.235-0.809,5.854-2.427
	c3.234-3.235,3.234-8.477,0-11.712l-3.945-3.956l3.302-2.038l3.332,3.332c1.618,1.617,3.721,2.427,5.853,2.427
	c2.104,0,4.242-0.81,5.859-2.427c3.235-3.235,3.235-8.477,0-11.712l-0.582-0.573l3.266-2.031l5.823,5.801
	c1.618,1.617,3.72,2.426,5.858,2.426c2.103,0,4.236-0.809,5.853-2.426c3.235-3.236,3.235-8.477,0-11.712l-3.055-3.051l16.693-10.336
	c3.865-2.402,6.439-6.44,6.973-10.97C494.208,54.438,492.639,49.924,489.42,46.697z M163.774,420.503
	c-3.235,3.235-7.471,4.854-11.712,4.854c-4.235,0-8.476-1.618-11.711-4.854l-67.071-67.07c-6.471-6.471-6.471-16.953,0-23.426
	c6.471-6.471,16.952-6.471,23.424,0l67.07,67.07C170.245,403.548,170.245,414.033,163.774,420.503z M238.903,305.79
	c-14.075,14.05-36.851,14.05-50.926,0c-14.025-14.049-14.025-36.844,0.014-50.9c14.062-14.06,36.837-14.051,50.912-0.009
	C252.942,268.946,252.942,291.741,238.903,305.79z"/>
<g>
</g>
<g>
</g>
<g>
</g>
<g>
</g>
<g>
</g>
<g>
</g>
<g>
</g>
<g>
</g>
<g>
</g>
<g>
</g>
<g>
</g>
<g>
</g>
<g>
</g>
<g>
</g>
<g>
</g>
</svg>
