<?xml version="1.0" encoding="UTF-8" standalone="no"?>
<!-- Generator: Adobe Illustrator 18.1.1, SVG Export Plug-In . SVG Version: 6.00 Build 0)  -->

<svg
   xmlns:dc="http://purl.org/dc/elements/1.1/"
   xmlns:cc="http://creativecommons.org/ns#"
   xmlns:rdf="http://www.w3.org/1999/02/22-rdf-syntax-ns#"
   xmlns:svg="http://www.w3.org/2000/svg"
   xmlns="http://www.w3.org/2000/svg"
   xmlns:sodipodi="http://sodipodi.sourceforge.net/DTD/sodipodi-0.dtd"
   xmlns:inkscape="http://www.inkscape.org/namespaces/inkscape"
   version="1.1"
   id="Capa_1"
   x="0px"
   y="0px"
   viewBox="0 0 16 16"
   style="enable-background:new 0 0 16 16;"
   xml:space="preserve"
   sodipodi:docname="obraonline.svg"
   inkscape:version="0.92.4 (5da689c313, 2019-01-14)"><metadata
   id="metadata2997"><rdf:RDF><cc:Work
       rdf:about=""><dc:format>image/svg+xml</dc:format><dc:type
         rdf:resource="http://purl.org/dc/dcmitype/StillImage" /><dc:title></dc:title></cc:Work></rdf:RDF></metadata><defs
   id="defs2995" /><sodipodi:namedview
   pagecolor="#ffffff"
   bordercolor="#666666"
   borderopacity="1"
   objecttolerance="10"
   gridtolerance="10"
   guidetolerance="10"
   inkscape:pageopacity="0"
   inkscape:pageshadow="2"
   inkscape:window-width="1360"
   inkscape:window-height="705"
   id="namedview2993"
   showgrid="false"
   inkscape:zoom="10.429825"
   inkscape:cx="-17.715724"
   inkscape:cy="10.313753"
   inkscape:window-x="-8"
   inkscape:window-y="-8"
   inkscape:window-maximized="1"
   inkscape:current-layer="Capa_1" />
<g
   id="g2960"
   transform="matrix(0.64745892,0,0,0.64745892,5.4643867,0.38353841)">
	<path
   style="fill:#010002"
   d="M 0.899,15.228 C 1.647,16.199 3.192,16.262 4.35,15.37 4.821,15.007 5.147,14.541 5.328,14.052 5.432,13.846 5.5,13.554 5.5,13.22 V 5.747 l 9,-1.701 v 3.946 c 0,1.392 -1.065,1.712 -1.442,1.783 L 12.96,9.793 12.918,9.798 12.924,9.8 c -0.446,0.081 -0.895,0.268 -1.298,0.578 -1.158,0.892 -1.491,2.402 -0.743,3.373 0.748,0.971 2.293,1.035 3.451,0.143 0.586,-0.452 0.959,-1.062 1.089,-1.68 0.045,-0.15 0.077,-0.315 0.077,-0.502 V 2.006 L 15.483,1.835 15.5,1.741 v -1 c 0,-0.552 -0.448,-0.864 -1,-0.695 l -9,1.701 C 4.948,1.915 4.5,2.5 4.5,3.052 v 1 L 4.508,4.089 4.5,4.175 v 5.294 c 0,1.394 -1.068,1.713 -1.444,1.783 l -0.058,0.012 -0.081,0.011 0.011,0.005 c -0.442,0.083 -0.887,0.268 -1.286,0.575 -1.158,0.892 -1.49,2.402 -0.743,3.373 z"
   id="path2958"
   inkscape:connector-curvature="0" />
</g>
<g
   id="g2962">
</g>
<g
   id="g2964">
</g>
<g
   id="g2966">
</g>
<g
   id="g2968">
</g>
<g
   id="g2970">
</g>
<g
   id="g2972">
</g>
<g
   id="g2974">
</g>
<g
   id="g2976">
</g>
<g
   id="g2978">
</g>
<g
   id="g2980">
</g>
<g
   id="g2982">
</g>
<g
   id="g2984">
</g>
<g
   id="g2986">
</g>
<g
   id="g2988">
</g>
<g
   id="g2990">
</g>
<g
   id="g3627"
   transform="matrix(0.02009895,0,0,0.02009895,0.49287368,9.4834073)"><path
     inkscape:connector-curvature="0"
     d="M 214.603,135.77 H 175.77 V 96.937 c 0,-11.046 -8.954,-20 -20,-20 -11.046,0 -20,8.954 -20,20 V 135.77 H 96.937 c -11.046,0 -20,8.954 -20,20 0,11.046 8.954,20 20,20 h 38.833 v 38.833 c 0,11.046 8.954,20 20,20 11.046,0 20,-8.954 20,-20 V 175.77 h 38.833 c 11.046,0 20,-8.954 20,-20 0,-11.046 -8.954,-20 -20,-20 z"
     id="path3623" /><path
     inkscape:connector-curvature="0"
     d="M 155.77,0 C 69.74,0 0,69.74 0,155.77 0,241.8 69.74,311.54 155.77,311.54 241.8,311.54 311.54,241.8 311.54,155.77 311.54,69.74 241.799,0 155.77,0 Z m 0,271.539 C 91.785,271.539 40,219.761 40,155.77 40,91.784 91.778,40 155.77,40 c 63.985,0 115.77,51.778 115.77,115.77 -0.001,63.985 -51.779,115.769 -115.77,115.769 z"
     id="path3625" /></g></svg>