<?xml version="1.0" encoding="iso-8859-1"?>
<!-- Generator: Adobe Illustrator 16.0.0, SVG Export Plug-In . SVG Version: 6.00 Build 0)  -->
<!DOCTYPE svg PUBLIC "-//W3C//DTD SVG 1.1//EN" "http://www.w3.org/Graphics/SVG/1.1/DTD/svg11.dtd">
<svg version="1.1" id="Capa_1" xmlns="http://www.w3.org/2000/svg" xmlns:xlink="http://www.w3.org/1999/xlink" x="0px" y="0px"
	 width="200.941px" height="200.941px" viewBox="0 0 200.941 200.941" style="enable-background:new 0 0 200.941 200.941;"
	 xml:space="preserve">
<g>
	<g>
		<path d="M187.901,130.832c-4.816-2.789-10.717-1.931-14.608,1.656l-29.647-17.117c-3.094,0.992-6.601,1.82-10.485,2.515
			l36.425,21.032c-1.157,5.164,1.048,10.692,5.864,13.481c5.949,3.435,13.572,1.388,17.007-4.562
			C195.896,141.877,193.851,134.266,187.901,130.832z"/>
		<path d="M104.182,176.671v-56.386h-7.417v56.386c-5.048,1.589-8.741,6.247-8.741,11.825c0,6.868,5.581,12.445,12.452,12.445
			s12.456-5.577,12.456-12.445C112.926,182.918,109.229,178.26,104.182,176.671z"/>
		<path d="M56.905,115.597l-29.258,16.892c-3.903-3.581-9.782-4.445-14.608-1.656c-5.949,3.434-7.995,11.039-4.552,17
			c3.44,5.955,11.055,7.989,17.004,4.555c4.82-2.776,7.021-8.317,5.867-13.48l36.169-20.881
			C63.6,117.362,60.041,116.559,56.905,115.597z"/>
		<path d="M151.189,97.144c0-14.279-16.44-33.545-38.642-39.169c9.286-6.247,15.68-18.557,15.68-29.642
			C128.228,12.681,115.538,0,99.897,0c-15.64,0-28.327,12.681-28.327,28.333c0,11.085,6.391,23.395,15.674,29.642
			C65.046,63.598,48.605,82.87,48.605,97.144C48.6,114.014,151.189,114.014,151.189,97.144z M97.62,66.186h-0.131L92.795,60.8
			c2.268,0.816,4.64,1.304,7.097,1.304c2.454,0,4.819-0.487,7.091-1.297l-4.698,5.386h-0.118l12.099,29.243L99.892,109.8
			L85.518,95.436L97.62,66.186z"/>
	</g>
</g>
<g>
</g>
<g>
</g>
<g>
</g>
<g>
</g>
<g>
</g>
<g>
</g>
<g>
</g>
<g>
</g>
<g>
</g>
<g>
</g>
<g>
</g>
<g>
</g>
<g>
</g>
<g>
</g>
<g>
</g>
</svg>
